{"glyphs":{"0":{"ha":966,"x_min":50,"x_max":917,"o":"m 415 158 q 508 189 467 158 q 575 281 548 220 q 610 378 594 323 q 639 507 625 433 q 656 618 650 568 q 663 705 663 669 q 635 817 663 781 q 551 852 608 852 q 458 822 498 852 q 392 730 418 792 q 355 630 372 686 q 326 507 338 574 q 309 394 315 446 q 302 306 302 342 q 330 194 302 231 q 415 158 358 158 m 917 667 q 880 404 917 532 q 775 180 842 277 q 610 31 707 81 q 393 -20 513 -20 q 139 75 227 -20 q 50 346 50 169 q 87 607 50 479 q 191 829 124 734 q 357 980 260 929 q 574 1031 453 1031 q 828 936 739 1031 q 917 667 917 842 z "},"1":{"ha":966,"x_min":60,"x_max":803,"o":"m 96 180 l 326 180 l 453 835 l 207 786 l 241 964 l 486 1013 l 734 1013 l 574 180 l 803 180 l 768 0 l 60 0 l 96 180 z "},"2":{"ha":966,"x_min":11,"x_max":889,"o":"m 343 192 l 783 192 l 746 0 l 11 0 l 49 193 l 479 518 q 587 628 550 572 q 624 736 624 684 q 586 822 624 791 q 479 852 548 852 q 336 827 415 852 q 157 749 256 802 l 200 964 q 381 1014 292 998 q 557 1031 470 1031 q 800 964 711 1031 q 889 782 889 897 q 835 602 889 683 q 596 382 781 520 l 343 192 z "},"3":{"ha":966,"x_min":0,"x_max":885,"o":"m 656 546 q 775 475 732 528 q 818 343 818 421 q 685 78 818 175 q 318 -20 551 -20 q 150 -7 230 -20 q 0 31 71 5 l 39 232 q 170 177 99 197 q 313 158 241 158 q 494 201 427 158 q 561 317 561 244 q 510 407 561 377 q 357 437 459 437 l 253 437 l 286 606 l 396 606 q 565 644 503 606 q 627 749 627 683 q 584 827 627 800 q 458 854 541 854 q 333 840 401 854 q 192 796 265 825 l 229 987 q 387 1020 309 1009 q 541 1031 465 1031 q 799 974 712 1031 q 885 804 885 917 q 825 636 885 703 q 656 546 765 568 z "},"4":{"ha":966,"x_min":-1,"x_max":882,"o":"m 572 790 l 212 374 l 490 374 l 572 790 m 566 1013 l 863 1013 l 737 374 l 882 374 l 846 184 l 701 184 l 665 0 l 418 0 l 454 184 l -1 184 l 43 408 l 566 1013 z "},"5":{"ha":966,"x_min":18,"x_max":895,"o":"m 245 1013 l 895 1013 l 857 821 l 416 821 l 386 664 q 448 676 416 672 q 513 681 480 681 q 755 610 668 681 q 843 414 843 539 q 708 97 843 214 q 342 -20 573 -20 q 177 -3 257 -20 q 18 47 97 14 l 58 253 q 204 181 134 204 q 349 158 275 158 q 520 214 456 158 q 585 361 585 270 q 536 464 585 426 q 403 503 487 503 q 280 488 346 503 q 135 443 214 473 l 245 1013 z "},"6":{"ha":966,"x_min":69,"x_max":917,"o":"m 503 500 q 376 436 425 500 q 326 272 326 372 q 357 178 326 212 q 441 144 387 144 q 568 207 518 144 q 618 366 618 270 q 588 465 618 431 q 503 500 558 500 m 917 986 l 880 799 q 767 844 822 829 q 657 859 712 859 q 453 791 531 859 q 358 600 375 723 q 467 651 411 635 q 586 668 523 668 q 790 594 711 668 q 869 406 869 520 q 747 99 869 218 q 432 -21 625 -21 q 164 77 259 -21 q 69 354 69 175 q 111 618 69 492 q 229 835 153 744 q 421 981 311 932 q 671 1029 532 1029 q 795 1019 734 1029 q 917 986 855 1008 z "},"7":{"ha":966,"x_min":109,"x_max":964,"o":"m 200 1013 l 964 1013 l 933 864 l 370 0 l 109 0 l 644 821 l 164 821 l 200 1013 z "},"8":{"ha":966,"x_min":31,"x_max":916,"o":"m 467 453 q 334 399 387 453 q 281 267 281 345 q 315 177 281 210 q 410 144 350 144 q 543 198 490 144 q 596 330 596 251 q 561 420 596 387 q 467 453 526 453 m 300 539 q 190 618 227 570 q 154 736 154 667 q 267 952 154 873 q 579 1031 380 1031 q 827 971 739 1031 q 916 803 916 911 q 854 638 916 707 q 679 539 793 570 q 801 454 762 507 q 840 318 840 400 q 719 71 840 162 q 385 -20 597 -20 q 124 47 217 -20 q 31 233 31 114 q 102 422 31 341 q 300 539 174 503 m 555 867 q 445 826 486 867 q 403 720 403 786 q 433 645 403 673 q 513 616 463 616 q 624 657 582 616 q 665 764 665 697 q 635 839 665 810 q 555 867 605 867 z "},"9":{"ha":966,"x_min":57,"x_max":905,"o":"m 57 22 l 93 210 q 207 164 152 179 q 317 150 262 150 q 521 218 443 150 q 615 408 599 286 q 507 357 563 374 q 389 340 452 340 q 185 414 264 340 q 106 603 106 488 q 228 910 106 790 q 543 1029 351 1029 q 811 931 716 1029 q 905 654 905 833 q 863 391 905 517 q 745 174 821 265 q 553 28 663 77 q 304 -21 443 -21 q 179 -10 240 -21 q 57 22 118 1 m 471 509 q 597 572 548 509 q 647 736 647 636 q 617 831 647 798 q 533 864 588 864 q 406 801 456 864 q 355 643 355 738 q 385 543 355 578 q 471 509 415 509 z "},"\u0000":{"ha":833,"x_min":69,"x_max":764,"o":"m 69 -245 l 69 979 l 764 979 l 764 -245 l 69 -245 m 147 -168 l 686 -168 l 686 901 l 147 901 l 147 -168 z "}," ":{"ha":484,"x_min":0,"x_max":0,"o":""},"!":{"ha":633,"x_min":96,"x_max":538,"o":"m 293 1013 l 538 1013 l 461 624 l 372 340 l 197 340 l 216 624 l 293 1013 m 143 241 l 387 241 l 340 0 l 96 0 l 143 241 z "},"\"":{"ha":724,"x_min":132,"x_max":591,"o":"m 591 1013 l 591 636 l 431 636 l 431 1013 l 591 1013 m 293 1013 l 293 636 l 132 636 l 132 1013 l 293 1013 z "},"#":{"ha":966,"x_min":90,"x_max":1083,"o":"m 694 591 l 515 591 l 468 406 l 647 406 l 694 591 m 618 997 l 553 736 l 732 736 l 798 997 l 947 997 l 882 736 l 1083 736 l 1047 591 l 846 591 l 799 406 l 1000 406 l 964 260 l 764 260 l 699 0 l 549 0 l 614 260 l 435 260 l 370 0 l 218 0 l 283 260 l 90 260 l 126 406 l 317 406 l 364 591 l 172 591 l 208 736 l 401 736 l 467 997 l 618 997 z "},"$":{"ha":966,"x_min":37,"x_max":875,"o":"m 404 -204 l 294 -204 l 334 0 q 174 18 248 3 q 37 58 100 33 l 71 236 q 209 178 136 199 q 364 155 283 157 l 406 366 q 198 441 263 387 q 134 593 134 496 q 235 811 134 728 q 509 900 336 894 l 539 1055 l 648 1055 l 619 901 q 751 886 688 897 q 875 856 815 874 l 842 684 q 734 725 799 709 q 589 745 669 741 l 550 550 q 764 471 694 526 q 833 325 833 416 q 731 91 833 176 q 444 0 629 6 l 404 -204 m 444 567 l 479 745 q 388 712 422 739 q 354 643 354 684 q 376 592 354 610 q 444 567 398 573 m 511 347 l 474 154 q 577 186 541 157 q 614 267 614 216 q 589 320 614 301 q 511 347 564 340 z "},"%":{"ha":1392,"x_min":77,"x_max":1315,"o":"m 1061 418 q 965 361 1003 418 q 928 214 928 304 q 948 125 928 155 q 1011 96 969 96 q 1107 153 1070 96 q 1145 301 1145 210 q 1123 388 1145 359 q 1061 418 1102 418 m 1080 532 q 1251 474 1187 532 q 1315 321 1315 416 q 1225 75 1315 169 q 990 -20 1135 -20 q 820 39 884 -20 q 755 193 755 98 q 845 438 755 344 q 1080 532 935 532 m 361 -20 l 195 -20 l 1032 1031 l 1198 1031 l 361 -20 m 403 1031 q 573 972 509 1031 q 637 819 637 914 q 547 574 637 668 q 311 479 456 479 q 141 537 205 479 q 77 690 77 595 q 167 936 77 841 q 403 1031 258 1031 m 382 917 q 286 860 323 917 q 249 713 249 802 q 270 623 249 653 q 332 593 290 593 q 428 650 391 593 q 465 800 465 708 q 444 887 465 857 q 382 917 422 917 z "},"&":{"ha":1211,"x_min":39,"x_max":1129,"o":"m 595 621 l 796 367 q 869 469 838 410 q 918 607 899 529 l 1129 607 q 1046 391 1100 488 q 911 218 992 294 l 1084 0 l 787 0 l 730 72 q 570 3 650 26 q 407 -20 490 -20 q 140 64 241 -20 q 39 282 39 147 q 103 470 39 385 q 304 633 168 556 q 278 694 287 663 q 269 757 269 724 q 372 954 269 876 q 636 1031 474 1031 q 763 1021 698 1031 q 896 991 827 1011 l 860 803 q 747 851 801 836 q 640 867 694 867 q 548 842 582 867 q 514 777 514 818 q 534 711 514 751 q 595 621 555 671 m 390 504 q 308 424 336 469 q 279 328 279 379 q 331 205 279 255 q 460 155 382 155 q 541 170 500 155 q 621 212 581 184 l 390 504 z "},"'":{"ha":425,"x_min":132,"x_max":293,"o":"m 293 1013 l 293 636 l 132 636 l 132 1013 l 293 1013 z "},"(":{"ha":635,"x_min":107,"x_max":650,"o":"m 410 -183 l 212 -183 q 133 38 159 -71 q 107 253 107 146 q 193 653 107 453 q 453 1054 279 852 l 650 1054 q 414 638 492 844 q 336 225 336 432 q 355 22 336 123 q 410 -183 373 -79 z "},")":{"ha":635,"x_min":-37,"x_max":505,"o":"m 203 1054 l 401 1054 q 479 834 454 943 q 505 618 505 726 q 419 216 505 416 q 161 -183 334 16 l -37 -183 q 199 233 121 27 q 277 647 277 439 q 258 849 277 749 q 203 1054 240 950 z "},"*":{"ha":726,"x_min":28,"x_max":699,"o":"m 699 825 l 475 708 l 699 590 l 647 494 l 421 619 l 421 386 l 306 386 l 306 619 l 79 494 l 28 590 l 254 708 l 28 825 l 79 921 l 306 798 l 306 1031 l 421 1031 l 421 798 l 647 921 l 699 825 z "},"+":{"ha":1164,"x_min":147,"x_max":1017,"o":"m 663 871 l 663 515 l 1017 515 l 1017 355 l 663 355 l 663 0 l 501 0 l 501 355 l 147 355 l 147 515 l 501 515 l 501 871 l 663 871 z "},",":{"ha":528,"x_min":-47,"x_max":355,"o":"m 111 262 l 355 262 l 315 56 l 97 -197 l -47 -197 l 71 56 l 111 262 z "},"-":{"ha":576,"x_min":35,"x_max":500,"o":"m 74 498 l 500 498 l 461 301 l 35 301 l 74 498 z "},".":{"ha":528,"x_min":64,"x_max":359,"o":"m 115 262 l 359 262 l 309 0 l 64 0 l 115 262 z "},"/":{"ha":507,"x_min":-134,"x_max":603,"o":"m 446 1013 l 603 1013 l 24 -129 l -134 -129 l 446 1013 z "},":":{"ha":555,"x_min":57,"x_max":449,"o":"m 204 760 l 449 760 l 399 497 l 154 497 l 204 760 m 109 262 l 353 262 l 301 0 l 57 0 l 109 262 z "},";":{"ha":555,"x_min":-49,"x_max":449,"o":"m 109 262 l 353 262 l 313 56 l 96 -197 l -49 -197 l 68 56 l 109 262 m 204 760 l 449 760 l 399 497 l 154 497 l 204 760 z "},"<":{"ha":1164,"x_min":147,"x_max":1017,"o":"m 1017 660 l 363 435 l 1017 211 l 1017 41 l 147 355 l 147 515 l 1017 829 l 1017 660 z "},"=":{"ha":1164,"x_min":147,"x_max":1017,"o":"m 147 669 l 1017 669 l 1017 510 l 147 510 l 147 669 m 147 361 l 1017 361 l 1017 200 l 147 200 l 147 361 z "},">":{"ha":1164,"x_min":147,"x_max":1017,"o":"m 147 660 l 147 829 l 1017 515 l 1017 355 l 147 41 l 147 211 l 802 435 l 147 660 z "},"?":{"ha":806,"x_min":144,"x_max":770,"o":"m 192 241 l 436 241 l 389 0 l 144 0 l 192 241 m 456 342 l 211 342 l 216 375 q 257 472 227 429 q 375 583 286 514 l 425 623 q 503 700 479 664 q 528 772 528 736 q 500 832 528 811 q 421 852 473 852 q 299 830 367 852 q 153 762 231 807 l 195 975 q 352 1017 281 1004 q 489 1031 423 1031 q 695 973 621 1031 q 770 814 770 915 q 734 669 770 733 q 611 536 698 606 l 559 496 q 486 428 505 454 q 461 372 467 401 l 456 342 z "},"@":{"ha":1389,"x_min":62,"x_max":1287,"o":"m 701 543 q 578 472 629 543 q 526 302 526 401 q 554 216 526 245 q 633 186 581 186 q 755 254 705 186 q 806 421 806 322 q 779 511 806 479 q 701 543 751 543 m 778 167 q 696 88 747 116 q 585 60 646 60 q 432 124 488 60 q 376 301 376 188 q 473 560 376 451 q 703 669 569 669 q 801 641 759 669 q 857 566 844 612 l 873 656 l 1011 656 l 921 186 q 1092 297 1023 201 q 1161 522 1161 393 q 1049 758 1161 667 q 760 850 938 850 q 512 798 627 850 q 318 650 398 747 q 223 486 256 575 q 191 300 191 396 q 303 2 191 117 q 591 -114 415 -114 q 750 -84 671 -114 q 899 1 828 -55 l 972 -106 q 777 -205 873 -172 q 583 -239 680 -239 q 407 -211 492 -239 q 256 -131 322 -183 q 112 50 161 -58 q 62 294 62 158 q 103 525 62 414 q 221 729 144 636 q 459 912 320 848 q 760 977 599 977 q 968 945 872 977 q 1139 851 1063 913 q 1249 710 1210 791 q 1287 541 1287 629 q 1148 193 1287 327 q 785 60 1010 60 q 775 59 781 60 q 766 58 769 58 q 761 59 763 58 q 757 60 758 59 l 778 167 z "},"A":{"ha":1075,"x_min":-90,"x_max":960,"o":"m 682 184 l 278 184 l 178 0 l -90 0 l 482 1013 l 781 1013 l 960 0 l 711 0 l 682 184 m 376 368 l 648 368 l 587 758 l 376 368 z "},"B":{"ha":1059,"x_min":29,"x_max":971,"o":"m 555 621 q 665 656 625 621 q 704 753 704 691 q 676 814 704 793 q 597 835 649 835 l 452 835 l 410 621 l 555 621 m 478 178 q 616 220 568 178 q 664 343 664 263 q 631 418 664 394 q 529 443 597 443 l 375 443 l 323 178 l 478 178 m 787 542 q 890 472 854 523 q 926 347 926 422 q 805 92 926 184 q 463 0 683 0 l 29 0 l 227 1013 l 618 1013 q 885 960 798 1013 q 971 796 971 907 q 920 633 971 703 q 787 542 869 563 z "},"C":{"ha":1019,"x_min":50,"x_max":1006,"o":"m 842 47 q 662 -3 748 14 q 498 -20 576 -20 q 172 92 294 -20 q 50 389 50 204 q 89 617 50 510 q 203 814 127 725 q 417 975 292 918 q 686 1031 542 1031 q 844 1012 765 1031 q 1006 956 924 994 l 964 746 q 833 819 899 795 q 692 842 767 842 q 429 721 535 842 q 323 419 323 600 q 389 236 323 302 q 568 170 454 170 q 714 194 637 170 q 886 272 791 219 l 842 47 z "},"D":{"ha":1153,"x_min":29,"x_max":1092,"o":"m 450 815 l 329 197 l 422 197 q 711 300 605 197 q 818 576 818 402 q 748 755 818 694 q 542 815 679 815 l 450 815 m 227 1013 l 501 1013 q 796 989 698 1013 q 960 911 895 966 q 1059 778 1025 856 q 1092 600 1092 699 q 1035 341 1092 463 q 876 136 979 219 q 668 31 787 62 q 304 0 550 0 l 29 0 l 227 1013 z "},"E":{"ha":949,"x_min":29,"x_max":930,"o":"m 227 1013 l 930 1013 l 892 815 l 449 815 l 412 627 l 829 627 l 790 429 l 374 429 l 329 197 l 786 197 l 749 0 l 29 0 l 227 1013 z "},"F":{"ha":949,"x_min":29,"x_max":930,"o":"m 227 1013 l 930 1013 l 892 815 l 449 815 l 412 627 l 829 627 l 790 429 l 374 429 l 290 0 l 29 0 l 227 1013 z "},"G":{"ha":1140,"x_min":50,"x_max":1080,"o":"m 946 75 q 741 4 847 27 q 513 -20 634 -20 q 174 90 297 -20 q 50 389 50 199 q 89 619 50 511 q 204 815 127 726 q 425 977 298 924 q 715 1031 552 1031 q 899 1012 806 1031 q 1080 956 991 993 l 1040 746 q 879 818 958 794 q 720 842 800 842 q 435 725 545 842 q 325 425 325 608 q 389 237 325 304 q 570 170 453 170 q 646 175 608 170 q 722 191 684 180 l 761 387 l 602 387 l 635 562 l 1040 562 l 946 75 z "},"H":{"ha":1162,"x_min":29,"x_max":1133,"o":"m 227 1013 l 488 1013 l 412 627 l 798 627 l 872 1013 l 1133 1013 l 936 0 l 675 0 l 758 429 l 374 429 l 290 0 l 29 0 l 227 1013 z "},"I":{"ha":517,"x_min":29,"x_max":488,"o":"m 227 1013 l 488 1013 l 290 0 l 29 0 l 227 1013 z "},"J":{"ha":517,"x_min":-231,"x_max":488,"o":"m 227 1013 l 488 1013 l 310 98 q 156 -189 271 -100 q -178 -278 41 -278 l -231 -278 l -192 -81 l -151 -81 q -19 -35 -71 -81 q 49 98 32 11 l 227 1013 z "},"K":{"ha":1076,"x_min":29,"x_max":1162,"o":"m 227 1013 l 488 1013 l 416 648 l 847 1013 l 1162 1013 l 582 521 l 1019 0 l 713 0 l 372 422 l 290 0 l 29 0 l 227 1013 z "},"L":{"ha":885,"x_min":29,"x_max":786,"o":"m 227 1013 l 488 1013 l 329 197 l 786 197 l 749 0 l 29 0 l 227 1013 z "},"M":{"ha":1382,"x_min":29,"x_max":1353,"o":"m 227 1013 l 547 1013 l 677 475 l 1019 1013 l 1353 1013 l 1156 0 l 908 0 l 1053 747 l 701 195 l 561 195 l 421 747 l 277 0 l 29 0 l 227 1013 z "},"N":{"ha":1162,"x_min":29,"x_max":1133,"o":"m 227 1013 l 518 1013 l 750 311 l 886 1013 l 1133 1013 l 936 0 l 644 0 l 412 701 l 277 0 l 29 0 l 227 1013 z "},"O":{"ha":1181,"x_min":50,"x_max":1131,"o":"m 854 597 q 801 779 854 717 q 644 842 747 842 q 417 720 509 842 q 325 415 325 598 q 378 234 325 298 q 528 170 432 170 q 666 202 606 170 q 770 300 727 235 q 832 439 810 361 q 854 597 854 516 m 682 1031 q 1007 919 884 1031 q 1131 625 1131 806 q 1093 392 1131 502 q 983 195 1055 282 q 775 34 895 87 q 497 -20 654 -20 q 173 92 296 -20 q 50 386 50 204 q 87 620 50 510 q 197 818 125 730 q 405 978 284 925 q 682 1031 525 1031 z "},"P":{"ha":1018,"x_min":29,"x_max":999,"o":"m 227 1013 l 660 1013 q 909 940 819 1013 q 999 737 999 867 q 969 586 999 658 q 884 461 939 515 q 740 377 823 404 q 530 351 656 351 l 358 351 l 290 0 l 29 0 l 227 1013 m 452 823 l 396 541 l 541 541 q 682 584 633 541 q 730 710 730 627 q 695 794 730 765 q 595 823 661 823 l 452 823 z "},"Q":{"ha":1181,"x_min":50,"x_max":1131,"o":"m 515 -18 q 500 -19 508 -19 q 476 -20 493 -20 q 332 1 399 -20 q 208 64 264 22 q 92 204 134 119 q 50 386 50 289 q 88 620 50 510 q 197 818 125 730 q 405 978 285 926 q 682 1031 524 1031 q 1007 919 884 1031 q 1131 625 1131 806 q 1027 252 1131 412 q 739 18 924 92 l 895 -203 l 646 -203 l 515 -18 m 854 597 q 801 779 854 717 q 644 842 747 842 q 417 720 509 842 q 325 415 325 598 q 378 234 325 298 q 528 170 432 170 q 666 202 606 170 q 770 300 727 235 q 832 439 810 361 q 854 597 854 516 z "},"R":{"ha":1069,"x_min":29,"x_max":951,"o":"m 510 564 q 645 605 599 564 q 690 726 690 646 q 659 800 690 777 q 559 823 627 823 l 452 823 l 400 564 l 510 564 m 366 383 l 290 0 l 29 0 l 227 1013 l 612 1013 q 865 950 779 1013 q 951 766 951 888 q 884 564 951 644 q 700 473 816 485 q 788 419 753 463 q 850 288 823 376 l 936 0 l 676 0 l 600 252 q 544 355 577 327 q 449 383 511 383 l 366 383 z "},"S":{"ha":1000,"x_min":21,"x_max":924,"o":"m 924 981 l 882 766 q 730 823 805 804 q 585 842 656 842 q 432 811 487 842 q 378 726 378 781 q 402 672 378 692 q 501 635 426 653 l 608 608 q 805 510 743 574 q 868 345 868 446 q 743 80 868 180 q 407 -20 618 -20 q 211 -1 309 -20 q 21 53 114 17 l 62 273 q 238 195 153 221 q 406 170 323 170 q 551 206 495 170 q 607 300 607 243 q 582 358 607 337 q 472 400 557 378 l 366 427 q 190 519 248 456 q 132 682 132 582 q 253 936 132 840 q 579 1031 374 1031 q 748 1018 661 1031 q 924 981 834 1006 z "},"T":{"ha":947,"x_min":66,"x_max":1039,"o":"m 106 1013 l 1039 1013 l 1000 815 l 664 815 l 505 0 l 244 0 l 403 815 l 66 815 l 106 1013 z "},"U":{"ha":1128,"x_min":94,"x_max":1099,"o":"m 227 1013 l 488 1013 l 370 406 q 360 349 363 374 q 357 304 357 323 q 392 205 357 238 q 498 172 428 172 q 644 225 593 172 q 720 406 695 279 l 838 1013 l 1099 1013 l 981 406 q 813 81 937 182 q 461 -20 690 -20 q 188 57 281 -20 q 94 281 94 134 q 98 335 94 305 q 109 406 101 366 l 227 1013 z "},"V":{"ha":1075,"x_min":106,"x_max":1166,"o":"m 106 1013 l 354 1013 l 478 256 l 897 1013 l 1166 1013 l 595 0 l 283 0 l 106 1013 z "},"W":{"ha":1532,"x_min":149,"x_max":1588,"o":"m 149 1013 l 390 1013 l 421 277 l 739 1013 l 987 1013 l 1021 277 l 1328 1013 l 1588 1013 l 1152 0 l 856 0 l 822 770 l 494 0 l 192 0 l 149 1013 z "},"X":{"ha":1071,"x_min":-71,"x_max":1128,"o":"m 689 513 l 937 0 l 672 0 l 507 339 l 211 0 l -71 0 l 385 519 l 144 1013 l 411 1013 l 567 694 l 844 1013 l 1128 1013 l 689 513 z "},"Y":{"ha":1006,"x_min":87,"x_max":1124,"o":"m 87 1013 l 349 1013 l 521 637 l 822 1013 l 1124 1013 l 624 422 l 542 0 l 281 0 l 363 422 l 87 1013 z "},"Z":{"ha":1007,"x_min":-36,"x_max":1028,"o":"m 176 1013 l 1028 1013 l 996 851 l 339 197 l 885 197 l 846 0 l -36 0 l -5 161 l 653 815 l 138 815 l 176 1013 z "},"[":{"ha":635,"x_min":-14,"x_max":647,"o":"m 227 1055 l 647 1055 l 616 903 l 428 903 l 245 -31 l 436 -31 l 406 -183 l -14 -183 l 227 1055 z "},"\\":{"ha":507,"x_min":98,"x_max":383,"o":"m 233 -129 l 98 1013 l 249 1013 l 383 -129 l 233 -129 z "},"]":{"ha":635,"x_min":-39,"x_max":623,"o":"m 382 -183 l -39 -183 l -9 -31 l 180 -31 l 363 903 l 172 903 l 201 1055 l 623 1055 l 382 -183 z "},"^":{"ha":1164,"x_min":140,"x_max":1023,"o":"m 665 1013 l 1023 635 l 860 635 l 582 839 l 304 635 l 140 635 l 498 1013 l 665 1013 z "},"_":{"ha":694,"x_min":-14,"x_max":708,"o":"m 708 -199 l 708 -328 l -14 -328 l -14 -199 l 708 -199 z "},"`":{"ha":694,"x_min":182,"x_max":515,"o":"m 374 1111 l 515 856 l 382 856 l 182 1111 l 374 1111 z "},"a":{"ha":937,"x_min":24,"x_max":848,"o":"m 457 342 q 320 314 366 342 q 273 231 273 286 q 301 165 273 189 q 376 142 328 142 q 501 187 451 142 q 568 314 551 232 l 574 342 l 457 342 m 836 433 l 751 0 l 509 0 l 529 113 q 403 13 469 45 q 258 -20 336 -20 q 87 36 151 -20 q 24 187 24 92 q 136 409 24 332 q 460 486 248 486 l 603 486 l 606 505 q 608 519 608 515 q 608 526 608 523 q 566 594 608 571 q 440 616 524 616 q 294 601 365 616 q 158 554 224 585 l 195 739 q 350 768 271 758 q 515 778 430 778 q 766 720 684 778 q 848 543 848 662 q 845 493 848 520 q 836 433 842 465 z "},"b":{"ha":994,"x_min":43,"x_max":940,"o":"m 564 602 q 411 515 470 602 q 351 290 351 429 q 385 192 351 228 q 478 157 418 157 q 629 242 570 157 q 689 460 689 327 q 657 565 689 529 q 564 602 625 602 m 309 110 l 286 0 l 43 0 l 248 1055 l 492 1055 l 412 648 q 529 746 468 715 q 663 778 590 778 q 865 696 791 778 q 940 475 940 615 q 914 304 940 387 q 839 154 888 222 q 700 24 777 68 q 533 -20 622 -20 q 400 12 455 -20 q 309 110 346 43 z "},"c":{"ha":823,"x_min":52,"x_max":807,"o":"m 807 736 l 768 538 q 672 587 720 570 q 579 604 625 604 q 385 525 460 604 q 310 321 310 445 q 357 198 310 241 q 489 154 404 154 q 601 171 546 154 q 705 221 656 188 l 668 22 q 547 -9 608 1 q 424 -20 486 -20 q 148 61 245 -20 q 52 289 52 141 q 87 469 52 382 q 189 627 123 557 q 359 741 263 703 q 579 778 454 778 q 694 767 637 778 q 807 736 751 757 z "},"d":{"ha":994,"x_min":50,"x_max":1006,"o":"m 427 157 q 579 243 520 157 q 637 468 637 329 q 605 566 637 531 q 513 602 572 602 q 361 516 420 602 q 301 298 301 431 q 333 193 301 229 q 427 157 366 157 m 682 648 l 761 1055 l 1006 1055 l 800 0 l 555 0 l 578 110 q 461 12 522 43 q 328 -20 400 -20 q 125 62 199 -20 q 50 283 50 143 q 76 454 50 371 q 151 604 102 536 q 291 734 213 690 q 457 778 368 778 q 590 746 535 778 q 682 648 644 715 z "},"e":{"ha":942,"x_min":50,"x_max":889,"o":"m 873 351 l 865 313 l 297 313 q 296 301 297 309 q 296 289 296 293 q 340 178 296 215 q 473 142 385 142 q 635 165 550 142 q 814 233 720 188 l 777 45 q 600 -4 688 12 q 421 -20 512 -20 q 147 62 243 -20 q 50 294 50 144 q 81 463 50 381 q 171 612 112 545 q 338 736 241 694 q 554 778 435 778 q 799 696 708 778 q 889 475 889 614 q 885 417 889 448 q 873 351 882 387 m 644 463 q 647 480 646 471 q 648 498 648 490 q 616 585 648 553 q 528 616 583 616 q 407 577 456 616 q 330 463 357 538 l 644 463 z "},"f":{"ha":604,"x_min":69,"x_max":750,"o":"m 750 1055 l 718 896 l 585 896 q 510 877 534 896 q 478 813 487 859 l 467 760 l 672 760 l 639 586 l 433 586 l 319 0 l 75 0 l 189 586 l 69 586 l 103 760 l 222 760 l 233 812 q 338 997 258 939 q 564 1055 417 1055 l 750 1055 z "},"g":{"ha":994,"x_min":28,"x_max":947,"o":"m 581 129 q 462 31 522 62 q 330 0 401 0 q 126 83 201 0 q 52 310 52 166 q 78 464 52 387 q 153 608 104 541 q 290 733 212 690 q 456 777 367 777 q 590 745 536 777 q 682 647 645 714 l 703 760 l 947 760 l 819 100 q 651 -202 780 -104 q 293 -300 522 -300 q 157 -289 222 -300 q 28 -256 92 -278 l 64 -66 q 179 -121 121 -103 q 297 -139 237 -139 q 483 -87 418 -139 q 570 77 547 -36 l 581 129 m 513 602 q 364 521 423 602 q 304 318 304 440 q 336 213 304 249 q 429 176 368 176 q 578 257 518 176 q 637 457 637 337 q 606 565 637 528 q 513 602 574 602 z "},"h":{"ha":989,"x_min":43,"x_max":908,"o":"m 896 463 l 806 0 l 562 0 l 639 396 q 651 461 647 435 q 656 504 656 488 q 632 571 656 547 q 564 595 608 595 q 434 536 488 595 q 359 374 380 477 l 286 0 l 43 0 l 248 1055 l 492 1055 l 412 648 q 547 746 479 714 q 689 778 615 778 q 851 723 794 778 q 908 568 908 668 q 905 520 908 547 q 896 463 902 494 z "},"i":{"ha":476,"x_min":43,"x_max":492,"o":"m 191 760 l 435 760 l 286 0 l 43 0 l 191 760 m 248 1055 l 492 1055 l 453 857 l 208 857 l 248 1055 z "},"j":{"ha":476,"x_min":-178,"x_max":492,"o":"m 191 760 l 435 760 l 289 14 q 173 -223 258 -146 q -57 -300 87 -300 l -178 -300 l -147 -140 l -104 -140 q -4 -110 -36 -140 q 45 14 27 -79 l 191 760 m 248 1055 l 492 1055 l 453 857 l 208 857 l 248 1055 z "},"k":{"ha":924,"x_min":43,"x_max":994,"o":"m 248 1055 l 492 1055 l 380 484 l 708 760 l 994 760 l 553 408 l 873 0 l 596 0 l 350 328 l 286 0 l 43 0 l 248 1055 z "},"l":{"ha":476,"x_min":43,"x_max":492,"o":"m 248 1055 l 492 1055 l 286 0 l 43 0 l 248 1055 z "},"m":{"ha":1447,"x_min":43,"x_max":1367,"o":"m 871 633 q 999 741 927 703 q 1147 778 1070 778 q 1308 722 1249 778 q 1367 568 1367 666 q 1363 522 1367 548 q 1354 463 1360 496 l 1264 0 l 1019 0 l 1096 396 l 1098 406 q 1116 514 1116 490 q 1094 573 1116 551 q 1036 595 1073 595 q 918 537 966 595 q 848 374 869 480 l 775 0 l 530 0 l 608 396 q 623 473 618 447 q 627 514 627 499 q 606 573 627 552 q 547 595 585 595 q 430 535 480 595 q 359 374 379 476 l 286 0 l 43 0 l 191 760 l 435 760 l 412 648 q 534 745 469 713 q 668 778 598 778 q 803 738 747 778 q 871 633 859 697 z "},"n":{"ha":989,"x_min":43,"x_max":908,"o":"m 896 463 l 806 0 l 562 0 l 639 396 q 651 461 647 435 q 656 504 656 488 q 632 571 656 547 q 564 595 608 595 q 434 536 488 595 q 359 374 380 477 l 286 0 l 43 0 l 191 760 l 435 760 l 412 648 q 547 746 479 714 q 689 778 615 778 q 851 723 794 778 q 908 568 908 668 q 905 520 908 547 q 896 463 902 494 z "},"o":{"ha":954,"x_min":50,"x_max":904,"o":"m 521 604 q 366 519 427 604 q 304 301 304 433 q 337 192 304 229 q 433 154 370 154 q 589 240 528 154 q 650 458 650 326 q 617 567 650 530 q 521 604 584 604 m 541 778 q 807 692 710 778 q 904 457 904 606 q 873 290 904 371 q 785 142 843 209 q 621 21 715 62 q 411 -20 527 -20 q 147 66 243 -20 q 50 301 50 153 q 81 468 50 387 q 171 618 113 550 q 333 737 239 696 q 541 778 427 778 z "},"p":{"ha":994,"x_min":-14,"x_max":940,"o":"m 309 110 l 231 -289 l -14 -289 l 191 760 l 435 760 l 412 648 q 529 746 468 715 q 663 778 590 778 q 865 696 791 778 q 940 475 940 615 q 914 304 940 387 q 839 154 888 222 q 700 24 777 68 q 533 -20 622 -20 q 400 12 455 -20 q 309 110 346 43 m 564 602 q 411 515 470 602 q 351 290 351 429 q 385 192 351 228 q 478 157 418 157 q 629 242 570 157 q 689 460 689 327 q 657 565 689 529 q 564 602 625 602 z "},"q":{"ha":994,"x_min":50,"x_max":947,"o":"m 682 648 l 703 760 l 947 760 l 743 -289 l 498 -289 l 576 110 q 461 12 522 43 q 328 -20 400 -20 q 125 62 199 -20 q 50 283 50 143 q 76 454 50 371 q 151 604 102 536 q 291 734 213 690 q 457 778 368 778 q 590 746 535 778 q 682 648 644 715 m 427 157 q 579 243 520 157 q 637 468 637 329 q 605 566 637 531 q 513 602 572 602 q 361 516 420 602 q 301 298 301 431 q 333 193 301 229 q 427 157 366 157 z "},"r":{"ha":685,"x_min":43,"x_max":757,"o":"m 714 553 q 659 574 689 567 q 593 582 628 582 q 438 522 500 582 q 355 350 377 463 l 286 0 l 43 0 l 191 760 l 435 760 l 408 629 q 529 740 456 701 q 689 778 601 778 q 718 777 702 778 q 757 772 734 775 l 714 553 z "},"s":{"ha":827,"x_min":14,"x_max":778,"o":"m 778 736 l 742 547 q 600 599 671 581 q 467 616 530 616 q 356 598 395 616 q 317 545 317 579 q 338 512 317 524 q 424 486 360 500 l 468 478 q 674 398 615 447 q 733 261 733 349 q 629 55 733 129 q 339 -20 526 -20 q 180 -7 261 -20 q 14 29 98 5 l 50 220 q 191 161 116 181 q 345 142 266 142 q 460 160 421 142 q 498 214 498 178 q 477 252 498 238 q 387 279 455 265 l 343 288 q 157 368 213 315 q 102 514 102 420 q 198 709 102 641 q 472 778 294 778 q 626 767 550 778 q 778 736 701 757 z "},"t":{"ha":664,"x_min":60,"x_max":707,"o":"m 500 975 l 458 760 l 707 760 l 672 586 l 424 586 l 361 264 q 358 246 359 254 q 357 232 357 239 q 377 187 357 201 q 447 174 398 174 l 572 174 l 538 0 l 334 0 q 166 46 224 0 q 109 179 109 92 q 111 220 109 198 q 117 264 113 241 l 179 586 l 60 586 l 93 760 l 214 760 l 256 975 l 500 975 z "},"u":{"ha":989,"x_min":83,"x_max":946,"o":"m 94 296 l 183 760 l 427 760 l 350 364 q 338 298 342 326 q 334 256 334 271 q 357 189 334 213 q 425 165 381 165 q 555 224 500 165 q 629 386 609 282 l 703 760 l 946 760 l 799 0 l 554 0 l 576 111 q 446 13 514 45 q 301 -20 377 -20 q 140 35 197 -20 q 83 191 83 90 q 86 241 83 214 q 94 296 89 267 z "},"v":{"ha":905,"x_min":87,"x_max":942,"o":"m 87 760 l 311 760 l 410 229 l 696 760 l 942 760 l 496 0 l 239 0 l 87 760 z "},"w":{"ha":1283,"x_min":121,"x_max":1287,"o":"m 121 760 l 345 760 l 371 237 l 600 760 l 793 760 l 821 239 l 1048 760 l 1287 760 l 940 0 l 682 0 l 657 522 l 425 0 l 174 0 l 121 760 z "},"x":{"ha":896,"x_min":-57,"x_max":932,"o":"m 307 389 l 106 760 l 358 760 l 471 534 l 668 760 l 932 760 l 586 390 l 798 0 l 545 0 l 425 240 l 207 0 l -57 0 l 307 389 z "},"y":{"ha":905,"x_min":0,"x_max":954,"o":"m 92 760 l 321 760 l 425 233 l 694 760 l 954 760 l 473 -72 q 324 -256 393 -212 q 147 -300 256 -300 l 0 -300 l 25 -140 l 102 -140 q 194 -120 161 -140 q 253 -50 227 -100 l 275 -9 l 92 760 z "},"z":{"ha":808,"x_min":-12,"x_max":814,"o":"m 151 760 l 814 760 l 781 590 l 307 174 l 700 174 l 667 0 l -12 0 l 20 170 l 494 586 l 118 586 l 151 760 z "},"{":{"ha":989,"x_min":147,"x_max":929,"o":"m 710 -74 l 681 -227 l 533 -227 q 350 -185 412 -227 q 289 -60 289 -143 q 291 -24 289 -45 q 298 23 294 -4 l 323 154 q 330 193 328 174 q 332 227 332 212 q 301 311 332 286 q 191 335 270 335 l 147 335 l 178 486 l 220 486 q 360 526 315 486 q 424 667 404 565 l 450 806 q 554 996 475 937 q 782 1055 633 1055 l 929 1055 l 900 903 l 852 903 q 723 873 758 903 q 669 747 688 844 l 647 635 q 587 480 627 529 q 469 415 547 432 q 549 370 524 401 q 574 288 574 340 q 571 244 574 267 q 562 195 568 222 l 541 82 q 532 35 534 51 q 530 7 530 18 q 558 -56 530 -39 q 664 -74 585 -74 l 710 -74 z "},"|":{"ha":507,"x_min":176,"x_max":330,"o":"m 330 1061 l 330 -328 l 176 -328 l 176 1061 l 330 1061 z "},"}":{"ha":989,"x_min":61,"x_max":842,"o":"m 90 -74 l 138 -74 q 268 -44 233 -74 q 321 82 302 -14 l 343 195 q 404 349 363 300 q 522 415 444 397 q 442 458 468 428 q 416 542 416 489 q 419 581 416 558 q 428 635 422 604 l 450 747 q 458 793 456 776 q 460 822 460 810 q 432 885 460 868 q 326 903 405 903 l 281 903 l 310 1055 l 458 1055 q 641 1014 580 1055 q 701 889 701 972 q 699 849 701 870 q 692 806 696 829 l 665 667 q 659 628 661 646 q 657 595 657 610 q 689 511 657 535 q 799 486 720 486 l 842 486 l 811 335 l 770 335 q 630 295 674 335 q 566 154 585 256 l 541 24 q 436 -167 515 -107 q 208 -227 357 -227 l 61 -227 l 90 -74 z "},"~":{"ha":1164,"x_min":147,"x_max":1017,"o":"m 1017 576 l 1017 411 q 884 333 945 357 q 758 310 823 310 q 589 349 686 310 q 574 355 579 353 q 559 361 569 357 q 390 403 454 403 q 272 377 330 403 q 147 294 214 351 l 147 460 q 280 537 220 514 q 406 561 340 561 q 575 522 478 561 q 590 515 585 517 q 605 509 595 513 q 774 468 710 468 q 889 493 832 468 q 1017 576 947 519 z "}," ":{"ha":484,"x_min":0,"x_max":0,"o":""},"¡":{"ha":633,"x_min":96,"x_max":538,"o":"m 490 518 l 245 518 l 293 760 l 538 760 l 490 518 m 340 -253 l 96 -253 l 172 136 l 261 419 l 436 419 l 416 136 l 340 -253 z "},"¢":{"ha":966,"x_min":93,"x_max":847,"o":"m 503 581 q 392 478 433 549 q 350 321 350 408 q 369 234 350 271 q 424 179 389 197 l 503 581 m 847 736 l 808 538 q 712 588 758 572 q 623 604 666 604 l 616 604 l 530 154 q 644 172 590 155 q 746 221 698 189 l 708 22 q 606 -5 659 5 q 496 -18 553 -15 l 458 -212 l 349 -212 l 386 -16 q 171 78 250 -1 q 93 281 93 157 q 216 614 93 478 q 541 774 340 751 l 578 971 l 688 971 l 650 777 q 746 765 696 775 q 847 736 795 755 z "},"£":{"ha":966,"x_min":9,"x_max":960,"o":"m 960 994 l 922 800 q 835 839 882 825 q 739 852 787 852 q 607 811 654 852 q 542 679 559 769 l 519 564 l 772 564 l 742 401 l 488 401 l 444 180 l 811 180 l 777 0 l 9 0 l 45 180 l 197 180 l 240 401 l 110 401 l 140 564 l 272 564 l 294 679 q 432 946 330 862 q 721 1031 534 1031 q 843 1022 783 1031 q 960 994 903 1013 z "},"¤":{"ha":884,"x_min":50,"x_max":835,"o":"m 294 182 l 154 41 l 50 146 l 191 286 q 162 356 172 319 q 153 435 153 392 q 163 514 153 477 q 193 582 173 551 l 52 721 l 155 825 l 296 685 q 365 715 328 705 q 443 725 401 725 q 516 716 479 725 q 591 688 553 707 l 732 828 l 835 724 l 694 583 q 724 509 714 546 q 733 435 733 471 q 723 356 733 392 q 693 289 713 321 l 833 149 l 729 45 l 589 184 q 522 154 557 164 q 443 144 486 144 q 367 154 404 144 q 294 182 330 163 m 443 286 q 548 329 505 286 q 591 435 591 372 q 548 540 591 497 q 443 583 505 583 q 338 540 381 583 q 294 435 294 497 q 337 329 294 372 q 443 286 380 286 z "},"¥":{"ha":966,"x_min":8,"x_max":1048,"o":"m 878 282 l 570 282 l 514 0 l 256 0 l 311 282 l 8 282 l 35 414 l 336 414 l 346 465 l 326 517 l 54 517 l 79 647 l 277 647 l 131 1013 l 380 1013 l 513 673 l 774 1013 l 1048 1013 l 750 647 l 949 647 l 924 517 l 647 517 l 607 465 l 595 414 l 903 414 l 878 282 z "},"¦":{"ha":507,"x_min":176,"x_max":330,"o":"m 330 971 l 330 457 l 176 457 l 176 971 l 330 971 m 330 277 l 330 -237 l 176 -237 l 176 277 l 330 277 z "},"§":{"ha":694,"x_min":-46,"x_max":686,"o":"m 686 991 l 657 838 q 547 878 596 865 q 457 890 498 890 q 371 870 403 890 q 339 815 339 849 q 356 778 339 795 q 411 743 372 761 l 472 715 q 634 611 591 663 q 677 485 677 560 q 625 337 677 401 q 473 233 573 273 q 530 179 512 209 q 549 113 549 149 q 453 -65 549 3 q 197 -132 357 -132 q 79 -122 140 -132 q -46 -93 18 -113 l -14 68 q 110 24 56 39 q 205 9 164 9 q 291 31 258 9 q 323 85 323 52 q 307 122 323 106 q 237 163 291 138 l 146 204 q 27 291 65 241 q -11 410 -11 340 q 39 558 -11 493 q 184 663 89 623 q 132 722 149 690 q 115 789 115 753 q 209 963 115 895 q 453 1031 303 1031 q 568 1021 509 1031 q 686 991 626 1011 m 301 579 q 218 535 247 565 q 189 463 189 505 q 222 392 189 421 q 366 319 255 363 q 450 369 420 338 q 479 437 479 399 q 441 510 479 479 q 301 579 402 542 z "},"¨":{"ha":694,"x_min":211,"x_max":672,"o":"m 243 1075 l 404 1075 l 371 908 l 211 908 l 243 1075 m 513 1075 l 672 1075 l 639 908 l 479 908 l 513 1075 z "},"©":{"ha":1389,"x_min":192,"x_max":1197,"o":"m 897 764 l 897 618 q 821 655 859 643 q 745 667 783 667 q 625 623 668 667 q 582 503 582 580 q 625 382 582 425 q 745 339 667 339 q 827 351 788 339 q 897 387 866 363 l 897 243 q 809 220 853 228 q 722 212 764 212 q 493 292 579 212 q 407 503 407 371 q 493 714 407 635 q 722 793 579 793 q 812 786 769 793 q 897 764 856 779 m 694 903 q 542 873 612 903 q 412 785 471 844 q 324 655 353 726 q 294 503 294 585 q 324 350 294 420 q 412 221 353 280 q 542 134 471 163 q 694 104 612 104 q 848 133 778 104 q 977 221 918 162 q 1065 350 1036 280 q 1095 503 1095 420 q 1065 655 1095 585 q 977 785 1036 726 q 847 873 917 844 q 694 903 777 903 m 694 1007 q 887 970 798 1007 q 1050 859 976 932 q 1160 696 1124 785 q 1197 503 1197 607 q 1160 311 1197 399 q 1050 149 1124 222 q 887 37 976 75 q 694 0 798 0 q 502 37 591 0 q 339 149 413 75 q 229 311 265 222 q 192 503 192 399 q 229 696 192 607 q 339 859 265 785 q 502 970 413 932 q 694 1007 591 1007 z "},"ª":{"ha":783,"x_min":60,"x_max":732,"o":"m 86 389 l 639 389 l 612 253 l 60 253 l 86 389 m 469 733 q 331 714 369 733 q 293 647 293 694 q 314 600 293 617 q 371 582 335 582 q 472 620 428 582 q 528 718 516 659 l 530 733 l 469 733 m 725 790 l 667 486 l 498 486 l 515 571 q 419 496 471 519 q 300 472 368 472 q 168 510 215 472 q 121 615 121 547 q 204 773 121 720 q 453 827 288 827 l 549 827 l 551 840 q 552 846 552 843 q 553 857 553 850 q 527 903 553 887 q 449 918 500 918 q 330 906 389 918 q 214 871 271 895 l 237 993 q 363 1021 304 1012 q 473 1031 422 1031 q 666 987 600 1031 q 732 861 732 944 q 730 823 732 840 q 725 790 728 806 z "},"«":{"ha":903,"x_min":85,"x_max":825,"o":"m 825 721 l 791 550 l 557 395 l 732 244 l 703 93 l 416 343 l 441 469 l 825 721 m 493 721 l 460 550 l 225 395 l 400 244 l 371 93 l 85 343 l 110 469 l 493 721 z "},"¬":{"ha":1164,"x_min":147,"x_max":1017,"o":"m 147 616 l 1017 616 l 1017 195 l 857 195 l 857 456 l 147 456 l 147 616 z "},"­":{"ha":576,"x_min":35,"x_max":500,"o":"m 74 498 l 500 498 l 461 301 l 35 301 l 74 498 z "},"®":{"ha":1389,"x_min":192,"x_max":1197,"o":"m 694 903 q 542 873 612 903 q 412 785 471 844 q 324 655 353 726 q 294 503 294 585 q 324 350 294 420 q 412 221 353 280 q 542 134 471 163 q 694 104 612 104 q 848 133 778 104 q 977 221 918 162 q 1065 350 1036 280 q 1095 503 1095 420 q 1065 655 1095 585 q 977 785 1036 726 q 847 873 917 844 q 694 903 777 903 m 656 703 l 632 703 l 632 562 l 656 562 q 735 580 709 562 q 762 633 762 598 q 736 686 762 669 q 656 703 710 703 m 681 796 q 859 756 800 796 q 918 633 918 715 q 883 537 918 575 q 782 488 847 499 q 834 446 810 473 q 878 379 858 418 l 953 229 l 798 229 l 725 374 q 680 449 699 427 q 640 471 660 471 l 632 471 l 632 229 l 488 229 l 488 796 l 681 796 m 694 1007 q 887 970 798 1007 q 1050 859 976 932 q 1160 696 1124 785 q 1197 503 1197 607 q 1160 311 1197 399 q 1050 149 1124 222 q 887 37 976 75 q 694 0 798 0 q 502 37 591 0 q 339 149 413 75 q 229 311 265 222 q 192 503 192 399 q 229 696 192 607 q 339 859 265 785 q 502 970 413 932 q 694 1007 591 1007 z "},"¯":{"ha":694,"x_min":215,"x_max":668,"o":"m 240 1055 l 668 1055 l 643 928 l 215 928 l 240 1055 z "},"°":{"ha":694,"x_min":121,"x_max":572,"o":"m 347 930 q 264 897 298 930 q 231 814 231 863 q 264 732 231 765 q 347 699 298 699 q 430 732 396 699 q 464 814 464 766 q 430 897 464 863 q 347 930 395 930 m 347 1040 q 433 1023 392 1040 q 507 974 475 1006 q 556 901 539 941 q 572 814 572 860 q 556 727 572 768 q 509 656 539 686 q 434 606 476 623 q 346 589 392 589 q 185 653 250 589 q 121 814 121 718 q 186 975 121 909 q 347 1040 252 1040 z "},"±":{"ha":1164,"x_min":147,"x_max":1017,"o":"m 663 871 l 663 631 l 1017 631 l 1017 471 l 663 471 l 663 231 l 501 231 l 501 471 l 147 471 l 147 631 l 501 631 l 501 871 l 663 871 m 147 161 l 1017 161 l 1017 0 l 147 0 l 147 161 z "},"²":{"ha":608,"x_min":62,"x_max":599,"o":"m 288 567 l 543 567 l 521 453 l 62 453 l 83 557 l 332 737 q 412 810 386 777 q 439 872 439 844 q 417 915 439 899 q 355 930 395 930 q 259 915 309 930 q 161 869 210 899 l 186 996 q 293 1022 242 1013 q 390 1031 343 1031 q 545 994 491 1031 q 599 889 599 957 q 562 785 599 836 q 444 677 526 734 l 288 567 z "},"³":{"ha":608,"x_min":56,"x_max":593,"o":"m 452 760 q 529 719 503 751 q 555 636 555 688 q 476 493 555 543 q 250 443 397 443 q 147 451 196 443 q 56 475 98 459 l 78 591 q 158 554 117 567 q 239 542 198 542 q 354 568 313 542 q 396 639 396 593 q 362 693 396 675 q 258 710 329 710 l 207 710 l 225 803 l 283 803 q 394 823 355 803 q 432 879 432 842 q 406 918 432 905 q 330 930 380 930 q 251 922 294 930 q 155 895 208 913 l 176 1007 q 275 1025 225 1019 q 375 1031 326 1031 q 536 997 480 1031 q 593 900 593 963 q 554 807 593 845 q 452 760 516 769 z "},"´":{"ha":694,"x_min":315,"x_max":749,"o":"m 550 1111 l 749 1111 l 452 856 l 315 856 l 550 1111 z "},"µ":{"ha":1022,"x_min":-37,"x_max":930,"o":"m -37 -290 l 167 760 l 411 760 l 325 318 q 321 290 322 304 q 319 265 319 277 q 349 189 319 216 q 433 163 378 163 q 543 201 503 163 q 600 318 584 239 l 686 760 l 930 760 l 832 252 q 828 225 829 237 q 827 204 827 214 q 836 175 827 184 q 864 165 845 165 q 889 169 876 165 q 916 180 902 173 l 882 11 q 810 -12 843 -5 q 746 -20 777 -20 q 653 6 686 -20 q 606 87 619 32 q 512 7 564 34 q 401 -20 461 -20 q 320 -4 351 -20 q 273 45 288 12 l 208 -290 l -37 -290 z "},"¶":{"ha":884,"x_min":103,"x_max":838,"o":"m 485 1013 l 838 1013 l 615 -134 l 486 -134 l 689 913 l 561 913 l 357 -134 l 229 -134 l 340 440 q 165 516 227 454 q 103 679 103 578 q 209 919 103 825 q 485 1013 315 1013 z "},"·":{"ha":528,"x_min":117,"x_max":412,"o":"m 168 614 l 412 614 l 361 351 l 117 351 l 168 614 z "},"¸":{"ha":694,"x_min":31,"x_max":359,"o":"m 311 0 q 348 -65 336 -35 q 359 -123 359 -95 q 308 -233 359 -194 q 164 -272 257 -272 q 98 -268 131 -272 q 31 -254 65 -263 l 50 -149 q 105 -166 77 -160 q 158 -172 132 -172 q 229 -153 203 -172 q 254 -102 254 -134 q 245 -61 254 -84 q 215 0 236 -37 l 311 0 z "},"¹":{"ha":608,"x_min":93,"x_max":549,"o":"m 114 559 l 253 559 l 322 913 l 164 878 l 184 986 l 350 1019 l 498 1019 l 408 559 l 549 559 l 528 453 l 93 453 l 114 559 z "},"º":{"ha":783,"x_min":64,"x_max":757,"o":"m 488 1031 q 684 969 612 1031 q 757 804 757 908 q 657 565 757 656 q 392 473 557 473 q 195 535 269 473 q 121 700 121 597 q 222 939 121 847 q 488 1031 323 1031 m 90 389 l 648 389 l 623 253 l 64 253 l 90 389 m 471 916 q 359 853 404 916 q 315 694 315 790 q 339 616 315 643 q 408 589 363 589 q 519 651 475 589 q 564 810 564 713 q 539 888 564 861 q 471 916 515 916 z "},"»":{"ha":903,"x_min":79,"x_max":818,"o":"m 79 92 l 113 264 l 346 419 l 172 570 l 201 721 l 486 469 l 463 343 l 79 92 m 411 92 l 444 264 l 677 419 l 503 570 l 533 721 l 818 469 l 794 343 l 411 92 z "},"¼":{"ha":1438,"x_min":77,"x_max":1316,"o":"m 98 559 l 237 559 l 307 913 l 149 878 l 169 986 l 334 1019 l 483 1019 l 393 559 l 533 559 l 512 453 l 77 453 l 98 559 m 403 -20 l 237 -20 l 1074 1031 l 1240 1031 l 403 -20 m 1109 434 l 905 215 l 1067 215 l 1109 434 m 1123 566 l 1291 566 l 1223 215 l 1316 215 l 1295 110 l 1202 110 l 1181 0 l 1025 0 l 1046 110 l 781 110 l 804 224 l 1123 566 z "},"½":{"ha":1438,"x_min":77,"x_max":1439,"o":"m 98 559 l 237 559 l 307 913 l 149 878 l 169 986 l 334 1019 l 483 1019 l 393 559 l 533 559 l 512 453 l 77 453 l 98 559 m 1128 114 l 1383 114 l 1361 0 l 903 0 l 924 104 l 1172 284 q 1253 357 1226 323 q 1279 419 1279 391 q 1257 462 1279 446 q 1196 477 1235 477 q 1100 462 1149 477 q 1002 416 1050 446 l 1026 543 q 1133 569 1082 560 q 1230 578 1183 578 q 1385 541 1331 578 q 1439 436 1439 504 q 1402 332 1439 382 q 1284 224 1366 281 l 1128 114 m 403 -20 l 237 -20 l 1074 1031 l 1240 1031 l 403 -20 z "},"¾":{"ha":1438,"x_min":65,"x_max":1316,"o":"m 461 760 q 538 719 512 751 q 565 636 565 688 q 486 493 565 543 q 260 443 406 443 q 156 451 205 443 q 65 475 107 459 l 87 591 q 167 554 127 567 q 248 542 208 542 q 364 568 322 542 q 406 639 406 593 q 372 693 406 675 q 268 710 338 710 l 216 710 l 235 803 l 293 803 q 403 823 365 803 q 441 879 441 842 q 416 918 441 905 q 340 930 390 930 q 260 922 303 930 q 165 895 217 913 l 186 1007 q 285 1025 235 1019 q 385 1031 335 1031 q 546 997 490 1031 q 602 900 602 963 q 564 807 602 845 q 461 760 526 769 m 403 -20 l 237 -20 l 1074 1031 l 1240 1031 l 403 -20 m 1109 434 l 905 215 l 1067 215 l 1109 434 m 1123 566 l 1291 566 l 1223 215 l 1316 215 l 1295 110 l 1202 110 l 1181 0 l 1025 0 l 1046 110 l 781 110 l 804 224 l 1123 566 z "},"¿":{"ha":806,"x_min":52,"x_max":677,"o":"m 367 418 l 611 418 l 604 383 q 565 287 594 329 q 447 176 536 245 l 396 136 q 318 59 342 94 q 294 -13 294 24 q 321 -72 294 -52 q 400 -93 349 -93 q 523 -70 454 -93 q 669 -3 592 -47 l 628 -216 q 470 -258 542 -244 q 334 -271 399 -271 q 126 -213 201 -271 q 52 -54 52 -155 q 87 90 52 26 q 210 223 123 154 l 261 264 q 336 333 317 308 q 361 387 355 359 l 367 418 m 631 518 l 386 518 l 433 760 l 677 760 l 631 518 z "},"À":{"ha":1075,"x_min":-90,"x_max":960,"o":"m 682 184 l 278 184 l 178 0 l -90 0 l 482 1013 l 781 1013 l 960 0 l 711 0 l 682 184 m 376 368 l 648 368 l 587 758 l 376 368 m 637 1288 l 735 1109 l 614 1109 l 458 1288 l 637 1288 z "},"Á":{"ha":1075,"x_min":-90,"x_max":960,"o":"m 682 184 l 278 184 l 178 0 l -90 0 l 482 1013 l 781 1013 l 960 0 l 711 0 l 682 184 m 376 368 l 648 368 l 587 758 l 376 368 m 702 1288 l 892 1288 l 675 1109 l 535 1109 l 702 1288 z "},"Â":{"ha":1075,"x_min":-90,"x_max":960,"o":"m 682 184 l 278 184 l 178 0 l -90 0 l 482 1013 l 781 1013 l 960 0 l 711 0 l 682 184 m 376 368 l 648 368 l 587 758 l 376 368 m 542 1288 l 778 1288 l 881 1109 l 766 1109 l 654 1218 l 498 1109 l 376 1109 l 542 1288 z "},"Ã":{"ha":1075,"x_min":-90,"x_max":960,"o":"m 682 184 l 278 184 l 178 0 l -90 0 l 482 1013 l 781 1013 l 960 0 l 711 0 l 682 184 m 376 368 l 648 368 l 587 758 l 376 368 m 639 1143 l 606 1168 q 578 1186 589 1181 q 555 1190 567 1190 q 513 1168 530 1190 q 488 1109 495 1147 l 395 1109 q 457 1242 412 1196 q 566 1289 501 1289 q 613 1281 591 1289 q 659 1255 635 1273 l 694 1227 q 718 1213 705 1218 q 741 1208 730 1208 q 785 1229 767 1208 q 810 1289 803 1250 l 903 1289 q 841 1156 886 1202 q 734 1109 797 1109 q 686 1116 708 1109 q 639 1143 665 1124 z "},"Ä":{"ha":1075,"x_min":-90,"x_max":960,"o":"m 682 184 l 278 184 l 178 0 l -90 0 l 482 1013 l 781 1013 l 960 0 l 711 0 l 682 184 m 376 368 l 648 368 l 587 758 l 376 368 m 454 1288 l 614 1288 l 583 1121 l 422 1121 l 454 1288 m 722 1288 l 884 1288 l 850 1121 l 690 1121 l 722 1288 z "},"Å":{"ha":1075,"x_min":-90,"x_max":960,"o":"m 539 1096 q 565 1033 539 1059 q 628 1007 591 1007 q 691 1033 665 1007 q 717 1096 717 1059 q 690 1159 717 1133 q 628 1185 664 1185 q 565 1159 591 1185 q 539 1096 539 1133 m 783 987 l 960 0 l 711 0 l 682 184 l 278 184 l 178 0 l -90 0 l 469 989 q 443 1040 452 1014 q 435 1096 435 1066 q 491 1232 435 1175 q 628 1289 548 1289 q 764 1232 707 1289 q 821 1096 821 1175 q 812 1037 821 1063 q 783 987 803 1011 m 376 368 l 648 368 l 587 758 l 376 368 z "},"Æ":{"ha":1507,"x_min":-109,"x_max":1489,"o":"m 668 839 l 414 425 l 669 425 l 750 839 l 668 839 m 525 1013 l 1489 1013 l 1450 815 l 1007 815 l 971 627 l 1388 627 l 1349 429 l 932 429 l 888 197 l 1344 197 l 1307 0 l 587 0 l 633 237 l 300 237 l 153 0 l -109 0 l 525 1013 z "},"Ç":{"ha":1019,"x_min":50,"x_max":1006,"o":"m 842 47 q 662 -3 748 14 q 498 -20 576 -20 q 172 92 294 -20 q 50 389 50 204 q 89 617 50 510 q 203 814 127 725 q 417 975 292 918 q 686 1031 542 1031 q 844 1012 765 1031 q 1006 956 924 994 l 964 746 q 833 819 899 795 q 692 842 767 842 q 429 721 535 842 q 323 419 323 600 q 389 236 323 302 q 568 170 454 170 q 714 194 637 170 q 886 272 791 219 l 842 47 m 587 0 q 623 -65 612 -35 q 635 -123 635 -95 q 584 -233 635 -194 q 439 -272 532 -272 q 373 -268 406 -272 q 306 -254 340 -263 l 326 -149 q 380 -166 353 -160 q 433 -172 408 -172 q 504 -153 478 -172 q 530 -102 530 -134 q 520 -61 530 -84 q 490 0 511 -37 l 587 0 z "},"È":{"ha":949,"x_min":29,"x_max":930,"o":"m 227 1013 l 930 1013 l 892 815 l 449 815 l 412 627 l 829 627 l 790 429 l 374 429 l 329 197 l 786 197 l 749 0 l 29 0 l 227 1013 m 610 1288 l 707 1109 l 587 1109 l 431 1288 l 610 1288 z "},"É":{"ha":949,"x_min":29,"x_max":930,"o":"m 227 1013 l 930 1013 l 892 815 l 449 815 l 412 627 l 829 627 l 790 429 l 374 429 l 329 197 l 786 197 l 749 0 l 29 0 l 227 1013 m 674 1288 l 864 1288 l 648 1109 l 507 1109 l 674 1288 z "},"Ê":{"ha":949,"x_min":29,"x_max":930,"o":"m 227 1013 l 930 1013 l 892 815 l 449 815 l 412 627 l 829 627 l 790 429 l 374 429 l 329 197 l 786 197 l 749 0 l 29 0 l 227 1013 m 514 1288 l 750 1288 l 853 1109 l 738 1109 l 627 1218 l 470 1109 l 349 1109 l 514 1288 z "},"Ë":{"ha":949,"x_min":29,"x_max":930,"o":"m 227 1013 l 930 1013 l 892 815 l 449 815 l 412 627 l 829 627 l 790 429 l 374 429 l 329 197 l 786 197 l 749 0 l 29 0 l 227 1013 m 427 1288 l 587 1288 l 555 1121 l 395 1121 l 427 1288 m 694 1288 l 856 1288 l 823 1121 l 663 1121 l 694 1288 z "},"Ì":{"ha":517,"x_min":29,"x_max":488,"o":"m 227 1013 l 488 1013 l 290 0 l 29 0 l 227 1013 m 368 1288 l 465 1109 l 345 1109 l 189 1288 l 368 1288 z "},"Í":{"ha":517,"x_min":29,"x_max":622,"o":"m 227 1013 l 488 1013 l 290 0 l 29 0 l 227 1013 m 432 1288 l 622 1288 l 406 1109 l 265 1109 l 432 1288 z "},"Î":{"ha":517,"x_min":29,"x_max":611,"o":"m 227 1013 l 488 1013 l 290 0 l 29 0 l 227 1013 m 272 1288 l 508 1288 l 611 1109 l 496 1109 l 385 1218 l 228 1109 l 106 1109 l 272 1288 z "},"Ï":{"ha":517,"x_min":29,"x_max":614,"o":"m 227 1013 l 488 1013 l 290 0 l 29 0 l 227 1013 m 184 1288 l 345 1288 l 313 1121 l 153 1121 l 184 1288 m 452 1288 l 614 1288 l 581 1121 l 420 1121 l 452 1288 z "},"Ð":{"ha":1174,"x_min":-3,"x_max":1116,"o":"m 472 815 l 433 612 l 600 612 l 566 436 l 399 436 l 351 197 l 444 197 q 735 300 628 197 q 842 576 842 403 q 771 755 842 694 q 564 815 701 815 l 472 815 m 249 1013 l 524 1013 q 819 989 720 1013 q 982 911 917 966 q 1082 777 1048 856 q 1116 600 1116 699 q 1058 342 1116 464 q 899 136 1001 220 q 691 31 809 62 q 326 0 572 0 l 52 0 l 136 436 l -3 436 l 32 612 l 171 612 l 249 1013 z "},"Ñ":{"ha":1162,"x_min":29,"x_max":1133,"o":"m 227 1013 l 518 1013 l 750 311 l 886 1013 l 1133 1013 l 936 0 l 644 0 l 412 701 l 277 0 l 29 0 l 227 1013 m 672 1143 l 639 1168 q 611 1186 623 1181 q 588 1190 600 1190 q 546 1168 564 1190 q 521 1109 528 1147 l 428 1109 q 490 1242 446 1196 q 599 1289 534 1289 q 646 1281 624 1289 q 692 1255 668 1273 l 728 1227 q 751 1213 739 1218 q 774 1208 763 1208 q 818 1229 800 1208 q 843 1289 836 1250 l 937 1289 q 874 1156 919 1202 q 767 1109 830 1109 q 720 1116 741 1109 q 672 1143 698 1124 z "},"Ò":{"ha":1181,"x_min":50,"x_max":1131,"o":"m 854 597 q 801 779 854 717 q 644 842 747 842 q 417 720 509 842 q 325 415 325 598 q 378 234 325 298 q 528 170 432 170 q 666 202 606 170 q 770 300 727 235 q 832 439 810 361 q 854 597 854 516 m 682 1031 q 1007 919 884 1031 q 1131 625 1131 806 q 1093 392 1131 502 q 983 195 1055 282 q 775 34 895 87 q 497 -20 654 -20 q 173 92 296 -20 q 50 386 50 204 q 87 620 50 510 q 197 818 125 730 q 405 978 284 925 q 682 1031 525 1031 m 719 1288 l 817 1109 l 696 1109 l 540 1288 l 719 1288 z "},"Ó":{"ha":1181,"x_min":50,"x_max":1131,"o":"m 854 597 q 801 779 854 717 q 644 842 747 842 q 417 720 509 842 q 325 415 325 598 q 378 234 325 298 q 528 170 432 170 q 666 202 606 170 q 770 300 727 235 q 832 439 810 361 q 854 597 854 516 m 682 1031 q 1007 919 884 1031 q 1131 625 1131 806 q 1093 392 1131 502 q 983 195 1055 282 q 775 34 895 87 q 497 -20 654 -20 q 173 92 296 -20 q 50 386 50 204 q 87 620 50 510 q 197 818 125 730 q 405 978 284 925 q 682 1031 525 1031 m 783 1288 l 973 1288 l 757 1109 l 616 1109 l 783 1288 z "},"Ô":{"ha":1181,"x_min":50,"x_max":1131,"o":"m 854 597 q 801 779 854 717 q 644 842 747 842 q 417 720 509 842 q 325 415 325 598 q 378 234 325 298 q 528 170 432 170 q 666 202 606 170 q 770 300 727 235 q 832 439 810 361 q 854 597 854 516 m 682 1031 q 1007 919 884 1031 q 1131 625 1131 806 q 1093 392 1131 502 q 983 195 1055 282 q 775 34 895 87 q 497 -20 654 -20 q 173 92 296 -20 q 50 386 50 204 q 87 620 50 510 q 197 818 125 730 q 405 978 284 925 q 682 1031 525 1031 m 623 1288 l 859 1288 l 962 1109 l 847 1109 l 736 1218 l 579 1109 l 458 1109 l 623 1288 z "},"Õ":{"ha":1181,"x_min":50,"x_max":1131,"o":"m 854 597 q 801 779 854 717 q 644 842 747 842 q 417 720 509 842 q 325 415 325 598 q 378 234 325 298 q 528 170 432 170 q 666 202 606 170 q 770 300 727 235 q 832 439 810 361 q 854 597 854 516 m 682 1031 q 1007 919 884 1031 q 1131 625 1131 806 q 1093 392 1131 502 q 983 195 1055 282 q 775 34 895 87 q 497 -20 654 -20 q 173 92 296 -20 q 50 386 50 204 q 87 620 50 510 q 197 818 125 730 q 405 978 284 925 q 682 1031 525 1031 m 720 1143 l 687 1168 q 660 1186 671 1181 q 636 1190 648 1190 q 594 1168 612 1190 q 569 1109 576 1147 l 476 1109 q 538 1242 494 1196 q 647 1289 583 1289 q 694 1281 672 1289 q 740 1255 716 1273 l 776 1227 q 799 1213 787 1218 q 822 1208 811 1208 q 866 1229 848 1208 q 891 1289 884 1250 l 985 1289 q 923 1156 967 1202 q 815 1109 878 1109 q 768 1116 789 1109 q 720 1143 746 1124 z "},"Ö":{"ha":1181,"x_min":50,"x_max":1131,"o":"m 854 597 q 801 779 854 717 q 644 842 747 842 q 417 720 509 842 q 325 415 325 598 q 378 234 325 298 q 528 170 432 170 q 666 202 606 170 q 770 300 727 235 q 832 439 810 361 q 854 597 854 516 m 682 1031 q 1007 919 884 1031 q 1131 625 1131 806 q 1093 392 1131 502 q 983 195 1055 282 q 775 34 895 87 q 497 -20 654 -20 q 173 92 296 -20 q 50 386 50 204 q 87 620 50 510 q 197 818 125 730 q 405 978 284 925 q 682 1031 525 1031 m 536 1288 l 696 1288 l 664 1121 l 504 1121 l 536 1288 m 804 1288 l 965 1288 l 932 1121 l 772 1121 l 804 1288 z "},"×":{"ha":1164,"x_min":174,"x_max":990,"o":"m 990 729 l 696 435 l 990 142 l 876 28 l 582 321 l 288 28 l 174 142 l 468 435 l 174 729 l 288 843 l 582 549 l 876 843 l 990 729 z "},"Ø":{"ha":1181,"x_min":-65,"x_max":1244,"o":"m 811 765 q 743 823 784 804 q 646 842 701 842 q 417 721 509 842 q 326 415 326 600 q 329 365 326 400 q 329 361 329 365 l 811 765 m 107 175 q 64 278 79 225 q 50 386 50 332 q 87 620 50 510 q 197 818 125 730 q 405 978 285 926 q 682 1031 524 1031 q 862 1004 783 1031 q 1000 925 941 978 l 1175 1071 l 1244 987 l 1069 843 q 1115 736 1100 791 q 1131 624 1131 682 q 1093 391 1131 500 q 983 193 1055 281 q 774 33 895 86 q 497 -20 654 -20 q 317 8 397 -20 q 175 92 237 36 l 4 -53 l -65 31 l 107 175 m 366 252 q 433 191 392 212 q 528 170 475 170 q 666 202 606 170 q 770 300 727 235 q 833 440 810 362 q 856 596 856 517 q 851 649 856 613 q 850 657 850 654 l 366 252 z "},"Ù":{"ha":1128,"x_min":94,"x_max":1099,"o":"m 227 1013 l 488 1013 l 370 406 q 360 349 363 374 q 357 304 357 323 q 392 205 357 238 q 498 172 428 172 q 644 225 593 172 q 720 406 695 279 l 838 1013 l 1099 1013 l 981 406 q 813 81 937 182 q 461 -20 690 -20 q 188 57 281 -20 q 94 281 94 134 q 98 335 94 305 q 109 406 101 366 l 227 1013 m 665 1288 l 763 1109 l 642 1109 l 486 1288 l 665 1288 z "},"Ú":{"ha":1128,"x_min":94,"x_max":1099,"o":"m 227 1013 l 488 1013 l 370 406 q 360 349 363 374 q 357 304 357 323 q 392 205 357 238 q 498 172 428 172 q 644 225 593 172 q 720 406 695 279 l 838 1013 l 1099 1013 l 981 406 q 813 81 937 182 q 461 -20 690 -20 q 188 57 281 -20 q 94 281 94 134 q 98 335 94 305 q 109 406 101 366 l 227 1013 m 730 1288 l 920 1288 l 703 1109 l 563 1109 l 730 1288 z "},"Û":{"ha":1128,"x_min":94,"x_max":1099,"o":"m 227 1013 l 488 1013 l 370 406 q 360 349 363 374 q 357 304 357 323 q 392 205 357 238 q 498 172 428 172 q 644 225 593 172 q 720 406 695 279 l 838 1013 l 1099 1013 l 981 406 q 813 81 937 182 q 461 -20 690 -20 q 188 57 281 -20 q 94 281 94 134 q 98 335 94 305 q 109 406 101 366 l 227 1013 m 570 1288 l 806 1288 l 909 1109 l 793 1109 l 682 1218 l 526 1109 l 404 1109 l 570 1288 z "},"Ü":{"ha":1128,"x_min":94,"x_max":1099,"o":"m 227 1013 l 488 1013 l 370 406 q 360 349 363 374 q 357 304 357 323 q 392 205 357 238 q 498 172 428 172 q 644 225 593 172 q 720 406 695 279 l 838 1013 l 1099 1013 l 981 406 q 813 81 937 182 q 461 -20 690 -20 q 188 57 281 -20 q 94 281 94 134 q 98 335 94 305 q 109 406 101 366 l 227 1013 m 482 1288 l 642 1288 l 610 1121 l 450 1121 l 482 1288 m 750 1288 l 911 1288 l 878 1121 l 718 1121 l 750 1288 z "},"Ý":{"ha":1006,"x_min":87,"x_max":1124,"o":"m 87 1013 l 349 1013 l 521 637 l 822 1013 l 1124 1013 l 624 422 l 542 0 l 281 0 l 363 422 l 87 1013 m 677 1288 l 867 1288 l 650 1109 l 510 1109 l 677 1288 z "},"Þ":{"ha":1031,"x_min":29,"x_max":965,"o":"m 227 1013 l 488 1013 l 458 861 l 625 861 q 875 788 785 861 q 965 586 965 715 q 936 436 965 507 q 850 311 906 365 q 705 227 789 253 q 496 200 621 200 l 329 200 l 290 0 l 29 0 l 227 1013 m 421 673 l 367 389 l 505 389 q 647 433 597 389 q 696 559 696 477 q 662 644 696 615 q 561 673 627 673 l 421 673 z "},"ß":{"ha":999,"x_min":43,"x_max":925,"o":"m 189 755 q 322 981 218 907 q 612 1055 427 1055 q 845 996 766 1055 q 925 821 925 936 q 923 791 925 807 q 918 756 922 774 l 908 707 q 745 672 806 703 q 685 591 685 640 q 754 505 685 554 q 764 498 760 501 l 806 469 q 889 382 863 429 q 916 273 916 335 q 821 61 916 142 q 572 -20 727 -20 q 468 -11 519 -20 q 367 14 417 -3 l 400 179 q 476 151 438 161 q 549 142 513 142 q 638 168 604 142 q 672 235 672 193 q 656 284 672 262 q 589 343 641 306 l 547 372 q 481 438 502 404 q 461 515 461 473 q 523 676 461 609 q 703 777 585 743 q 704 786 703 781 q 704 802 704 791 q 676 871 704 847 q 595 895 648 895 q 486 858 526 895 q 432 746 446 822 l 286 0 l 43 0 l 189 755 z "},"à":{"ha":937,"x_min":24,"x_max":848,"o":"m 457 342 q 320 314 366 342 q 273 231 273 286 q 301 165 273 189 q 376 142 328 142 q 501 187 451 142 q 568 314 551 232 l 574 342 l 457 342 m 836 433 l 751 0 l 509 0 l 529 113 q 403 13 469 45 q 258 -20 336 -20 q 87 36 151 -20 q 24 187 24 92 q 136 409 24 332 q 460 486 248 486 l 603 486 l 606 505 q 608 519 608 515 q 608 526 608 523 q 566 594 608 571 q 440 616 524 616 q 294 601 365 616 q 158 554 224 585 l 195 739 q 350 768 271 758 q 515 778 430 778 q 766 720 684 778 q 848 543 848 662 q 845 493 848 520 q 836 433 842 465 m 496 1111 l 637 856 l 504 856 l 304 1111 l 496 1111 z "},"á":{"ha":937,"x_min":24,"x_max":871,"o":"m 457 342 q 320 314 366 342 q 273 231 273 286 q 301 165 273 189 q 376 142 328 142 q 501 187 451 142 q 568 314 551 232 l 574 342 l 457 342 m 836 433 l 751 0 l 509 0 l 529 113 q 403 13 469 45 q 258 -20 336 -20 q 87 36 151 -20 q 24 187 24 92 q 136 409 24 332 q 460 486 248 486 l 603 486 l 606 505 q 608 519 608 515 q 608 526 608 523 q 566 594 608 571 q 440 616 524 616 q 294 601 365 616 q 158 554 224 585 l 195 739 q 350 768 271 758 q 515 778 430 778 q 766 720 684 778 q 848 543 848 662 q 845 493 848 520 q 836 433 842 465 m 672 1111 l 871 1111 l 574 856 l 437 856 l 672 1111 z "},"â":{"ha":937,"x_min":24,"x_max":848,"o":"m 457 342 q 320 314 366 342 q 273 231 273 286 q 301 165 273 189 q 376 142 328 142 q 501 187 451 142 q 568 314 551 232 l 574 342 l 457 342 m 836 433 l 751 0 l 509 0 l 529 113 q 403 13 469 45 q 258 -20 336 -20 q 87 36 151 -20 q 24 187 24 92 q 136 409 24 332 q 460 486 248 486 l 603 486 l 606 505 q 608 519 608 515 q 608 526 608 523 q 566 594 608 571 q 440 616 524 616 q 294 601 365 616 q 158 554 224 585 l 195 739 q 350 768 271 758 q 515 778 430 778 q 766 720 684 778 q 848 543 848 662 q 845 493 848 520 q 836 433 842 465 m 492 1111 l 669 1111 l 793 856 l 672 856 l 566 1008 l 403 856 l 269 856 l 492 1111 z "},"ã":{"ha":937,"x_min":24,"x_max":848,"o":"m 457 342 q 320 314 366 342 q 273 231 273 286 q 301 165 273 189 q 376 142 328 142 q 501 187 451 142 q 568 314 551 232 l 574 342 l 457 342 m 836 433 l 751 0 l 509 0 l 529 113 q 403 13 469 45 q 258 -20 336 -20 q 87 36 151 -20 q 24 187 24 92 q 136 409 24 332 q 460 486 248 486 l 603 486 l 606 505 q 608 519 608 515 q 608 526 608 523 q 566 594 608 571 q 440 616 524 616 q 294 601 365 616 q 158 554 224 585 l 195 739 q 350 768 271 758 q 515 778 430 778 q 766 720 684 778 q 848 543 848 662 q 845 493 848 520 q 836 433 842 465 m 553 925 l 519 950 q 513 955 517 951 q 467 975 487 975 q 426 952 444 975 q 401 888 408 928 l 307 888 q 369 1030 325 981 q 477 1080 414 1080 q 525 1071 502 1080 q 572 1042 547 1062 l 608 1013 q 632 997 621 1002 q 654 991 644 991 q 697 1014 680 991 q 722 1079 715 1037 l 817 1079 q 755 937 799 987 q 647 886 711 886 q 604 894 624 886 q 553 925 583 902 z "},"ä":{"ha":937,"x_min":24,"x_max":848,"o":"m 457 342 q 320 314 366 342 q 273 231 273 286 q 301 165 273 189 q 376 142 328 142 q 501 187 451 142 q 568 314 551 232 l 574 342 l 457 342 m 836 433 l 751 0 l 509 0 l 529 113 q 403 13 469 45 q 258 -20 336 -20 q 87 36 151 -20 q 24 187 24 92 q 136 409 24 332 q 460 486 248 486 l 603 486 l 606 505 q 608 519 608 515 q 608 526 608 523 q 566 594 608 571 q 440 616 524 616 q 294 601 365 616 q 158 554 224 585 l 195 739 q 350 768 271 758 q 515 778 430 778 q 766 720 684 778 q 848 543 848 662 q 845 493 848 520 q 836 433 842 465 m 365 1075 l 526 1075 l 493 908 l 333 908 l 365 1075 m 635 1075 l 794 1075 l 761 908 l 602 908 l 635 1075 z "},"å":{"ha":937,"x_min":24,"x_max":848,"o":"m 457 342 q 320 314 366 342 q 273 231 273 286 q 301 165 273 189 q 376 142 328 142 q 501 187 451 142 q 568 314 551 232 l 574 342 l 457 342 m 836 433 l 751 0 l 509 0 l 529 113 q 403 13 469 45 q 258 -20 336 -20 q 87 36 151 -20 q 24 187 24 92 q 136 409 24 332 q 460 486 248 486 l 603 486 l 606 505 q 608 519 608 515 q 608 526 608 523 q 566 594 608 571 q 440 616 524 616 q 294 601 365 616 q 158 554 224 585 l 195 739 q 350 768 271 758 q 515 778 430 778 q 766 720 684 778 q 848 543 848 662 q 845 493 848 520 q 836 433 842 465 m 764 1034 q 708 896 764 952 q 571 840 652 840 q 434 896 490 840 q 378 1034 378 952 q 434 1171 378 1115 q 571 1226 490 1226 q 708 1171 652 1226 q 764 1034 764 1115 m 672 1034 q 644 1106 672 1078 q 571 1135 615 1135 q 498 1106 526 1135 q 469 1034 469 1078 q 498 961 469 989 q 571 932 527 932 q 644 960 615 932 q 672 1034 672 989 z "},"æ":{"ha":1455,"x_min":24,"x_max":1400,"o":"m 457 342 q 320 314 366 342 q 273 231 273 286 q 301 165 273 189 q 376 142 328 142 q 501 187 451 142 q 568 314 551 232 l 574 342 l 457 342 m 197 739 q 352 768 277 758 q 498 778 428 778 q 666 753 600 778 q 771 676 732 728 q 908 753 836 728 q 1068 778 980 778 q 1310 695 1219 778 q 1400 476 1400 612 q 1396 414 1400 446 q 1386 351 1393 383 l 1377 313 l 810 313 q 809 301 810 309 q 808 289 808 293 q 853 178 808 215 q 986 142 897 142 q 1146 164 1062 142 q 1325 233 1231 187 l 1289 45 q 1112 -4 1200 12 q 932 -20 1023 -20 q 734 15 814 -20 q 610 121 654 50 q 447 15 530 50 q 269 -20 363 -20 q 89 35 154 -20 q 24 186 24 90 q 136 409 24 332 q 463 486 248 486 l 602 486 l 606 506 q 608 519 608 515 q 608 526 608 523 q 566 594 608 571 q 443 616 524 616 q 295 601 366 616 q 161 554 225 585 l 197 739 m 1157 463 q 1160 480 1159 471 q 1161 498 1161 490 q 1128 585 1161 553 q 1040 616 1095 616 q 919 577 969 616 q 843 463 868 538 l 1157 463 z "},"ç":{"ha":823,"x_min":52,"x_max":807,"o":"m 807 736 l 768 538 q 672 587 720 570 q 579 604 625 604 q 385 525 460 604 q 310 321 310 445 q 357 198 310 241 q 489 154 404 154 q 601 171 546 154 q 705 221 656 188 l 668 22 q 547 -9 608 1 q 424 -20 486 -20 q 148 61 245 -20 q 52 289 52 141 q 87 469 52 382 q 189 627 123 557 q 359 741 263 703 q 579 778 454 778 q 694 767 637 778 q 807 736 751 757 m 468 0 q 505 -65 493 -35 q 516 -123 516 -95 q 465 -233 516 -194 q 321 -272 414 -272 q 255 -268 288 -272 q 187 -254 222 -263 l 207 -149 q 261 -166 234 -160 q 315 -172 289 -172 q 385 -153 359 -172 q 411 -102 411 -134 q 402 -61 411 -84 q 372 0 393 -37 l 468 0 z "},"è":{"ha":942,"x_min":50,"x_max":889,"o":"m 873 351 l 865 313 l 297 313 q 296 301 297 309 q 296 289 296 293 q 340 178 296 215 q 473 142 385 142 q 635 165 550 142 q 814 233 720 188 l 777 45 q 600 -4 688 12 q 421 -20 512 -20 q 147 62 243 -20 q 50 294 50 144 q 81 463 50 381 q 171 612 112 545 q 338 736 241 694 q 554 778 435 778 q 799 696 708 778 q 889 475 889 614 q 885 417 889 448 q 873 351 882 387 m 644 463 q 647 480 646 471 q 648 498 648 490 q 616 585 648 553 q 528 616 583 616 q 407 577 456 616 q 330 463 357 538 l 644 463 m 528 1111 l 669 856 l 536 856 l 336 1111 l 528 1111 z "},"é":{"ha":942,"x_min":50,"x_max":903,"o":"m 873 351 l 865 313 l 297 313 q 296 301 297 309 q 296 289 296 293 q 340 178 296 215 q 473 142 385 142 q 635 165 550 142 q 814 233 720 188 l 777 45 q 600 -4 688 12 q 421 -20 512 -20 q 147 62 243 -20 q 50 294 50 144 q 81 463 50 381 q 171 612 112 545 q 338 736 241 694 q 554 778 435 778 q 799 696 708 778 q 889 475 889 614 q 885 417 889 448 q 873 351 882 387 m 644 463 q 647 480 646 471 q 648 498 648 490 q 616 585 648 553 q 528 616 583 616 q 407 577 456 616 q 330 463 357 538 l 644 463 m 704 1111 l 903 1111 l 606 856 l 469 856 l 704 1111 z "},"ê":{"ha":942,"x_min":50,"x_max":889,"o":"m 873 351 l 865 313 l 297 313 q 296 301 297 309 q 296 289 296 293 q 340 178 296 215 q 473 142 385 142 q 635 165 550 142 q 814 233 720 188 l 777 45 q 600 -4 688 12 q 421 -20 512 -20 q 147 62 243 -20 q 50 294 50 144 q 81 463 50 381 q 171 612 112 545 q 338 736 241 694 q 554 778 435 778 q 799 696 708 778 q 889 475 889 614 q 885 417 889 448 q 873 351 882 387 m 644 463 q 647 480 646 471 q 648 498 648 490 q 616 585 648 553 q 528 616 583 616 q 407 577 456 616 q 330 463 357 538 l 644 463 m 524 1111 l 701 1111 l 825 856 l 704 856 l 598 1008 l 435 856 l 301 856 l 524 1111 z "},"ë":{"ha":942,"x_min":50,"x_max":889,"o":"m 873 351 l 865 313 l 297 313 q 296 301 297 309 q 296 289 296 293 q 340 178 296 215 q 473 142 385 142 q 635 165 550 142 q 814 233 720 188 l 777 45 q 600 -4 688 12 q 421 -20 512 -20 q 147 62 243 -20 q 50 294 50 144 q 81 463 50 381 q 171 612 112 545 q 338 736 241 694 q 554 778 435 778 q 799 696 708 778 q 889 475 889 614 q 885 417 889 448 q 873 351 882 387 m 644 463 q 647 480 646 471 q 648 498 648 490 q 616 585 648 553 q 528 616 583 616 q 407 577 456 616 q 330 463 357 538 l 644 463 m 397 1075 l 558 1075 l 525 908 l 365 908 l 397 1075 m 667 1075 l 826 1075 l 793 908 l 633 908 l 667 1075 z "},"ì":{"ha":476,"x_min":43,"x_max":435,"o":"m 191 760 l 435 760 l 286 0 l 43 0 l 191 760 m 278 1111 l 420 856 l 286 856 l 86 1111 l 278 1111 z "},"í":{"ha":476,"x_min":43,"x_max":653,"o":"m 191 760 l 435 760 l 286 0 l 43 0 l 191 760 m 454 1111 l 653 1111 l 356 856 l 220 856 l 454 1111 z "},"î":{"ha":476,"x_min":43,"x_max":575,"o":"m 191 760 l 435 760 l 286 0 l 43 0 l 191 760 m 274 1111 l 452 1111 l 575 856 l 454 856 l 349 1008 l 185 856 l 52 856 l 274 1111 z "},"ï":{"ha":476,"x_min":43,"x_max":576,"o":"m 191 760 l 435 760 l 286 0 l 43 0 l 191 760 m 147 1075 l 309 1075 l 275 908 l 115 908 l 147 1075 m 417 1075 l 576 1075 l 543 908 l 384 908 l 417 1075 z "},"ð":{"ha":954,"x_min":50,"x_max":942,"o":"m 650 504 q 580 531 614 522 q 510 541 545 541 q 360 477 415 541 q 304 306 304 413 q 338 193 304 232 q 436 154 372 154 q 592 240 531 154 q 653 460 653 326 q 650 496 653 469 q 650 504 650 500 m 817 746 q 882 612 860 684 q 904 461 904 540 q 873 291 904 373 q 783 140 842 208 q 620 21 715 62 q 410 -20 526 -20 q 148 65 246 -20 q 50 289 50 150 q 174 597 50 479 q 496 715 297 715 q 558 711 529 715 q 612 697 588 706 l 510 843 l 249 770 l 225 857 l 456 921 l 363 1055 l 602 1055 l 657 977 l 918 1048 l 942 962 l 711 899 l 817 746 z "},"ñ":{"ha":989,"x_min":43,"x_max":908,"o":"m 896 463 l 806 0 l 562 0 l 639 396 q 651 461 647 435 q 656 504 656 488 q 632 571 656 547 q 564 595 608 595 q 434 536 488 595 q 359 374 380 477 l 286 0 l 43 0 l 191 760 l 435 760 l 412 648 q 547 746 479 714 q 689 778 615 778 q 851 723 794 778 q 908 568 908 668 q 905 520 908 547 q 896 463 902 494 m 578 925 l 545 950 q 538 955 543 951 q 492 975 512 975 q 451 952 469 975 q 427 888 433 928 l 332 888 q 394 1030 350 981 q 503 1080 439 1080 q 550 1071 527 1080 q 597 1042 572 1062 l 633 1013 q 657 997 646 1002 q 679 991 669 991 q 722 1014 705 991 q 747 1079 740 1037 l 842 1079 q 780 937 824 987 q 672 886 736 886 q 629 894 649 886 q 578 925 608 902 z "},"ò":{"ha":954,"x_min":50,"x_max":904,"o":"m 521 604 q 366 519 427 604 q 304 301 304 433 q 337 192 304 229 q 433 154 370 154 q 589 240 528 154 q 650 458 650 326 q 617 567 650 530 q 521 604 584 604 m 541 778 q 807 692 710 778 q 904 457 904 606 q 873 290 904 371 q 785 142 843 209 q 621 21 715 62 q 411 -20 527 -20 q 147 66 243 -20 q 50 301 50 153 q 81 468 50 387 q 171 618 113 550 q 333 737 239 696 q 541 778 427 778 m 505 1111 l 646 856 l 513 856 l 313 1111 l 505 1111 z "},"ó":{"ha":954,"x_min":50,"x_max":904,"o":"m 521 604 q 366 519 427 604 q 304 301 304 433 q 337 192 304 229 q 433 154 370 154 q 589 240 528 154 q 650 458 650 326 q 617 567 650 530 q 521 604 584 604 m 541 778 q 807 692 710 778 q 904 457 904 606 q 873 290 904 371 q 785 142 843 209 q 621 21 715 62 q 411 -20 527 -20 q 147 66 243 -20 q 50 301 50 153 q 81 468 50 387 q 171 618 113 550 q 333 737 239 696 q 541 778 427 778 m 681 1111 l 880 1111 l 583 856 l 446 856 l 681 1111 z "},"ô":{"ha":954,"x_min":50,"x_max":904,"o":"m 521 604 q 366 519 427 604 q 304 301 304 433 q 337 192 304 229 q 433 154 370 154 q 589 240 528 154 q 650 458 650 326 q 617 567 650 530 q 521 604 584 604 m 541 778 q 807 692 710 778 q 904 457 904 606 q 873 290 904 371 q 785 142 843 209 q 621 21 715 62 q 411 -20 527 -20 q 147 66 243 -20 q 50 301 50 153 q 81 468 50 387 q 171 618 113 550 q 333 737 239 696 q 541 778 427 778 m 500 1111 l 678 1111 l 802 856 l 681 856 l 575 1008 l 412 856 l 278 856 l 500 1111 z "},"õ":{"ha":954,"x_min":50,"x_max":904,"o":"m 521 604 q 366 519 427 604 q 304 301 304 433 q 337 192 304 229 q 433 154 370 154 q 589 240 528 154 q 650 458 650 326 q 617 567 650 530 q 521 604 584 604 m 541 778 q 807 692 710 778 q 904 457 904 606 q 873 290 904 371 q 785 142 843 209 q 621 21 715 62 q 411 -20 527 -20 q 147 66 243 -20 q 50 301 50 153 q 81 468 50 387 q 171 618 113 550 q 333 737 239 696 q 541 778 427 778 m 562 925 l 528 950 q 522 955 526 951 q 475 975 496 975 q 435 952 452 975 q 410 888 417 928 l 315 888 q 378 1030 334 981 q 486 1080 422 1080 q 533 1071 511 1080 q 581 1042 556 1062 l 617 1013 q 641 997 629 1002 q 663 991 652 991 q 706 1014 688 991 q 731 1079 724 1037 l 825 1079 q 764 937 808 987 q 656 886 720 886 q 612 894 633 886 q 562 925 592 902 z "},"ö":{"ha":954,"x_min":50,"x_max":904,"o":"m 521 604 q 366 519 427 604 q 304 301 304 433 q 337 192 304 229 q 433 154 370 154 q 589 240 528 154 q 650 458 650 326 q 617 567 650 530 q 521 604 584 604 m 541 778 q 807 692 710 778 q 904 457 904 606 q 873 290 904 371 q 785 142 843 209 q 621 21 715 62 q 411 -20 527 -20 q 147 66 243 -20 q 50 301 50 153 q 81 468 50 387 q 171 618 113 550 q 333 737 239 696 q 541 778 427 778 m 374 1075 l 535 1075 l 502 908 l 342 908 l 374 1075 m 644 1075 l 803 1075 l 770 908 l 610 908 l 644 1075 z "},"÷":{"ha":1164,"x_min":147,"x_max":1017,"o":"m 478 268 l 686 268 l 686 58 l 478 58 l 478 268 m 478 812 l 686 812 l 686 603 l 478 603 l 478 812 m 147 515 l 1017 515 l 1017 355 l 147 355 l 147 515 z "},"ø":{"ha":954,"x_min":-24,"x_max":972,"o":"m 614 571 q 575 596 598 587 q 521 604 551 604 q 369 523 426 604 q 304 297 311 442 l 614 571 m 103 118 q 63 204 77 158 q 50 302 50 251 q 81 469 50 388 q 171 618 112 550 q 333 738 239 697 q 543 778 427 778 q 672 762 614 778 q 777 715 730 747 l 907 829 l 972 754 l 848 644 q 890 557 876 604 q 904 457 904 511 q 873 290 904 371 q 785 142 843 209 q 621 22 716 63 q 411 -20 526 -20 q 278 -3 337 -20 q 172 47 218 14 l 41 -69 l -24 7 l 103 118 m 338 192 q 378 163 355 173 q 433 154 401 154 q 587 238 529 154 q 650 469 645 322 l 338 192 z "},"ù":{"ha":989,"x_min":83,"x_max":946,"o":"m 94 296 l 183 760 l 427 760 l 350 364 q 338 298 342 326 q 334 256 334 271 q 357 189 334 213 q 425 165 381 165 q 555 224 500 165 q 629 386 609 282 l 703 760 l 946 760 l 799 0 l 554 0 l 576 111 q 446 13 514 45 q 301 -20 377 -20 q 140 35 197 -20 q 83 191 83 90 q 86 241 83 214 q 94 296 89 267 m 521 1111 l 663 856 l 529 856 l 329 1111 l 521 1111 z "},"ú":{"ha":989,"x_min":83,"x_max":946,"o":"m 94 296 l 183 760 l 427 760 l 350 364 q 338 298 342 326 q 334 256 334 271 q 357 189 334 213 q 425 165 381 165 q 555 224 500 165 q 629 386 609 282 l 703 760 l 946 760 l 799 0 l 554 0 l 576 111 q 446 13 514 45 q 301 -20 377 -20 q 140 35 197 -20 q 83 191 83 90 q 86 241 83 214 q 94 296 89 267 m 697 1111 l 896 1111 l 599 856 l 463 856 l 697 1111 z "},"û":{"ha":989,"x_min":83,"x_max":946,"o":"m 94 296 l 183 760 l 427 760 l 350 364 q 338 298 342 326 q 334 256 334 271 q 357 189 334 213 q 425 165 381 165 q 555 224 500 165 q 629 386 609 282 l 703 760 l 946 760 l 799 0 l 554 0 l 576 111 q 446 13 514 45 q 301 -20 377 -20 q 140 35 197 -20 q 83 191 83 90 q 86 241 83 214 q 94 296 89 267 m 517 1111 l 694 1111 l 818 856 l 697 856 l 591 1008 l 428 856 l 294 856 l 517 1111 z "},"ü":{"ha":989,"x_min":83,"x_max":946,"o":"m 94 296 l 183 760 l 427 760 l 350 364 q 338 298 342 326 q 334 256 334 271 q 357 189 334 213 q 425 165 381 165 q 555 224 500 165 q 629 386 609 282 l 703 760 l 946 760 l 799 0 l 554 0 l 576 111 q 446 13 514 45 q 301 -20 377 -20 q 140 35 197 -20 q 83 191 83 90 q 86 241 83 214 q 94 296 89 267 m 390 1075 l 551 1075 l 518 908 l 358 908 l 390 1075 m 660 1075 l 819 1075 l 786 908 l 627 908 l 660 1075 z "},"ý":{"ha":905,"x_min":0,"x_max":954,"o":"m 92 760 l 321 760 l 425 233 l 694 760 l 954 760 l 473 -72 q 324 -256 393 -212 q 147 -300 256 -300 l 0 -300 l 25 -140 l 102 -140 q 194 -120 161 -140 q 253 -50 227 -100 l 275 -9 l 92 760 m 656 1111 l 854 1111 l 557 856 l 421 856 l 656 1111 z "},"þ":{"ha":994,"x_min":-14,"x_max":940,"o":"m 309 110 l 231 -289 l -14 -289 l 248 1055 l 492 1055 l 412 648 q 529 746 468 715 q 663 778 590 778 q 865 696 791 778 q 940 475 940 615 q 914 304 940 387 q 839 154 888 222 q 700 24 777 68 q 533 -20 622 -20 q 400 12 455 -20 q 309 110 346 43 m 564 602 q 411 515 470 602 q 351 290 351 429 q 385 192 351 228 q 478 157 418 157 q 629 242 570 157 q 689 460 689 327 q 657 565 689 529 q 564 602 625 602 z "},"ÿ":{"ha":905,"x_min":0,"x_max":954,"o":"m 92 760 l 321 760 l 425 233 l 694 760 l 954 760 l 473 -72 q 324 -256 393 -212 q 147 -300 256 -300 l 0 -300 l 25 -140 l 102 -140 q 194 -120 161 -140 q 253 -50 227 -100 l 275 -9 l 92 760 m 349 1075 l 510 1075 l 477 908 l 317 908 l 349 1075 m 618 1075 l 778 1075 l 745 908 l 585 908 l 618 1075 z "},"Ā":{"ha":1075,"x_min":-90,"x_max":960,"o":"m 682 184 l 278 184 l 178 0 l -90 0 l 482 1013 l 781 1013 l 960 0 l 711 0 l 682 184 m 376 368 l 648 368 l 587 758 l 376 368 m 430 1269 l 858 1269 l 833 1141 l 405 1141 l 430 1269 z "},"ā":{"ha":937,"x_min":24,"x_max":848,"o":"m 457 342 q 320 314 366 342 q 273 231 273 286 q 301 165 273 189 q 376 142 328 142 q 501 187 451 142 q 568 314 551 232 l 574 342 l 457 342 m 836 433 l 751 0 l 509 0 l 529 113 q 403 13 469 45 q 258 -20 336 -20 q 87 36 151 -20 q 24 187 24 92 q 136 409 24 332 q 460 486 248 486 l 603 486 l 606 505 q 608 519 608 515 q 608 526 608 523 q 566 594 608 571 q 440 616 524 616 q 294 601 365 616 q 158 554 224 585 l 195 739 q 350 768 271 758 q 515 778 430 778 q 766 720 684 778 q 848 543 848 662 q 845 493 848 520 q 836 433 842 465 m 333 1059 l 761 1059 l 736 932 l 308 932 l 333 1059 z "},"Ă":{"ha":1075,"x_min":-90,"x_max":960,"o":"m 457 1299 l 553 1299 l 553 1293 q 583 1225 553 1249 q 666 1202 612 1202 q 756 1226 721 1202 q 810 1299 791 1250 l 913 1299 q 821 1150 890 1202 q 646 1098 751 1098 q 503 1140 551 1098 q 455 1264 455 1182 q 455 1285 455 1278 q 457 1299 456 1293 m 682 184 l 278 184 l 178 0 l -90 0 l 482 1013 l 781 1013 l 960 0 l 711 0 l 682 184 m 376 368 l 648 368 l 587 758 l 376 368 z "},"ă":{"ha":937,"x_min":24,"x_max":848,"o":"m 356 1072 l 452 1072 l 452 1066 q 481 998 452 1022 q 565 975 511 975 q 655 999 620 975 q 709 1072 690 1023 l 812 1072 q 720 923 789 975 q 545 871 650 871 q 402 913 450 871 q 354 1037 354 955 q 354 1058 354 1051 q 356 1072 355 1065 m 457 342 q 320 314 366 342 q 273 231 273 286 q 301 165 273 189 q 376 142 328 142 q 501 187 451 142 q 568 314 551 232 l 574 342 l 457 342 m 836 433 l 751 0 l 509 0 l 529 113 q 403 13 469 45 q 258 -20 336 -20 q 87 36 151 -20 q 24 187 24 92 q 136 409 24 332 q 460 486 248 486 l 603 486 l 606 505 q 608 519 608 515 q 608 526 608 523 q 566 594 608 571 q 440 616 524 616 q 294 601 365 616 q 158 554 224 585 l 195 739 q 350 768 271 758 q 515 778 430 778 q 766 720 684 778 q 848 543 848 662 q 845 493 848 520 q 836 433 842 465 z "},"Ą":{"ha":1075,"x_min":-90,"x_max":960,"o":"m 717 0 l 813 0 q 747 -77 765 -50 q 730 -123 730 -104 q 746 -159 730 -146 q 793 -172 763 -172 q 846 -167 819 -172 q 903 -151 874 -161 l 884 -254 q 814 -268 845 -263 q 758 -272 784 -272 q 648 -249 686 -272 q 610 -180 610 -225 q 635 -94 610 -136 q 717 0 661 -51 m 682 184 l 278 184 l 178 0 l -90 0 l 482 1013 l 781 1013 l 960 0 l 711 0 l 682 184 m 376 368 l 648 368 l 587 758 l 376 368 z "},"ą":{"ha":937,"x_min":24,"x_max":848,"o":"m 509 0 l 606 0 q 540 -77 557 -50 q 522 -123 522 -104 q 539 -159 522 -146 q 586 -172 555 -172 q 639 -167 611 -172 q 696 -151 667 -161 l 676 -254 q 607 -268 637 -263 q 550 -272 576 -272 q 440 -249 478 -272 q 403 -180 403 -225 q 428 -94 403 -136 q 509 0 453 -51 m 457 342 q 320 314 366 342 q 273 231 273 286 q 301 165 273 189 q 376 142 328 142 q 501 187 451 142 q 568 314 551 232 l 574 342 l 457 342 m 836 433 l 751 0 l 509 0 l 529 113 q 403 13 469 45 q 258 -20 336 -20 q 87 36 151 -20 q 24 187 24 92 q 136 409 24 332 q 460 486 248 486 l 603 486 l 606 505 q 608 519 608 515 q 608 526 608 523 q 566 594 608 571 q 440 616 524 616 q 294 601 365 616 q 158 554 224 585 l 195 739 q 350 768 271 758 q 515 778 430 778 q 766 720 684 778 q 848 543 848 662 q 845 493 848 520 q 836 433 842 465 z "},"Ć":{"ha":1019,"x_min":50,"x_max":1006,"o":"m 842 47 q 662 -3 748 14 q 498 -20 576 -20 q 172 92 294 -20 q 50 389 50 204 q 89 617 50 510 q 203 814 127 725 q 417 975 292 918 q 686 1031 542 1031 q 844 1012 765 1031 q 1006 956 924 994 l 964 746 q 833 819 899 795 q 692 842 767 842 q 429 721 535 842 q 323 419 323 600 q 389 236 323 302 q 568 170 454 170 q 714 194 637 170 q 886 272 791 219 l 842 47 m 796 1288 l 986 1288 l 770 1109 l 629 1109 l 796 1288 z "},"ć":{"ha":823,"x_min":52,"x_max":896,"o":"m 807 736 l 768 538 q 672 587 720 570 q 579 604 625 604 q 385 525 460 604 q 310 321 310 445 q 357 198 310 241 q 489 154 404 154 q 601 171 546 154 q 705 221 656 188 l 668 22 q 547 -9 608 1 q 424 -20 486 -20 q 148 61 245 -20 q 52 289 52 141 q 87 469 52 382 q 189 627 123 557 q 359 741 263 703 q 579 778 454 778 q 694 767 637 778 q 807 736 751 757 m 697 1111 l 896 1111 l 599 856 l 463 856 l 697 1111 z "},"Ĉ":{"ha":1019,"x_min":50,"x_max":1006,"o":"m 636 1288 l 872 1288 l 975 1109 l 860 1109 l 749 1218 l 592 1109 l 471 1109 l 636 1288 m 842 47 q 662 -3 748 14 q 498 -20 576 -20 q 172 92 294 -20 q 50 389 50 204 q 89 617 50 510 q 203 814 127 725 q 417 975 292 918 q 686 1031 542 1031 q 844 1012 765 1031 q 1006 956 924 994 l 964 746 q 833 819 899 795 q 692 842 767 842 q 429 721 535 842 q 323 419 323 600 q 389 236 323 302 q 568 170 454 170 q 714 194 637 170 q 886 272 791 219 l 842 47 z "},"ĉ":{"ha":823,"x_min":52,"x_max":818,"o":"m 517 1111 l 694 1111 l 818 856 l 697 856 l 591 1008 l 428 856 l 294 856 l 517 1111 m 807 736 l 768 538 q 672 587 720 570 q 579 604 625 604 q 385 525 460 604 q 310 321 310 445 q 357 198 310 241 q 489 154 404 154 q 601 171 546 154 q 705 221 656 188 l 668 22 q 547 -9 608 1 q 424 -20 486 -20 q 148 61 245 -20 q 52 289 52 141 q 87 469 52 382 q 189 627 123 557 q 359 741 263 703 q 579 778 454 778 q 694 767 637 778 q 807 736 751 757 z "},"Ċ":{"ha":1019,"x_min":50,"x_max":1006,"o":"m 671 1288 l 857 1288 l 825 1121 l 639 1121 l 671 1288 m 842 47 q 662 -3 748 14 q 498 -20 576 -20 q 172 92 294 -20 q 50 389 50 204 q 89 617 50 510 q 203 814 127 725 q 417 975 292 918 q 686 1031 542 1031 q 844 1012 765 1031 q 1006 956 924 994 l 964 746 q 833 819 899 795 q 692 842 767 842 q 429 721 535 842 q 323 419 323 600 q 389 236 323 302 q 568 170 454 170 q 714 194 637 170 q 886 272 791 219 l 842 47 z "},"ċ":{"ha":823,"x_min":52,"x_max":807,"o":"m 486 1055 l 729 1055 l 691 857 l 448 857 l 486 1055 m 807 736 l 768 538 q 672 587 720 570 q 579 604 625 604 q 385 525 460 604 q 310 321 310 445 q 357 198 310 241 q 489 154 404 154 q 601 171 546 154 q 705 221 656 188 l 668 22 q 547 -9 608 1 q 424 -20 486 -20 q 148 61 245 -20 q 52 289 52 141 q 87 469 52 382 q 189 627 123 557 q 359 741 263 703 q 579 778 454 778 q 694 767 637 778 q 807 736 751 757 z "},"Č":{"ha":1019,"x_min":50,"x_max":1017,"o":"m 842 47 q 662 -3 748 14 q 498 -20 576 -20 q 172 92 294 -20 q 50 389 50 204 q 89 617 50 510 q 203 814 127 725 q 417 975 292 918 q 686 1031 542 1031 q 844 1012 765 1031 q 1006 956 924 994 l 964 746 q 833 819 899 795 q 692 842 767 842 q 429 721 535 842 q 323 419 323 600 q 389 236 323 302 q 568 170 454 170 q 714 194 637 170 q 886 272 791 219 l 842 47 m 852 1109 l 615 1109 l 522 1288 l 639 1288 l 739 1178 l 896 1288 l 1017 1288 l 852 1109 z "},"č":{"ha":823,"x_min":52,"x_max":880,"o":"m 807 736 l 768 538 q 672 587 720 570 q 579 604 625 604 q 385 525 460 604 q 310 321 310 445 q 357 198 310 241 q 489 154 404 154 q 601 171 546 154 q 705 221 656 188 l 668 22 q 547 -9 608 1 q 424 -20 486 -20 q 148 61 245 -20 q 52 289 52 141 q 87 469 52 382 q 189 627 123 557 q 359 741 263 703 q 579 778 454 778 q 694 767 637 778 q 807 736 751 757 m 657 856 l 481 856 l 357 1111 l 476 1111 l 582 957 l 747 1111 l 880 1111 l 657 856 z "},"Ď":{"ha":1153,"x_min":29,"x_max":1092,"o":"m 787 1109 l 550 1109 l 457 1288 l 574 1288 l 674 1178 l 831 1288 l 951 1288 l 787 1109 m 450 815 l 329 197 l 422 197 q 711 300 605 197 q 818 576 818 402 q 748 755 818 694 q 542 815 679 815 l 450 815 m 227 1013 l 501 1013 q 796 989 698 1013 q 960 911 895 966 q 1059 778 1025 856 q 1092 600 1092 699 q 1035 341 1092 463 q 876 136 979 219 q 668 31 787 62 q 304 0 550 0 l 29 0 l 227 1013 z "},"ď":{"ha":994,"x_min":50,"x_max":1316,"o":"m 427 157 q 579 243 520 157 q 637 468 637 329 q 605 566 637 531 q 513 602 572 602 q 361 516 420 602 q 301 298 301 431 q 333 193 301 229 q 427 157 366 157 m 682 648 l 761 1055 l 1006 1055 l 800 0 l 555 0 l 578 110 q 461 12 522 43 q 328 -20 400 -20 q 125 62 199 -20 q 50 283 50 143 q 76 454 50 371 q 151 604 102 536 q 291 734 213 690 q 457 778 368 778 q 590 746 535 778 q 682 648 644 715 m 1117 1054 l 1316 1054 l 1170 799 l 1034 799 l 1117 1054 z "},"Đ":{"ha":1174,"x_min":-3,"x_max":1116,"o":"m 472 815 l 433 612 l 600 612 l 566 436 l 399 436 l 351 197 l 444 197 q 735 300 628 197 q 842 576 842 403 q 771 755 842 694 q 564 815 701 815 l 472 815 m 249 1013 l 524 1013 q 819 989 720 1013 q 982 911 917 966 q 1082 777 1048 856 q 1116 600 1116 699 q 1058 342 1116 464 q 899 136 1001 220 q 691 31 809 62 q 326 0 572 0 l 52 0 l 136 436 l -3 436 l 32 612 l 171 612 l 249 1013 z "},"đ":{"ha":994,"x_min":50,"x_max":1135,"o":"m 427 157 q 579 243 520 157 q 637 468 637 329 q 605 566 637 531 q 513 602 572 602 q 361 516 420 602 q 301 298 301 431 q 333 193 301 229 q 427 157 366 157 m 682 648 l 721 848 l 453 848 l 478 977 l 746 977 l 761 1055 l 1006 1055 l 990 977 l 1135 977 l 1109 848 l 965 848 l 800 0 l 555 0 l 578 110 q 461 12 522 43 q 328 -20 400 -20 q 125 62 199 -20 q 50 283 50 143 q 76 454 50 371 q 151 604 102 536 q 291 734 213 690 q 457 778 368 778 q 590 746 535 778 q 682 648 644 715 z "},"Ē":{"ha":949,"x_min":29,"x_max":930,"o":"m 227 1013 l 930 1013 l 892 815 l 449 815 l 412 627 l 829 627 l 790 429 l 374 429 l 329 197 l 786 197 l 749 0 l 29 0 l 227 1013 m 373 1269 l 801 1269 l 776 1141 l 348 1141 l 373 1269 z "},"ē":{"ha":942,"x_min":50,"x_max":889,"o":"m 873 351 l 865 313 l 297 313 q 296 301 297 309 q 296 289 296 293 q 340 178 296 215 q 473 142 385 142 q 635 165 550 142 q 814 233 720 188 l 777 45 q 600 -4 688 12 q 421 -20 512 -20 q 147 62 243 -20 q 50 294 50 144 q 81 463 50 381 q 171 612 112 545 q 338 736 241 694 q 554 778 435 778 q 799 696 708 778 q 889 475 889 614 q 885 417 889 448 q 873 351 882 387 m 644 463 q 647 480 646 471 q 648 498 648 490 q 616 585 648 553 q 528 616 583 616 q 407 577 456 616 q 330 463 357 538 l 644 463 m 374 1060 l 802 1060 l 777 932 l 349 932 l 374 1060 z "},"Ĕ":{"ha":949,"x_min":29,"x_max":930,"o":"m 418 1288 l 515 1288 q 550 1229 522 1247 q 631 1210 577 1210 q 715 1231 680 1210 q 767 1288 751 1251 l 871 1288 q 777 1155 844 1200 q 610 1109 710 1109 q 468 1155 517 1109 q 418 1285 418 1200 l 418 1288 m 227 1013 l 930 1013 l 892 815 l 449 815 l 412 627 l 829 627 l 790 429 l 374 429 l 329 197 l 786 197 l 749 0 l 29 0 l 227 1013 z "},"ĕ":{"ha":942,"x_min":50,"x_max":889,"o":"m 387 1089 l 483 1089 l 483 1083 q 512 1015 483 1039 q 595 991 541 991 q 686 1016 650 991 q 740 1089 721 1040 l 843 1089 q 750 940 820 992 q 575 888 681 888 q 432 930 480 888 q 385 1054 385 972 q 385 1075 385 1068 q 387 1089 385 1082 m 873 351 l 865 313 l 297 313 q 296 301 297 309 q 296 289 296 293 q 340 178 296 215 q 473 142 385 142 q 635 165 550 142 q 814 233 720 188 l 777 45 q 600 -4 688 12 q 421 -20 512 -20 q 147 62 243 -20 q 50 294 50 144 q 81 463 50 381 q 171 612 112 545 q 338 736 241 694 q 554 778 435 778 q 799 696 708 778 q 889 475 889 614 q 885 417 889 448 q 873 351 882 387 m 644 463 q 647 480 646 471 q 648 498 648 490 q 616 585 648 553 q 528 616 583 616 q 407 577 456 616 q 330 463 357 538 l 644 463 z "},"Ė":{"ha":949,"x_min":29,"x_max":930,"o":"m 549 1288 l 735 1288 l 703 1121 l 517 1121 l 549 1288 m 227 1013 l 930 1013 l 892 815 l 449 815 l 412 627 l 829 627 l 790 429 l 374 429 l 329 197 l 786 197 l 749 0 l 29 0 l 227 1013 z "},"ė":{"ha":942,"x_min":50,"x_max":889,"o":"m 493 1055 l 736 1055 l 698 857 l 455 857 l 493 1055 m 873 351 l 865 313 l 297 313 q 296 301 297 309 q 296 289 296 293 q 340 178 296 215 q 473 142 385 142 q 635 165 550 142 q 814 233 720 188 l 777 45 q 600 -4 688 12 q 421 -20 512 -20 q 147 62 243 -20 q 50 294 50 144 q 81 463 50 381 q 171 612 112 545 q 338 736 241 694 q 554 778 435 778 q 799 696 708 778 q 889 475 889 614 q 885 417 889 448 q 873 351 882 387 m 644 463 q 647 480 646 471 q 648 498 648 490 q 616 585 648 553 q 528 616 583 616 q 407 577 456 616 q 330 463 357 538 l 644 463 z "},"Ę":{"ha":949,"x_min":29,"x_max":930,"o":"m 564 0 l 661 0 q 595 -77 612 -50 q 577 -123 577 -104 q 594 -159 577 -146 q 641 -172 610 -172 q 694 -167 666 -172 q 751 -151 722 -161 l 731 -254 q 662 -268 692 -263 q 605 -272 631 -272 q 495 -249 533 -272 q 458 -180 458 -225 q 483 -94 458 -136 q 564 0 508 -51 m 227 1013 l 930 1013 l 892 815 l 449 815 l 412 627 l 829 627 l 790 429 l 374 429 l 329 197 l 786 197 l 749 0 l 29 0 l 227 1013 z "},"ę":{"ha":942,"x_min":50,"x_max":889,"o":"m 509 0 l 606 0 q 540 -77 557 -50 q 522 -123 522 -104 q 539 -159 522 -146 q 586 -172 555 -172 q 639 -167 611 -172 q 696 -151 667 -161 l 676 -254 q 607 -268 637 -263 q 550 -272 576 -272 q 440 -249 478 -272 q 403 -180 403 -225 q 428 -94 403 -136 q 509 0 453 -51 m 873 351 l 865 313 l 297 313 q 296 301 297 309 q 296 289 296 293 q 340 178 296 215 q 473 142 385 142 q 635 165 550 142 q 814 233 720 188 l 777 45 q 600 -4 688 12 q 421 -20 512 -20 q 147 62 243 -20 q 50 294 50 144 q 81 463 50 381 q 171 612 112 545 q 338 736 241 694 q 554 778 435 778 q 799 696 708 778 q 889 475 889 614 q 885 417 889 448 q 873 351 882 387 m 644 463 q 647 480 646 471 q 648 498 648 490 q 616 585 648 553 q 528 616 583 616 q 407 577 456 616 q 330 463 357 538 l 644 463 z "},"Ě":{"ha":949,"x_min":29,"x_max":930,"o":"m 227 1013 l 930 1013 l 892 815 l 449 815 l 412 627 l 829 627 l 790 429 l 374 429 l 329 197 l 786 197 l 749 0 l 29 0 l 227 1013 m 754 1109 l 517 1109 l 425 1288 l 541 1288 l 642 1178 l 798 1288 l 919 1288 l 754 1109 z "},"ě":{"ha":942,"x_min":50,"x_max":889,"o":"m 873 351 l 865 313 l 297 313 q 296 301 297 309 q 296 289 296 293 q 340 178 296 215 q 473 142 385 142 q 635 165 550 142 q 814 233 720 188 l 777 45 q 600 -4 688 12 q 421 -20 512 -20 q 147 62 243 -20 q 50 294 50 144 q 81 463 50 381 q 171 612 112 545 q 338 736 241 694 q 554 778 435 778 q 799 696 708 778 q 889 475 889 614 q 885 417 889 448 q 873 351 882 387 m 644 463 q 647 480 646 471 q 648 498 648 490 q 616 585 648 553 q 528 616 583 616 q 407 577 456 616 q 330 463 357 538 l 644 463 m 657 856 l 481 856 l 357 1111 l 476 1111 l 582 957 l 747 1111 l 880 1111 l 657 856 z "},"Ĝ":{"ha":1140,"x_min":50,"x_max":1080,"o":"m 645 1288 l 881 1288 l 984 1109 l 869 1109 l 758 1218 l 601 1109 l 479 1109 l 645 1288 m 946 75 q 741 4 847 27 q 513 -20 634 -20 q 174 90 297 -20 q 50 389 50 199 q 89 619 50 511 q 204 815 127 726 q 425 977 298 924 q 715 1031 552 1031 q 899 1012 806 1031 q 1080 956 991 993 l 1040 746 q 879 818 958 794 q 720 842 800 842 q 435 725 545 842 q 325 425 325 608 q 389 237 325 304 q 570 170 453 170 q 646 175 608 170 q 722 191 684 180 l 761 387 l 602 387 l 635 562 l 1040 562 l 946 75 z "},"ĝ":{"ha":994,"x_min":28,"x_max":947,"o":"m 519 1111 l 697 1111 l 821 856 l 700 856 l 594 1008 l 431 856 l 297 856 l 519 1111 m 581 129 q 462 31 522 62 q 330 0 401 0 q 126 83 201 0 q 52 310 52 166 q 78 464 52 387 q 153 608 104 541 q 290 733 212 690 q 456 777 367 777 q 590 745 536 777 q 682 647 645 714 l 703 760 l 947 760 l 819 100 q 651 -202 780 -104 q 293 -300 522 -300 q 157 -289 222 -300 q 28 -256 92 -278 l 64 -66 q 179 -121 121 -103 q 297 -139 237 -139 q 483 -87 418 -139 q 570 77 547 -36 l 581 129 m 513 602 q 364 521 423 602 q 304 318 304 440 q 336 213 304 249 q 429 176 368 176 q 578 257 518 176 q 637 457 637 337 q 606 565 637 528 q 513 602 574 602 z "},"Ğ":{"ha":1140,"x_min":50,"x_max":1080,"o":"m 946 75 q 741 4 847 27 q 513 -20 634 -20 q 174 90 297 -20 q 50 389 50 199 q 89 619 50 511 q 204 815 127 726 q 425 977 298 924 q 715 1031 552 1031 q 899 1012 806 1031 q 1080 956 991 993 l 1040 746 q 879 818 958 794 q 720 842 800 842 q 435 725 545 842 q 325 425 325 608 q 389 237 325 304 q 570 170 453 170 q 646 175 608 170 q 722 191 684 180 l 761 387 l 602 387 l 635 562 l 1040 562 l 946 75 m 489 1288 l 586 1288 q 620 1229 593 1247 q 701 1210 648 1210 q 786 1231 750 1210 q 838 1288 822 1251 l 941 1288 q 848 1155 915 1200 q 680 1109 781 1109 q 538 1155 588 1109 q 489 1285 489 1200 l 489 1288 z "},"ğ":{"ha":994,"x_min":28,"x_max":947,"o":"m 581 129 q 462 31 522 62 q 330 0 401 0 q 126 83 201 0 q 52 310 52 166 q 78 464 52 387 q 153 608 104 541 q 290 733 212 690 q 456 777 367 777 q 590 745 536 777 q 682 647 645 714 l 703 760 l 947 760 l 819 100 q 651 -202 780 -104 q 293 -300 522 -300 q 157 -289 222 -300 q 28 -256 92 -278 l 64 -66 q 179 -121 121 -103 q 297 -139 237 -139 q 483 -87 418 -139 q 570 77 547 -36 l 581 129 m 513 602 q 364 521 423 602 q 304 318 304 440 q 336 213 304 249 q 429 176 368 176 q 578 257 518 176 q 637 457 637 337 q 606 565 637 528 q 513 602 574 602 m 382 1089 l 479 1089 l 479 1083 q 508 1015 479 1039 q 591 991 537 991 q 682 1016 646 991 q 736 1089 717 1040 l 839 1089 q 746 940 816 992 q 571 888 677 888 q 428 930 476 888 q 380 1054 380 972 q 381 1075 380 1068 q 382 1089 381 1082 z "},"Ġ":{"ha":1140,"x_min":50,"x_max":1080,"o":"m 671 1288 l 857 1288 l 825 1121 l 639 1121 l 671 1288 m 946 75 q 741 4 847 27 q 513 -20 634 -20 q 174 90 297 -20 q 50 389 50 199 q 89 619 50 511 q 204 815 127 726 q 425 977 298 924 q 715 1031 552 1031 q 899 1012 806 1031 q 1080 956 991 993 l 1040 746 q 879 818 958 794 q 720 842 800 842 q 435 725 545 842 q 325 425 325 608 q 389 237 325 304 q 570 170 453 170 q 646 175 608 170 q 722 191 684 180 l 761 387 l 602 387 l 635 562 l 1040 562 l 946 75 z "},"ġ":{"ha":994,"x_min":28,"x_max":947,"o":"m 489 1055 l 732 1055 l 694 857 l 451 857 l 489 1055 m 581 129 q 462 31 522 62 q 330 0 401 0 q 126 83 201 0 q 52 310 52 166 q 78 464 52 387 q 153 608 104 541 q 290 733 212 690 q 456 777 367 777 q 590 745 536 777 q 682 647 645 714 l 703 760 l 947 760 l 819 100 q 651 -202 780 -104 q 293 -300 522 -300 q 157 -289 222 -300 q 28 -256 92 -278 l 64 -66 q 179 -121 121 -103 q 297 -139 237 -139 q 483 -87 418 -139 q 570 77 547 -36 l 581 129 m 513 602 q 364 521 423 602 q 304 318 304 440 q 336 213 304 249 q 429 176 368 176 q 578 257 518 176 q 637 457 637 337 q 606 565 637 528 q 513 602 574 602 z "},"Ģ":{"ha":1140,"x_min":50,"x_max":1080,"o":"m 416 -109 l 636 -109 l 446 -311 l 316 -311 l 416 -109 m 946 75 q 741 4 847 27 q 513 -20 634 -20 q 174 90 297 -20 q 50 389 50 199 q 89 619 50 511 q 204 815 127 726 q 425 977 298 924 q 715 1031 552 1031 q 899 1012 806 1031 q 1080 956 991 993 l 1040 746 q 879 818 958 794 q 720 842 800 842 q 435 725 545 842 q 325 425 325 608 q 389 237 325 304 q 570 170 453 170 q 646 175 608 170 q 722 191 684 180 l 761 387 l 602 387 l 635 562 l 1040 562 l 946 75 z "},"ģ":{"ha":994,"x_min":28,"x_max":947,"o":"m 676 861 l 456 861 l 646 1063 l 777 1063 l 676 861 m 581 129 q 462 31 522 62 q 330 0 401 0 q 126 83 201 0 q 52 310 52 166 q 78 464 52 387 q 153 608 104 541 q 290 733 212 690 q 456 777 367 777 q 590 745 536 777 q 682 647 645 714 l 703 760 l 947 760 l 819 100 q 651 -202 780 -104 q 293 -300 522 -300 q 157 -289 222 -300 q 28 -256 92 -278 l 64 -66 q 179 -121 121 -103 q 297 -139 237 -139 q 483 -87 418 -139 q 570 77 547 -36 l 581 129 m 513 602 q 364 521 423 602 q 304 318 304 440 q 336 213 304 249 q 429 176 368 176 q 578 257 518 176 q 637 457 637 337 q 606 565 637 528 q 513 602 574 602 z "},"Ĥ":{"ha":1162,"x_min":29,"x_max":1133,"o":"m 613 1288 l 849 1288 l 952 1109 l 837 1109 l 726 1218 l 569 1109 l 448 1109 l 613 1288 m 227 1013 l 488 1013 l 412 627 l 798 627 l 872 1013 l 1133 1013 l 936 0 l 675 0 l 758 429 l 374 429 l 290 0 l 29 0 l 227 1013 z "},"ĥ":{"ha":989,"x_min":43,"x_max":908,"o":"m 290 1288 l 526 1288 l 629 1109 l 513 1109 l 402 1218 l 245 1109 l 124 1109 l 290 1288 m 896 463 l 806 0 l 562 0 l 639 396 q 651 461 647 435 q 656 504 656 488 q 632 571 656 547 q 564 595 608 595 q 434 536 488 595 q 359 374 380 477 l 286 0 l 43 0 l 248 1055 l 492 1055 l 412 648 q 547 746 479 714 q 689 778 615 778 q 851 723 794 778 q 908 568 908 668 q 905 520 908 547 q 896 463 902 494 z "},"Ħ":{"ha":1352,"x_min":124,"x_max":1299,"o":"m 321 1013 l 582 1013 l 557 886 l 943 886 l 967 1013 l 1228 1013 l 1204 886 l 1299 886 l 1273 754 l 1178 754 l 1031 0 l 770 0 l 854 429 l 469 429 l 385 0 l 124 0 l 271 754 l 176 754 l 201 886 l 296 886 l 321 1013 m 532 754 l 507 627 l 892 627 l 917 754 l 532 754 z "},"ħ":{"ha":1097,"x_min":119,"x_max":983,"o":"m 972 463 l 882 0 l 638 0 l 707 353 q 728 490 726 449 q 730 509 730 500 q 724 545 730 532 q 693 582 715 568 q 640 595 671 595 q 509 536 564 595 q 434 374 454 477 l 361 0 l 119 0 l 284 851 l 176 851 l 201 983 l 309 983 l 323 1055 l 566 1055 l 552 983 l 798 983 l 773 851 l 527 851 l 488 648 q 623 746 555 715 q 765 778 690 778 q 949 697 897 778 q 983 564 983 646 q 972 463 983 518 z "},"Ĩ":{"ha":517,"x_min":29,"x_max":633,"o":"m 369 1143 l 336 1168 q 308 1186 319 1181 q 285 1190 297 1190 q 243 1168 260 1190 q 218 1109 225 1147 l 125 1109 q 187 1242 142 1196 q 296 1289 231 1289 q 343 1281 321 1289 q 389 1255 365 1273 l 425 1227 q 448 1213 435 1218 q 471 1208 460 1208 q 515 1229 497 1208 q 540 1289 533 1250 l 633 1289 q 571 1156 616 1202 q 464 1109 527 1109 q 416 1116 438 1109 q 369 1143 395 1124 m 227 1013 l 488 1013 l 290 0 l 29 0 l 227 1013 z "},"ĩ":{"ha":476,"x_min":43,"x_max":599,"o":"m 335 925 l 302 950 q 295 955 300 951 q 249 975 269 975 q 208 952 226 975 q 184 888 191 928 l 89 888 q 152 1030 107 981 q 260 1080 196 1080 q 307 1071 284 1080 q 355 1042 330 1062 l 391 1013 q 414 997 403 1002 q 436 991 426 991 q 479 1014 462 991 q 505 1079 497 1037 l 599 1079 q 537 937 581 987 q 429 886 493 886 q 386 894 406 886 q 335 925 366 902 m 191 760 l 435 760 l 286 0 l 43 0 l 191 760 z "},"Ī":{"ha":517,"x_min":29,"x_max":578,"o":"m 227 1013 l 488 1013 l 290 0 l 29 0 l 227 1013 m 151 1269 l 578 1269 l 553 1141 l 125 1141 l 151 1269 z "},"ī":{"ha":476,"x_min":43,"x_max":559,"o":"m 191 760 l 435 760 l 286 0 l 43 0 l 191 760 m 131 1060 l 559 1060 l 534 932 l 106 932 l 131 1060 z "},"Ĭ":{"ha":517,"x_min":29,"x_max":629,"o":"m 176 1288 l 273 1288 q 308 1229 280 1247 q 389 1210 335 1210 q 473 1231 437 1210 q 525 1288 509 1251 l 629 1288 q 535 1155 602 1200 q 368 1109 468 1109 q 226 1155 275 1109 q 176 1285 176 1200 l 176 1288 m 227 1013 l 488 1013 l 290 0 l 29 0 l 227 1013 z "},"ĭ":{"ha":476,"x_min":43,"x_max":593,"o":"m 137 1089 l 233 1089 l 233 1083 q 262 1015 233 1039 q 346 991 292 991 q 436 1016 401 991 q 490 1089 471 1040 l 593 1089 q 501 940 570 992 q 326 888 431 888 q 183 930 231 888 q 135 1054 135 972 q 135 1075 135 1068 q 137 1089 136 1082 m 191 760 l 435 760 l 286 0 l 43 0 l 191 760 z "},"Į":{"ha":517,"x_min":29,"x_max":488,"o":"m 227 1013 l 488 1013 l 290 0 l 29 0 l 227 1013 m 194 0 l 290 0 q 224 -77 242 -50 q 207 -123 207 -104 q 223 -159 207 -146 q 271 -172 240 -172 q 323 -167 296 -172 q 380 -151 351 -161 l 361 -254 q 292 -268 322 -263 q 235 -272 261 -272 q 125 -249 163 -272 q 87 -180 87 -225 q 113 -94 87 -136 q 194 0 138 -51 z "},"į":{"ha":476,"x_min":43,"x_max":492,"o":"m 190 0 l 286 0 q 220 -77 238 -50 q 203 -123 203 -104 q 219 -159 203 -146 q 267 -172 236 -172 q 319 -167 292 -172 q 376 -151 347 -161 l 357 -254 q 288 -268 318 -263 q 231 -272 257 -272 q 121 -249 159 -272 q 83 -180 83 -225 q 109 -94 83 -136 q 190 0 134 -51 m 191 760 l 435 760 l 286 0 l 43 0 l 191 760 m 248 1055 l 492 1055 l 453 857 l 208 857 l 248 1055 z "},"İ":{"ha":517,"x_min":29,"x_max":493,"o":"m 227 1013 l 488 1013 l 290 0 l 29 0 l 227 1013 m 307 1288 l 493 1288 l 461 1121 l 275 1121 l 307 1288 z "},"ı":{"ha":476,"x_min":43,"x_max":435,"o":"m 191 760 l 435 760 l 286 0 l 43 0 l 191 760 z "},"Ĳ":{"ha":1034,"x_min":29,"x_max":1004,"o":"m 227 1013 l 488 1013 l 290 0 l 29 0 l 227 1013 m 743 1013 l 1004 1013 l 826 98 q 672 -189 787 -100 q 338 -278 557 -278 l 286 -278 l 324 -81 l 365 -81 q 497 -35 446 -81 q 565 98 548 11 l 743 1013 z "},"ĳ":{"ha":952,"x_min":43,"x_max":968,"o":"m 191 760 l 435 760 l 286 0 l 43 0 l 191 760 m 248 1055 l 492 1055 l 453 857 l 208 857 l 248 1055 m 667 760 l 911 760 l 765 14 q 649 -223 734 -146 q 419 -300 564 -300 l 298 -300 l 329 -140 l 372 -140 q 472 -110 440 -140 q 521 14 503 -79 l 667 760 m 724 1055 l 968 1055 l 929 857 l 684 857 l 724 1055 z "},"Ĵ":{"ha":517,"x_min":-231,"x_max":629,"o":"m 290 1288 l 526 1288 l 629 1109 l 514 1109 l 403 1218 l 246 1109 l 125 1109 l 290 1288 m 227 1013 l 488 1013 l 310 98 q 156 -189 271 -100 q -178 -278 41 -278 l -231 -278 l -192 -81 l -151 -81 q -19 -35 -71 -81 q 49 98 32 11 l 227 1013 z "},"ĵ":{"ha":476,"x_min":-178,"x_max":594,"o":"m 293 1111 l 471 1111 l 594 856 l 473 856 l 368 1008 l 204 856 l 71 856 l 293 1111 m 191 760 l 435 760 l 289 14 q 173 -223 258 -146 q -57 -300 87 -300 l -178 -300 l -147 -140 l -104 -140 q -4 -110 -36 -140 q 45 14 27 -79 l 191 760 z "},"Ķ":{"ha":1076,"x_min":29,"x_max":1162,"o":"m 428 -89 l 648 -89 l 458 -291 l 328 -291 l 428 -89 m 227 1013 l 488 1013 l 416 648 l 847 1013 l 1162 1013 l 582 521 l 1019 0 l 713 0 l 372 422 l 290 0 l 29 0 l 227 1013 z "},"ķ":{"ha":924,"x_min":43,"x_max":994,"o":"m 361 -89 l 581 -89 l 391 -291 l 261 -291 l 361 -89 m 248 1055 l 492 1055 l 380 484 l 708 760 l 994 760 l 553 408 l 873 0 l 596 0 l 350 328 l 286 0 l 43 0 l 248 1055 z "},"ĸ":{"ha":924,"x_min":43,"x_max":995,"o":"m 191 760 l 433 760 l 379 481 l 713 760 l 995 760 l 556 411 l 876 0 l 582 0 l 347 317 l 286 0 l 43 0 l 191 760 z "},"Ĺ":{"ha":885,"x_min":29,"x_max":786,"o":"m 491 1289 l 681 1289 l 465 1109 l 324 1109 l 491 1289 m 227 1013 l 488 1013 l 329 197 l 786 197 l 749 0 l 29 0 l 227 1013 z "},"ĺ":{"ha":476,"x_min":43,"x_max":664,"o":"m 474 1289 l 664 1289 l 448 1109 l 307 1109 l 474 1289 m 248 1055 l 492 1055 l 286 0 l 43 0 l 248 1055 z "},"Ļ":{"ha":885,"x_min":29,"x_max":786,"o":"m 292 -89 l 512 -89 l 322 -291 l 192 -291 l 292 -89 m 227 1013 l 488 1013 l 329 197 l 786 197 l 749 0 l 29 0 l 227 1013 z "},"ļ":{"ha":476,"x_min":-33,"x_max":492,"o":"m 68 -89 l 288 -89 l 98 -291 l -33 -291 l 68 -89 m 248 1055 l 492 1055 l 286 0 l 43 0 l 248 1055 z "},"Ľ":{"ha":885,"x_min":29,"x_max":865,"o":"m 667 1012 l 865 1012 l 720 757 l 583 757 l 667 1012 m 227 1013 l 488 1013 l 329 197 l 786 197 l 749 0 l 29 0 l 227 1013 z "},"ľ":{"ha":476,"x_min":43,"x_max":808,"o":"m 609 1055 l 808 1055 l 662 800 l 526 800 l 609 1055 m 248 1055 l 492 1055 l 286 0 l 43 0 l 248 1055 z "},"Ŀ":{"ha":885,"x_min":29,"x_max":867,"o":"m 623 740 l 867 740 l 815 477 l 571 477 l 623 740 m 227 1013 l 488 1013 l 329 197 l 786 197 l 749 0 l 29 0 l 227 1013 z "},"ŀ":{"ha":476,"x_min":43,"x_max":770,"o":"m 526 744 l 770 744 l 719 481 l 475 481 l 526 744 m 248 1055 l 492 1055 l 286 0 l 43 0 l 248 1055 z "},"Ł":{"ha":917,"x_min":-32,"x_max":838,"o":"m 278 1013 l 539 1013 l 471 663 l 701 765 l 772 623 l 433 473 l 380 197 l 838 197 l 800 0 l 81 0 l 147 340 l 39 290 l -32 436 l 183 528 l 278 1013 z "},"ł":{"ha":521,"x_min":-9,"x_max":633,"o":"m 277 1055 l 521 1055 l 452 705 l 566 758 l 633 621 l 416 522 l 315 0 l 71 0 l 150 406 l 56 359 l -9 497 l 186 589 l 277 1055 z "},"Ń":{"ha":1162,"x_min":29,"x_max":1133,"o":"m 720 1289 l 910 1289 l 694 1109 l 553 1109 l 720 1289 m 227 1013 l 518 1013 l 750 311 l 886 1013 l 1133 1013 l 936 0 l 644 0 l 412 701 l 277 0 l 29 0 l 227 1013 z "},"ń":{"ha":989,"x_min":43,"x_max":908,"o":"m 659 1116 l 857 1116 l 560 861 l 424 861 l 659 1116 m 896 463 l 806 0 l 562 0 l 639 396 q 651 461 647 435 q 656 504 656 488 q 632 571 656 547 q 564 595 608 595 q 434 536 488 595 q 359 374 380 477 l 286 0 l 43 0 l 191 760 l 435 760 l 412 648 q 547 746 479 714 q 689 778 615 778 q 851 723 794 778 q 908 568 908 668 q 905 520 908 547 q 896 463 902 494 z "},"Ņ":{"ha":1162,"x_min":29,"x_max":1133,"o":"m 386 -89 l 606 -89 l 416 -291 l 286 -291 l 386 -89 m 227 1013 l 518 1013 l 750 311 l 886 1013 l 1133 1013 l 936 0 l 644 0 l 412 701 l 277 0 l 29 0 l 227 1013 z "},"ņ":{"ha":989,"x_min":43,"x_max":908,"o":"m 328 -89 l 547 -89 l 357 -291 l 227 -291 l 328 -89 m 896 463 l 806 0 l 562 0 l 639 396 q 651 461 647 435 q 656 504 656 488 q 632 571 656 547 q 564 595 608 595 q 434 536 488 595 q 359 374 380 477 l 286 0 l 43 0 l 191 760 l 435 760 l 412 648 q 547 746 479 714 q 689 778 615 778 q 851 723 794 778 q 908 568 908 668 q 905 520 908 547 q 896 463 902 494 z "},"Ň":{"ha":1162,"x_min":29,"x_max":1133,"o":"m 227 1013 l 518 1013 l 750 311 l 886 1013 l 1133 1013 l 936 0 l 644 0 l 412 701 l 277 0 l 29 0 l 227 1013 m 852 1109 l 615 1109 l 522 1288 l 639 1288 l 739 1178 l 896 1288 l 1017 1288 l 852 1109 z "},"ň":{"ha":989,"x_min":43,"x_max":908,"o":"m 896 463 l 806 0 l 562 0 l 639 396 q 651 461 647 435 q 656 504 656 488 q 632 571 656 547 q 564 595 608 595 q 434 536 488 595 q 359 374 380 477 l 286 0 l 43 0 l 191 760 l 435 760 l 412 648 q 547 746 479 714 q 689 778 615 778 q 851 723 794 778 q 908 568 908 668 q 905 520 908 547 q 896 463 902 494 m 657 856 l 481 856 l 357 1111 l 476 1111 l 582 957 l 747 1111 l 880 1111 l 657 856 z "},"ŉ":{"ha":1365,"x_min":85,"x_max":1265,"o":"m 237 1013 l 467 1013 l 430 819 l 229 581 l 85 581 l 199 819 l 237 1013 m 1253 463 l 1163 0 l 920 0 l 996 396 q 1009 461 1004 435 q 1013 504 1013 488 q 989 571 1013 547 q 921 595 965 595 q 792 536 846 595 q 717 374 738 477 l 644 0 l 400 0 l 548 760 l 792 760 l 770 648 q 905 746 837 714 q 1046 778 972 778 q 1208 723 1152 778 q 1265 568 1265 668 q 1262 520 1265 547 q 1253 463 1259 494 z "},"Ŋ":{"ha":1162,"x_min":43,"x_max":1077,"o":"m 960 98 q 817 -184 922 -103 q 487 -278 695 -278 l 434 -278 l 473 -81 l 513 -81 q 647 -34 595 -81 q 715 98 699 13 l 787 469 q 816 660 816 616 q 803 728 816 703 q 756 770 790 753 q 673 788 722 788 q 491 710 567 788 q 389 495 416 632 l 293 0 l 43 0 l 240 1013 l 492 1013 l 463 859 q 642 990 555 950 q 827 1031 729 1031 q 1041 924 981 1031 q 1076 777 1076 859 q 1061 612 1076 694 l 960 98 z "},"ŋ":{"ha":989,"x_min":70,"x_max":935,"o":"m 924 463 l 836 14 q 717 -220 807 -138 q 489 -300 628 -300 l 298 -300 l 329 -140 l 441 -140 q 543 -109 511 -140 q 592 14 574 -78 l 659 354 q 681 490 677 452 q 682 507 682 499 q 676 545 682 532 q 644 582 666 568 q 591 595 623 595 q 460 536 515 595 q 386 374 406 477 l 313 0 l 70 0 l 218 760 l 460 760 l 439 648 q 574 746 507 715 q 717 778 642 778 q 901 697 848 778 q 935 565 935 646 q 924 463 935 519 z "},"Ō":{"ha":1181,"x_min":50,"x_max":1131,"o":"m 854 597 q 801 779 854 717 q 644 842 747 842 q 417 720 509 842 q 325 415 325 598 q 378 234 325 298 q 528 170 432 170 q 666 202 606 170 q 770 300 727 235 q 832 439 810 361 q 854 597 854 516 m 682 1031 q 1007 919 884 1031 q 1131 625 1131 806 q 1093 392 1131 502 q 983 195 1055 282 q 775 34 895 87 q 497 -20 654 -20 q 173 92 296 -20 q 50 386 50 204 q 87 620 50 510 q 197 818 125 730 q 405 978 284 925 q 682 1031 525 1031 m 483 1269 l 911 1269 l 886 1141 l 458 1141 l 483 1269 z "},"ō":{"ha":954,"x_min":50,"x_max":904,"o":"m 521 604 q 366 519 427 604 q 304 301 304 433 q 337 192 304 229 q 433 154 370 154 q 589 240 528 154 q 650 458 650 326 q 617 567 650 530 q 521 604 584 604 m 541 778 q 807 692 710 778 q 904 457 904 606 q 873 290 904 371 q 785 142 843 209 q 621 21 715 62 q 411 -20 527 -20 q 147 66 243 -20 q 50 301 50 153 q 81 468 50 387 q 171 618 113 550 q 333 737 239 696 q 541 778 427 778 m 371 1060 l 799 1060 l 774 932 l 346 932 l 371 1060 z "},"Ŏ":{"ha":1181,"x_min":50,"x_max":1131,"o":"m 528 1288 l 625 1288 q 659 1229 631 1247 q 740 1210 686 1210 q 825 1231 789 1210 q 876 1288 861 1251 l 980 1288 q 886 1155 954 1200 q 719 1109 819 1109 q 577 1155 627 1109 q 528 1285 528 1200 l 528 1288 m 854 597 q 801 779 854 717 q 644 842 747 842 q 417 720 509 842 q 325 415 325 598 q 378 234 325 298 q 528 170 432 170 q 666 202 606 170 q 770 300 727 235 q 832 439 810 361 q 854 597 854 516 m 682 1031 q 1007 919 884 1031 q 1131 625 1131 806 q 1093 392 1131 502 q 983 195 1055 282 q 775 34 895 87 q 497 -20 654 -20 q 173 92 296 -20 q 50 386 50 204 q 87 620 50 510 q 197 818 125 730 q 405 978 284 925 q 682 1031 525 1031 z "},"ŏ":{"ha":954,"x_min":50,"x_max":904,"o":"m 363 1089 l 460 1089 l 460 1083 q 489 1015 460 1039 q 572 991 518 991 q 663 1016 627 991 q 717 1089 698 1040 l 820 1089 q 727 940 797 992 q 552 888 658 888 q 409 930 457 888 q 361 1054 361 972 q 362 1075 361 1068 q 363 1089 362 1082 m 521 604 q 366 519 427 604 q 304 301 304 433 q 337 192 304 229 q 433 154 370 154 q 589 240 528 154 q 650 458 650 326 q 617 567 650 530 q 521 604 584 604 m 541 778 q 807 692 710 778 q 904 457 904 606 q 873 290 904 371 q 785 142 843 209 q 621 21 715 62 q 411 -20 527 -20 q 147 66 243 -20 q 50 301 50 153 q 81 468 50 387 q 171 618 113 550 q 333 737 239 696 q 541 778 427 778 z "},"Ő":{"ha":1181,"x_min":50,"x_max":1131,"o":"m 941 1288 l 1131 1288 l 914 1109 l 774 1109 l 941 1288 m 625 1288 l 815 1288 l 599 1109 l 458 1109 l 625 1288 m 854 597 q 801 779 854 717 q 644 842 747 842 q 417 720 509 842 q 325 415 325 598 q 378 234 325 298 q 528 170 432 170 q 666 202 606 170 q 770 300 727 235 q 832 439 810 361 q 854 597 854 516 m 682 1031 q 1007 919 884 1031 q 1131 625 1131 806 q 1093 392 1131 502 q 983 195 1055 282 q 775 34 895 87 q 497 -20 654 -20 q 173 92 296 -20 q 50 386 50 204 q 87 620 50 510 q 197 818 125 730 q 405 978 284 925 q 682 1031 525 1031 z "},"ő":{"ha":954,"x_min":50,"x_max":913,"o":"m 489 1111 l 659 1111 l 448 856 l 330 856 l 489 1111 m 743 1111 l 913 1111 l 680 856 l 562 856 l 743 1111 m 521 604 q 366 519 427 604 q 304 301 304 433 q 337 192 304 229 q 433 154 370 154 q 589 240 528 154 q 650 458 650 326 q 617 567 650 530 q 521 604 584 604 m 541 778 q 807 692 710 778 q 904 457 904 606 q 873 290 904 371 q 785 142 843 209 q 621 21 715 62 q 411 -20 527 -20 q 147 66 243 -20 q 50 301 50 153 q 81 468 50 387 q 171 618 113 550 q 333 737 239 696 q 541 778 427 778 z "},"Œ":{"ha":1621,"x_min":58,"x_max":1603,"o":"m 860 815 l 789 815 q 623 799 694 815 q 501 750 553 783 q 378 615 425 700 q 332 439 332 530 q 413 256 332 315 q 668 197 495 197 l 741 197 l 860 815 m 838 1013 l 1603 1013 l 1564 815 l 1122 815 l 1084 627 l 1501 627 l 1463 429 l 1046 429 l 1002 197 l 1459 197 l 1421 0 l 635 0 l 597 0 q 199 102 340 0 q 58 390 58 205 q 138 693 58 554 q 359 916 218 833 q 553 989 446 965 q 799 1013 660 1013 l 838 1013 z "},"œ":{"ha":1520,"x_min":50,"x_max":1464,"o":"m 1219 463 q 1222 480 1221 471 q 1223 498 1223 490 q 1191 585 1223 553 q 1103 616 1158 616 q 980 577 1031 616 q 904 463 929 537 l 1219 463 m 1449 351 l 1440 313 l 872 313 q 871 301 872 309 q 871 289 871 293 q 915 178 871 215 q 1048 142 960 142 q 1210 165 1124 142 q 1389 233 1295 188 l 1352 45 q 1175 -4 1263 12 q 994 -20 1086 -20 q 821 7 889 -20 q 714 89 753 33 q 581 7 653 33 q 415 -20 508 -20 q 148 66 245 -20 q 50 301 50 152 q 81 469 50 387 q 170 618 112 551 q 333 738 238 697 q 545 778 428 778 q 708 750 640 778 q 821 668 777 723 q 962 750 884 723 q 1132 778 1039 778 q 1374 695 1283 778 q 1464 476 1464 612 q 1460 417 1464 449 q 1449 351 1456 386 m 521 604 q 366 519 427 604 q 304 301 304 433 q 337 192 304 229 q 433 154 370 154 q 589 240 528 154 q 650 458 650 326 q 617 567 650 530 q 521 604 584 604 z "},"Ŕ":{"ha":1069,"x_min":29,"x_max":951,"o":"m 696 1289 l 886 1289 l 669 1109 l 529 1109 l 696 1289 m 510 564 q 645 605 599 564 q 690 726 690 646 q 659 800 690 777 q 559 823 627 823 l 452 823 l 400 564 l 510 564 m 366 383 l 290 0 l 29 0 l 227 1013 l 612 1013 q 865 950 779 1013 q 951 766 951 888 q 884 564 951 644 q 700 473 816 485 q 788 419 753 463 q 850 288 823 376 l 936 0 l 676 0 l 600 252 q 544 355 577 327 q 449 383 511 383 l 366 383 z "},"ŕ":{"ha":685,"x_min":43,"x_max":858,"o":"m 659 1116 l 857 1116 l 560 861 l 424 861 l 659 1116 m 714 553 q 659 574 689 567 q 593 582 628 582 q 438 522 500 582 q 355 350 377 463 l 286 0 l 43 0 l 191 760 l 435 760 l 408 629 q 529 740 456 701 q 689 778 601 778 q 718 777 702 778 q 757 772 734 775 l 714 553 z "},"Ŗ":{"ha":1069,"x_min":29,"x_max":951,"o":"m 386 -89 l 606 -89 l 416 -291 l 286 -291 l 386 -89 m 510 564 q 645 605 599 564 q 690 726 690 646 q 659 800 690 777 q 559 823 627 823 l 452 823 l 400 564 l 510 564 m 366 383 l 290 0 l 29 0 l 227 1013 l 612 1013 q 865 950 779 1013 q 951 766 951 888 q 884 564 951 644 q 700 473 816 485 q 788 419 753 463 q 850 288 823 376 l 936 0 l 676 0 l 600 252 q 544 355 577 327 q 449 383 511 383 l 366 383 z "},"ŗ":{"ha":685,"x_min":-33,"x_max":757,"o":"m 68 -89 l 288 -89 l 98 -291 l -33 -291 l 68 -89 m 714 553 q 659 574 689 567 q 593 582 628 582 q 438 522 500 582 q 355 350 377 463 l 286 0 l 43 0 l 191 760 l 435 760 l 408 629 q 529 740 456 701 q 689 778 601 778 q 718 777 702 778 q 757 772 734 775 l 714 553 z "},"Ř":{"ha":1069,"x_min":29,"x_max":951,"o":"m 510 564 q 645 605 599 564 q 690 726 690 646 q 659 800 690 777 q 559 823 627 823 l 452 823 l 400 564 l 510 564 m 366 383 l 290 0 l 29 0 l 227 1013 l 612 1013 q 865 950 779 1013 q 951 766 951 888 q 884 564 951 644 q 700 473 816 485 q 788 419 753 463 q 850 288 823 376 l 936 0 l 676 0 l 600 252 q 544 355 577 327 q 449 383 511 383 l 366 383 m 726 1109 l 489 1109 l 396 1288 l 513 1288 l 613 1178 l 770 1288 l 890 1288 l 726 1109 z "},"ř":{"ha":685,"x_min":43,"x_max":836,"o":"m 714 553 q 659 574 689 567 q 593 582 628 582 q 438 522 500 582 q 355 350 377 463 l 286 0 l 43 0 l 191 760 l 435 760 l 408 629 q 529 740 456 701 q 689 778 601 778 q 718 777 702 778 q 757 772 734 775 l 714 553 m 612 856 l 436 856 l 312 1111 l 431 1111 l 537 957 l 703 1111 l 836 1111 l 612 856 z "},"Ś":{"ha":1000,"x_min":21,"x_max":924,"o":"m 696 1289 l 886 1289 l 669 1109 l 529 1109 l 696 1289 m 924 981 l 882 766 q 730 823 805 804 q 585 842 656 842 q 432 811 487 842 q 378 726 378 781 q 402 672 378 692 q 501 635 426 653 l 608 608 q 805 510 743 574 q 868 345 868 446 q 743 80 868 180 q 407 -20 618 -20 q 211 -1 309 -20 q 21 53 114 17 l 62 273 q 238 195 153 221 q 406 170 323 170 q 551 206 495 170 q 607 300 607 243 q 582 358 607 337 q 472 400 557 378 l 366 427 q 190 519 248 456 q 132 682 132 582 q 253 936 132 840 q 579 1031 374 1031 q 748 1018 661 1031 q 924 981 834 1006 z "},"ś":{"ha":827,"x_min":14,"x_max":858,"o":"m 659 1116 l 857 1116 l 560 861 l 424 861 l 659 1116 m 778 736 l 742 547 q 600 599 671 581 q 467 616 530 616 q 356 598 395 616 q 317 545 317 579 q 338 512 317 524 q 424 486 360 500 l 468 478 q 674 398 615 447 q 733 261 733 349 q 629 55 733 129 q 339 -20 526 -20 q 180 -7 261 -20 q 14 29 98 5 l 50 220 q 191 161 116 181 q 345 142 266 142 q 460 160 421 142 q 498 214 498 178 q 477 252 498 238 q 387 279 455 265 l 343 288 q 157 368 213 315 q 102 514 102 420 q 198 709 102 641 q 472 778 294 778 q 626 767 550 778 q 778 736 701 757 z "},"Ŝ":{"ha":1000,"x_min":21,"x_max":924,"o":"m 509 1288 l 745 1288 l 848 1109 l 732 1109 l 621 1218 l 465 1109 l 343 1109 l 509 1288 m 924 981 l 882 766 q 730 823 805 804 q 585 842 656 842 q 432 811 487 842 q 378 726 378 781 q 402 672 378 692 q 501 635 426 653 l 608 608 q 805 510 743 574 q 868 345 868 446 q 743 80 868 180 q 407 -20 618 -20 q 211 -1 309 -20 q 21 53 114 17 l 62 273 q 238 195 153 221 q 406 170 323 170 q 551 206 495 170 q 607 300 607 243 q 582 358 607 337 q 472 400 557 378 l 366 427 q 190 519 248 456 q 132 682 132 582 q 253 936 132 840 q 579 1031 374 1031 q 748 1018 661 1031 q 924 981 834 1006 z "},"ŝ":{"ha":827,"x_min":14,"x_max":778,"o":"m 449 1111 l 627 1111 l 750 856 l 629 856 l 524 1008 l 360 856 l 227 856 l 449 1111 m 778 736 l 742 547 q 600 599 671 581 q 467 616 530 616 q 356 598 395 616 q 317 545 317 579 q 338 512 317 524 q 424 486 360 500 l 468 478 q 674 398 615 447 q 733 261 733 349 q 629 55 733 129 q 339 -20 526 -20 q 180 -7 261 -20 q 14 29 98 5 l 50 220 q 191 161 116 181 q 345 142 266 142 q 460 160 421 142 q 498 214 498 178 q 477 252 498 238 q 387 279 455 265 l 343 288 q 157 368 213 315 q 102 514 102 420 q 198 709 102 641 q 472 778 294 778 q 626 767 550 778 q 778 736 701 757 z "},"Ş":{"ha":1000,"x_min":21,"x_max":924,"o":"m 924 981 l 882 766 q 730 823 805 804 q 585 842 656 842 q 432 811 487 842 q 378 726 378 781 q 402 672 378 692 q 501 635 426 653 l 608 608 q 805 510 743 574 q 868 345 868 446 q 743 80 868 180 q 407 -20 618 -20 q 211 -1 309 -20 q 21 53 114 17 l 62 273 q 238 195 153 221 q 406 170 323 170 q 551 206 495 170 q 607 300 607 243 q 582 358 607 337 q 472 400 557 378 l 366 427 q 190 519 248 456 q 132 682 132 582 q 253 936 132 840 q 579 1031 374 1031 q 748 1018 661 1031 q 924 981 834 1006 m 464 0 q 500 -65 489 -35 q 512 -123 512 -95 q 461 -233 512 -194 q 317 -272 410 -272 q 251 -268 283 -272 q 183 -254 218 -263 l 203 -149 q 257 -166 230 -160 q 311 -172 285 -172 q 381 -153 355 -172 q 407 -102 407 -134 q 398 -61 407 -84 q 368 0 389 -37 l 464 0 z "},"ş":{"ha":827,"x_min":14,"x_max":778,"o":"m 778 736 l 742 547 q 600 599 671 581 q 467 616 530 616 q 356 598 395 616 q 317 545 317 579 q 338 512 317 524 q 424 486 360 500 l 468 478 q 674 398 615 447 q 733 261 733 349 q 629 55 733 129 q 339 -20 526 -20 q 180 -7 261 -20 q 14 29 98 5 l 50 220 q 191 161 116 181 q 345 142 266 142 q 460 160 421 142 q 498 214 498 178 q 477 252 498 238 q 387 279 455 265 l 343 288 q 157 368 213 315 q 102 514 102 420 q 198 709 102 641 q 472 778 294 778 q 626 767 550 778 q 778 736 701 757 m 378 0 q 414 -65 403 -35 q 426 -123 426 -95 q 375 -233 426 -194 q 231 -272 323 -272 q 164 -268 197 -272 q 97 -254 132 -263 l 117 -149 q 171 -166 144 -160 q 224 -172 199 -172 q 295 -153 269 -172 q 321 -102 321 -134 q 312 -61 321 -84 q 281 0 302 -37 l 378 0 z "},"Š":{"ha":1000,"x_min":21,"x_max":924,"o":"m 924 981 l 882 766 q 730 823 805 804 q 585 842 656 842 q 432 811 487 842 q 378 726 378 781 q 402 672 378 692 q 501 635 426 653 l 608 608 q 805 510 743 574 q 868 345 868 446 q 743 80 868 180 q 407 -20 618 -20 q 211 -1 309 -20 q 21 53 114 17 l 62 273 q 238 195 153 221 q 406 170 323 170 q 551 206 495 170 q 607 300 607 243 q 582 358 607 337 q 472 400 557 378 l 366 427 q 190 519 248 456 q 132 682 132 582 q 253 936 132 840 q 579 1031 374 1031 q 748 1018 661 1031 q 924 981 834 1006 m 730 1109 l 493 1109 l 400 1288 l 517 1288 l 617 1178 l 774 1288 l 895 1288 l 730 1109 z "},"š":{"ha":827,"x_min":14,"x_max":800,"o":"m 778 736 l 742 547 q 600 599 671 581 q 467 616 530 616 q 356 598 395 616 q 317 545 317 579 q 338 512 317 524 q 424 486 360 500 l 468 478 q 674 398 615 447 q 733 261 733 349 q 629 55 733 129 q 339 -20 526 -20 q 180 -7 261 -20 q 14 29 98 5 l 50 220 q 191 161 116 181 q 345 142 266 142 q 460 160 421 142 q 498 214 498 178 q 477 252 498 238 q 387 279 455 265 l 343 288 q 157 368 213 315 q 102 514 102 420 q 198 709 102 641 q 472 778 294 778 q 626 767 550 778 q 778 736 701 757 m 576 856 l 400 856 l 276 1111 l 395 1111 l 501 957 l 667 1111 l 800 1111 l 576 856 z "},"Ţ":{"ha":947,"x_min":66,"x_max":1039,"o":"m 427 0 q 464 -65 452 -35 q 475 -123 475 -95 q 424 -233 475 -194 q 280 -272 373 -272 q 214 -268 247 -272 q 146 -254 181 -263 l 166 -149 q 221 -166 193 -160 q 274 -172 248 -172 q 345 -153 319 -172 q 370 -102 370 -134 q 361 -61 370 -84 q 331 0 352 -37 l 427 0 m 106 1013 l 1039 1013 l 1000 815 l 664 815 l 505 0 l 244 0 l 403 815 l 66 815 l 106 1013 z "},"ţ":{"ha":664,"x_min":60,"x_max":707,"o":"m 367 0 q 404 -65 392 -35 q 415 -123 415 -95 q 364 -233 415 -194 q 220 -272 313 -272 q 154 -268 186 -272 q 86 -254 121 -263 l 106 -149 q 160 -166 133 -160 q 214 -172 188 -172 q 284 -153 258 -172 q 310 -102 310 -134 q 301 -61 310 -84 q 271 0 292 -37 l 367 0 m 500 975 l 458 760 l 707 760 l 672 586 l 424 586 l 361 264 q 358 246 359 254 q 357 232 357 239 q 377 187 357 201 q 447 174 398 174 l 572 174 l 538 0 l 334 0 q 166 46 224 0 q 109 179 109 92 q 111 220 109 198 q 117 264 113 241 l 179 586 l 60 586 l 93 760 l 214 760 l 256 975 l 500 975 z "},"Ť":{"ha":947,"x_min":66,"x_max":1039,"o":"m 106 1013 l 1039 1013 l 1000 815 l 664 815 l 505 0 l 244 0 l 403 815 l 66 815 l 106 1013 m 713 1109 l 477 1109 l 384 1288 l 500 1288 l 601 1178 l 758 1288 l 878 1288 l 713 1109 z "},"ť":{"ha":664,"x_min":60,"x_max":854,"o":"m 500 975 l 458 760 l 707 760 l 672 586 l 424 586 l 361 264 q 358 246 359 254 q 357 232 357 239 q 377 187 357 201 q 447 174 398 174 l 572 174 l 538 0 l 334 0 q 166 46 224 0 q 109 179 109 92 q 111 220 109 198 q 117 264 113 241 l 179 586 l 60 586 l 93 760 l 214 760 l 256 975 l 500 975 m 655 1111 l 854 1111 l 708 856 l 572 856 l 655 1111 z "},"Ŧ":{"ha":947,"x_min":67,"x_max":1038,"o":"m 105 1013 l 1038 1013 l 1000 815 l 665 815 l 607 519 l 774 519 l 740 342 l 572 342 l 506 0 l 245 0 l 311 342 l 144 342 l 178 519 l 346 519 l 404 815 l 67 815 l 105 1013 z "},"ŧ":{"ha":664,"x_min":-15,"x_max":685,"o":"m 477 975 l 435 760 l 685 760 l 651 586 l 401 586 l 382 490 l 633 490 l 599 316 l 349 316 l 338 264 q 345 193 328 211 q 425 174 363 174 l 550 174 l 516 0 l 308 0 q 116 60 164 0 q 96 264 67 120 l 106 316 l -15 316 l 19 490 l 140 490 l 158 586 l 37 586 l 71 760 l 192 760 l 234 975 l 477 975 z "},"Ũ":{"ha":1128,"x_min":94,"x_max":1099,"o":"m 667 1143 l 633 1168 q 606 1186 617 1181 q 583 1190 595 1190 q 541 1168 558 1190 q 515 1109 523 1147 l 422 1109 q 485 1242 440 1196 q 593 1289 529 1289 q 641 1281 618 1289 q 686 1255 663 1273 l 722 1227 q 745 1213 733 1218 q 768 1208 758 1208 q 813 1229 795 1208 q 838 1289 831 1250 l 931 1289 q 869 1156 913 1202 q 762 1109 825 1109 q 714 1116 736 1109 q 667 1143 692 1124 m 227 1013 l 488 1013 l 370 406 q 360 349 363 374 q 357 304 357 323 q 392 205 357 238 q 498 172 428 172 q 644 225 593 172 q 720 406 695 279 l 838 1013 l 1099 1013 l 981 406 q 813 81 937 182 q 461 -20 690 -20 q 188 57 281 -20 q 94 281 94 134 q 98 335 94 305 q 109 406 101 366 l 227 1013 z "},"ũ":{"ha":989,"x_min":83,"x_max":946,"o":"m 578 925 l 545 950 q 538 955 543 951 q 492 975 512 975 q 451 952 469 975 q 427 888 433 928 l 332 888 q 394 1030 350 981 q 503 1080 439 1080 q 550 1071 527 1080 q 597 1042 572 1062 l 633 1013 q 657 997 646 1002 q 679 991 669 991 q 722 1014 705 991 q 747 1079 740 1037 l 842 1079 q 780 937 824 987 q 672 886 736 886 q 629 894 649 886 q 578 925 608 902 m 94 296 l 183 760 l 427 760 l 350 364 q 338 298 342 326 q 334 256 334 271 q 357 189 334 213 q 425 165 381 165 q 555 224 500 165 q 629 386 609 282 l 703 760 l 946 760 l 799 0 l 554 0 l 576 111 q 446 13 514 45 q 301 -20 377 -20 q 140 35 197 -20 q 83 191 83 90 q 86 241 83 214 q 94 296 89 267 z "},"Ū":{"ha":1128,"x_min":94,"x_max":1099,"o":"m 227 1013 l 488 1013 l 370 406 q 360 349 363 374 q 357 304 357 323 q 392 205 357 238 q 498 172 428 172 q 644 225 593 172 q 720 406 695 279 l 838 1013 l 1099 1013 l 981 406 q 813 81 937 182 q 461 -20 690 -20 q 188 57 281 -20 q 94 281 94 134 q 98 335 94 305 q 109 406 101 366 l 227 1013 m 457 1269 l 885 1269 l 860 1141 l 432 1141 l 457 1269 z "},"ū":{"ha":989,"x_min":83,"x_max":946,"o":"m 94 296 l 183 760 l 427 760 l 350 364 q 338 298 342 326 q 334 256 334 271 q 357 189 334 213 q 425 165 381 165 q 555 224 500 165 q 629 386 609 282 l 703 760 l 946 760 l 799 0 l 554 0 l 576 111 q 446 13 514 45 q 301 -20 377 -20 q 140 35 197 -20 q 83 191 83 90 q 86 241 83 214 q 94 296 89 267 m 383 1059 l 811 1059 l 786 932 l 358 932 l 383 1059 z "},"Ŭ":{"ha":1128,"x_min":94,"x_max":1099,"o":"m 474 1288 l 571 1288 q 605 1229 578 1247 q 686 1210 633 1210 q 771 1231 735 1210 q 823 1288 807 1251 l 926 1288 q 833 1155 900 1200 q 665 1109 766 1109 q 524 1155 573 1109 q 474 1285 474 1200 l 474 1288 m 227 1013 l 488 1013 l 370 406 q 360 349 363 374 q 357 304 357 323 q 392 205 357 238 q 498 172 428 172 q 644 225 593 172 q 720 406 695 279 l 838 1013 l 1099 1013 l 981 406 q 813 81 937 182 q 461 -20 690 -20 q 188 57 281 -20 q 94 281 94 134 q 98 335 94 305 q 109 406 101 366 l 227 1013 z "},"ŭ":{"ha":989,"x_min":83,"x_max":946,"o":"m 380 1089 l 476 1089 l 476 1083 q 505 1015 476 1039 q 589 991 534 991 q 679 1016 644 991 q 733 1089 714 1040 l 836 1089 q 744 940 813 992 q 568 888 674 888 q 426 930 473 888 q 378 1054 378 972 q 378 1075 378 1068 q 380 1089 378 1082 m 94 296 l 183 760 l 427 760 l 350 364 q 338 298 342 326 q 334 256 334 271 q 357 189 334 213 q 425 165 381 165 q 555 224 500 165 q 629 386 609 282 l 703 760 l 946 760 l 799 0 l 554 0 l 576 111 q 446 13 514 45 q 301 -20 377 -20 q 140 35 197 -20 q 83 191 83 90 q 86 241 83 214 q 94 296 89 267 z "},"Ů":{"ha":1128,"x_min":94,"x_max":1099,"o":"m 861 1090 q 805 952 861 1008 q 669 897 749 897 q 531 952 587 897 q 475 1090 475 1008 q 531 1227 475 1171 q 669 1282 587 1282 q 805 1227 749 1282 q 861 1090 861 1171 m 770 1090 q 741 1162 770 1134 q 669 1191 713 1191 q 595 1162 624 1191 q 567 1090 567 1134 q 596 1017 567 1046 q 669 988 625 988 q 741 1017 713 988 q 770 1090 770 1045 m 227 1013 l 488 1013 l 370 406 q 360 349 363 374 q 357 304 357 323 q 392 205 357 238 q 498 172 428 172 q 644 225 593 172 q 720 406 695 279 l 838 1013 l 1099 1013 l 981 406 q 813 81 937 182 q 461 -20 690 -20 q 188 57 281 -20 q 94 281 94 134 q 98 335 94 305 q 109 406 101 366 l 227 1013 z "},"ů":{"ha":989,"x_min":83,"x_max":946,"o":"m 94 296 l 183 760 l 427 760 l 350 364 q 338 298 342 326 q 334 256 334 271 q 357 189 334 213 q 425 165 381 165 q 555 224 500 165 q 629 386 609 282 l 703 760 l 946 760 l 799 0 l 554 0 l 576 111 q 446 13 514 45 q 301 -20 377 -20 q 140 35 197 -20 q 83 191 83 90 q 86 241 83 214 q 94 296 89 267 m 781 1020 q 725 883 781 939 q 588 827 669 827 q 451 883 507 827 q 395 1020 395 939 q 451 1157 395 1101 q 588 1213 507 1213 q 725 1157 669 1213 q 781 1020 781 1101 m 689 1020 q 661 1093 689 1064 q 588 1121 632 1121 q 515 1093 543 1121 q 486 1020 486 1064 q 515 947 486 976 q 588 918 544 918 q 661 947 632 918 q 689 1020 689 975 z "},"Ű":{"ha":1128,"x_min":94,"x_max":1099,"o":"m 887 1288 l 1077 1288 l 861 1109 l 720 1109 l 887 1288 m 572 1288 l 762 1288 l 545 1109 l 405 1109 l 572 1288 m 227 1013 l 488 1013 l 370 406 q 360 349 363 374 q 357 304 357 323 q 392 205 357 238 q 498 172 428 172 q 644 225 593 172 q 720 406 695 279 l 838 1013 l 1099 1013 l 981 406 q 813 81 937 182 q 461 -20 690 -20 q 188 57 281 -20 q 94 281 94 134 q 98 335 94 305 q 109 406 101 366 l 227 1013 z "},"ű":{"ha":989,"x_min":83,"x_max":946,"o":"m 505 1111 l 675 1111 l 464 856 l 346 856 l 505 1111 m 760 1111 l 929 1111 l 696 856 l 578 856 l 760 1111 m 94 296 l 183 760 l 427 760 l 350 364 q 338 298 342 326 q 334 256 334 271 q 357 189 334 213 q 425 165 381 165 q 555 224 500 165 q 629 386 609 282 l 703 760 l 946 760 l 799 0 l 554 0 l 576 111 q 446 13 514 45 q 301 -20 377 -20 q 140 35 197 -20 q 83 191 83 90 q 86 241 83 214 q 94 296 89 267 z "},"Ų":{"ha":1128,"x_min":94,"x_max":1099,"o":"m 227 1013 l 488 1013 l 370 406 q 360 349 363 374 q 357 304 357 323 q 392 205 357 238 q 498 172 428 172 q 644 225 593 172 q 720 406 695 279 l 838 1013 l 1099 1013 l 981 406 q 813 81 937 182 q 461 -20 690 -20 q 188 57 281 -20 q 94 281 94 134 q 98 335 94 305 q 109 406 101 366 l 227 1013 m 418 0 l 515 0 q 449 -77 467 -50 q 431 -123 431 -104 q 448 -159 431 -146 q 495 -172 465 -172 q 548 -167 520 -172 q 605 -151 576 -161 l 585 -254 q 516 -268 547 -263 q 459 -272 486 -272 q 350 -249 387 -272 q 312 -180 312 -225 q 337 -94 312 -136 q 418 0 362 -51 z "},"ų":{"ha":989,"x_min":83,"x_max":946,"o":"m 94 296 l 183 760 l 427 760 l 350 364 q 338 298 342 326 q 334 256 334 271 q 357 189 334 213 q 425 165 381 165 q 555 224 500 165 q 629 386 609 282 l 703 760 l 946 760 l 799 0 l 554 0 l 576 111 q 446 13 514 45 q 301 -20 377 -20 q 140 35 197 -20 q 83 191 83 90 q 86 241 83 214 q 94 296 89 267 m 700 0 l 796 0 q 730 -77 748 -50 q 713 -123 713 -104 q 729 -159 713 -146 q 777 -172 746 -172 q 829 -167 802 -172 q 886 -151 857 -161 l 867 -254 q 798 -268 828 -263 q 741 -272 767 -272 q 631 -249 669 -272 q 593 -180 593 -225 q 618 -94 593 -136 q 700 0 644 -51 z "},"Ŵ":{"ha":1532,"x_min":149,"x_max":1588,"o":"m 149 1013 l 390 1013 l 421 277 l 739 1013 l 987 1013 l 1021 277 l 1328 1013 l 1588 1013 l 1152 0 l 856 0 l 822 770 l 494 0 l 192 0 l 149 1013 m 801 1293 l 1037 1293 l 1140 1114 l 1025 1114 l 913 1223 l 757 1114 l 635 1114 l 801 1293 z "},"ŵ":{"ha":1283,"x_min":121,"x_max":1287,"o":"m 684 1111 l 862 1111 l 985 856 l 865 856 l 759 1008 l 595 856 l 462 856 l 684 1111 m 121 760 l 345 760 l 371 237 l 600 760 l 793 760 l 821 239 l 1048 760 l 1287 760 l 940 0 l 682 0 l 657 522 l 425 0 l 174 0 l 121 760 z "},"Ŷ":{"ha":1006,"x_min":87,"x_max":1124,"o":"m 87 1013 l 349 1013 l 521 637 l 822 1013 l 1124 1013 l 624 422 l 542 0 l 281 0 l 363 422 l 87 1013 m 536 1293 l 772 1293 l 876 1114 l 760 1114 l 649 1223 l 492 1114 l 371 1114 l 536 1293 z "},"ŷ":{"ha":905,"x_min":0,"x_max":954,"o":"m 503 1111 l 681 1111 l 804 856 l 684 856 l 578 1008 l 414 856 l 281 856 l 503 1111 m 92 760 l 321 760 l 425 233 l 694 760 l 954 760 l 473 -72 q 324 -256 393 -212 q 147 -300 256 -300 l 0 -300 l 25 -140 l 102 -140 q 194 -120 161 -140 q 253 -50 227 -100 l 275 -9 l 92 760 z "},"Ÿ":{"ha":1006,"x_min":87,"x_max":1124,"o":"m 87 1013 l 349 1013 l 521 637 l 822 1013 l 1124 1013 l 624 422 l 542 0 l 281 0 l 363 422 l 87 1013 m 429 1288 l 589 1288 l 557 1121 l 397 1121 l 429 1288 m 697 1288 l 859 1288 l 825 1121 l 665 1121 l 697 1288 z "},"Ź":{"ha":1007,"x_min":-36,"x_max":1028,"o":"m 696 1289 l 886 1289 l 669 1109 l 529 1109 l 696 1289 m 176 1013 l 1028 1013 l 996 851 l 339 197 l 885 197 l 846 0 l -36 0 l -5 161 l 653 815 l 138 815 l 176 1013 z "},"ź":{"ha":808,"x_min":-12,"x_max":858,"o":"m 659 1116 l 857 1116 l 560 861 l 424 861 l 659 1116 m 151 760 l 814 760 l 781 590 l 307 174 l 700 174 l 667 0 l -12 0 l 20 170 l 494 586 l 118 586 l 151 760 z "},"Ż":{"ha":1007,"x_min":-36,"x_max":1028,"o":"m 176 1013 l 1028 1013 l 996 851 l 339 197 l 885 197 l 846 0 l -36 0 l -5 161 l 653 815 l 138 815 l 176 1013 m 568 1276 l 754 1276 l 722 1109 l 536 1109 l 568 1276 z "},"ż":{"ha":808,"x_min":-12,"x_max":814,"o":"m 388 1055 l 631 1055 l 593 857 l 350 857 l 388 1055 m 151 760 l 814 760 l 781 590 l 307 174 l 700 174 l 667 0 l -12 0 l 20 170 l 494 586 l 118 586 l 151 760 z "},"Ž":{"ha":1007,"x_min":-36,"x_max":1028,"o":"m 176 1013 l 1028 1013 l 996 851 l 339 197 l 885 197 l 846 0 l -36 0 l -5 161 l 653 815 l 138 815 l 176 1013 m 734 1109 l 497 1109 l 404 1288 l 521 1288 l 621 1178 l 778 1288 l 899 1288 l 734 1109 z "},"ž":{"ha":808,"x_min":-12,"x_max":814,"o":"m 151 760 l 814 760 l 781 590 l 307 174 l 700 174 l 667 0 l -12 0 l 20 170 l 494 586 l 118 586 l 151 760 m 567 856 l 391 856 l 267 1111 l 386 1111 l 492 957 l 657 1111 l 790 1111 l 567 856 z "},"ſ":{"ha":604,"x_min":69,"x_max":750,"o":"m 319 0 l 75 0 l 189 586 l 69 586 l 103 760 l 222 760 l 233 812 q 338 997 258 939 q 564 1055 417 1055 l 750 1055 l 718 896 l 585 896 q 510 878 534 896 q 478 813 487 859 l 319 0 z "},"ƀ":{"ha":994,"x_min":16,"x_max":905,"o":"m 385 648 q 515 746 448 715 q 662 778 583 778 q 871 666 802 778 q 905 379 939 555 q 759 92 871 203 q 507 -20 647 -20 q 372 12 427 -20 q 280 110 317 43 l 259 0 l 16 0 l 179 839 l 75 839 l 102 978 l 206 978 l 221 1055 l 464 1055 l 449 978 l 671 978 l 644 839 l 422 839 l 385 648 m 342 214 q 450 157 372 157 q 581 214 528 157 q 654 379 633 271 q 645 545 675 488 q 537 602 615 602 q 406 544 459 602 q 332 379 353 487 q 342 214 311 271 z "},"Ɓ":{"ha":1126,"x_min":-51,"x_max":1034,"o":"m 623 621 q 722 648 685 621 q 769 728 759 675 q 753 807 779 780 q 665 835 726 835 l 520 835 l 479 621 l 623 621 m 546 178 q 671 211 625 178 q 730 311 717 244 q 709 410 743 377 q 597 443 677 443 l 444 443 l 393 178 l 546 178 m 859 542 q 972 452 939 517 q 987 290 1005 386 q 845 72 958 144 q 530 0 732 0 l 97 0 l 259 835 q 205 834 210 835 q 162 821 174 831 q 129 764 137 798 q 122 732 126 754 l -51 732 l -41 784 q 18 922 -23 878 q 60 958 34 938 q 215 1009 119 1000 q 294 1013 250 1013 l 686 1013 q 979 949 897 1013 q 1034 745 1061 885 q 975 618 1019 671 q 859 542 930 567 z "},"Ƃ":{"ha":1059,"x_min":29,"x_max":991,"o":"m 325 178 l 478 178 q 661 304 636 178 q 664 336 664 321 q 527 429 664 429 l 374 429 l 325 178 m 226 1013 l 991 1013 l 954 815 l 449 815 l 412 627 l 585 627 q 870 547 777 627 q 932 393 932 495 q 924 313 932 354 q 463 0 862 0 l 29 0 l 226 1013 z "},"ƃ":{"ha":994,"x_min":16,"x_max":919,"o":"m 385 648 q 515 746 448 715 q 662 778 583 778 q 871 666 802 778 q 905 379 939 555 q 759 92 871 203 q 507 -20 647 -20 q 372 12 427 -20 q 280 110 317 43 l 259 0 l 16 0 l 221 1055 l 919 1055 l 880 858 l 425 858 l 385 648 m 342 214 q 450 157 372 157 q 581 214 528 157 q 654 379 633 271 q 645 545 675 488 q 537 602 615 602 q 406 544 459 602 q 332 379 353 487 q 342 214 311 271 z "},"Ƅ":{"ha":1059,"x_min":84,"x_max":978,"o":"m 533 178 q 658 208 615 178 q 715 304 703 241 q 694 399 728 366 q 582 429 665 429 l 429 429 l 380 178 l 533 178 m 517 0 l 84 0 l 206 627 l 102 749 l 542 1013 l 467 627 l 640 627 q 925 547 831 627 q 978 313 1010 475 q 834 79 947 151 q 517 0 709 0 z "},"ƅ":{"ha":994,"x_min":52,"x_max":940,"o":"m 420 648 q 551 746 483 715 q 697 778 618 778 q 906 666 838 778 q 940 379 975 555 q 794 92 906 203 q 542 -20 682 -20 q 408 12 463 -20 q 315 110 353 43 l 294 0 l 52 0 l 173 627 l 80 749 l 499 1055 l 420 648 m 377 214 q 486 157 408 157 q 616 214 564 157 q 689 379 668 271 q 680 545 710 488 q 572 602 650 602 q 441 544 494 602 q 368 379 389 487 q 377 214 347 271 z "},"Ɔ":{"ha":1019,"x_min":-18,"x_max":937,"o":"m -18 56 l 24 265 q 155 193 89 216 q 296 170 220 170 q 558 290 452 170 q 664 592 664 411 q 599 775 664 709 q 419 842 534 842 q 274 817 351 842 q 101 739 197 792 l 146 964 q 326 1014 239 997 q 489 1031 412 1031 q 815 919 693 1031 q 937 623 937 807 q 899 394 937 501 q 785 197 860 286 q 571 37 696 93 q 301 -20 446 -20 q 143 -1 222 -20 q -18 56 64 18 z "},"Ƈ":{"ha":1019,"x_min":45,"x_max":1263,"o":"m 819 56 q 658 -1 739 18 q 491 -20 576 -20 q 118 122 238 -20 q 45 505 -3 263 q 267 890 92 748 q 695 1031 442 1031 q 759 1028 728 1031 q 880 1190 802 1129 q 1210 1283 1002 1283 l 1263 1283 l 1224 1086 l 1183 1086 q 1052 1040 1102 1086 q 984 907 1001 995 l 953 746 q 824 819 890 795 q 680 842 758 842 q 443 752 540 842 q 315 505 345 663 q 347 259 284 349 q 549 170 410 170 q 702 193 627 170 q 859 265 777 216 l 819 56 z "},"ƈ":{"ha":823,"x_min":37,"x_max":993,"o":"m 769 692 l 739 538 q 650 588 696 572 q 549 604 603 604 q 379 545 448 604 q 290 379 311 486 q 315 213 270 273 q 462 154 360 154 q 573 171 519 154 q 677 221 628 188 l 639 22 q 517 -9 578 1 q 397 -20 456 -20 q 96 85 192 -20 q 37 379 1 191 q 210 673 74 567 q 549 778 346 777 q 645 925 583 869 q 873 1006 734 1006 l 993 1006 l 962 846 l 920 846 q 819 815 850 846 q 769 692 787 784 z "},"Ɖ":{"ha":1174,"x_min":-3,"x_max":1116,"o":"m 472 815 l 433 612 l 600 612 l 566 436 l 399 436 l 351 197 l 444 197 q 735 300 628 197 q 842 576 842 403 q 771 755 842 694 q 564 815 701 815 l 472 815 m 249 1013 l 524 1013 q 819 989 720 1013 q 982 911 917 966 q 1082 777 1048 856 q 1116 600 1116 699 q 1058 342 1116 464 q 899 136 1001 220 q 691 31 809 62 q 326 0 572 0 l 52 0 l 136 436 l -3 436 l 32 612 l 171 612 l 249 1013 z "},"Ɗ":{"ha":1221,"x_min":-51,"x_max":1153,"o":"m 517 815 l 396 197 l 490 197 q 750 277 650 197 q 879 507 850 356 q 840 736 908 658 q 610 815 771 815 l 517 815 m 259 835 q 205 834 210 835 q 162 821 174 831 q 129 764 137 798 q 122 732 126 754 l -51 732 l -41 784 q 18 922 -23 878 q 60 958 34 938 q 215 1009 119 1000 q 294 1013 250 1013 l 569 1013 q 906 979 800 1013 q 1078 868 1012 947 q 1153 710 1136 799 q 1148 507 1171 621 q 1074 302 1126 393 q 937 144 1022 213 q 720 33 840 66 q 372 0 600 0 l 97 0 l 259 835 z "},"Ƌ":{"ha":1059,"x_min":90,"x_max":1059,"o":"m 483 178 l 636 178 l 685 429 l 532 429 q 407 399 449 429 q 349 304 361 366 q 370 208 337 241 q 483 178 401 178 m 429 0 q 144 79 237 0 q 90 313 58 151 q 235 547 121 475 q 551 627 359 627 l 723 627 l 760 815 l 323 815 l 361 1013 l 1059 1013 l 863 0 l 429 0 z "},"ƌ":{"ha":994,"x_min":35,"x_max":982,"o":"m 659 648 l 699 858 l 245 858 l 284 1055 l 982 1055 l 777 0 l 534 0 l 555 110 q 425 12 492 43 q 279 -20 358 -20 q 70 92 138 -20 q 35 379 1 203 q 182 666 70 555 q 434 778 294 778 q 568 746 513 778 q 659 648 621 716 m 403 157 q 533 214 481 157 q 606 379 585 271 q 597 545 627 488 q 490 602 568 602 q 360 545 412 602 q 287 379 308 488 q 296 214 266 271 q 403 157 326 157 z "},"ƍ":{"ha":954,"x_min":79,"x_max":920,"o":"m 110 -80 q 378 -127 184 -127 q 525 -78 515 -127 q 391 -11 534 -33 q 147 90 227 14 q 86 370 50 182 q 253 655 121 549 q 580 762 385 762 q 865 655 774 762 q 920 363 956 549 q 760 113 892 224 q 671 57 719 79 q 740 -104 761 3 q 346 -289 704 -289 q 79 -241 166 -289 l 110 -80 m 517 145 q 592 198 556 160 q 669 363 648 257 q 656 530 690 470 q 546 589 624 589 q 414 529 470 589 q 338 369 357 468 q 355 215 317 265 q 460 155 394 163 q 517 145 490 152 z "},"Ǝ":{"ha":949,"x_min":29,"x_max":945,"o":"m 945 1013 l 749 0 l 29 0 l 67 197 l 526 197 l 571 429 l 154 429 l 193 627 l 610 627 l 646 815 l 203 815 l 241 1013 l 945 1013 z "},"Ə":{"ha":1181,"x_min":50,"x_max":1137,"o":"m 853 562 q 833 725 869 660 q 593 842 768 842 q 425 818 513 842 q 235 746 337 794 l 277 956 q 481 1012 381 993 q 671 1031 581 1031 q 941 977 835 1031 q 1099 815 1047 924 q 1137 618 1141 726 q 1093 392 1134 512 q 983 195 1055 282 q 774 34 895 87 q 497 -20 654 -20 q 173 92 296 -20 q 50 386 43 211 q 71 562 54 476 l 853 562 m 815 387 l 326 387 q 378 234 332 290 q 528 170 432 170 q 666 202 606 170 q 770 300 727 235 q 815 387 796 340 z "},"Ɛ":{"ha":966,"x_min":51,"x_max":906,"o":"m 310 546 q 186 625 222 569 q 168 771 151 682 q 304 966 193 901 q 612 1031 415 1031 q 759 1020 686 1031 q 906 987 833 1009 l 869 796 q 749 838 810 824 q 624 852 687 852 q 486 821 538 852 q 421 730 433 789 q 452 636 409 667 q 592 606 494 606 l 702 606 l 669 437 l 564 437 q 391 401 454 437 q 313 297 327 366 q 349 194 300 230 q 500 158 397 158 q 646 176 570 158 q 803 232 722 195 l 764 31 q 602 -7 682 5 q 442 -20 520 -20 q 121 58 221 -20 q 51 288 21 137 q 136 454 70 389 q 310 546 202 519 z "},"Ƒ":{"ha":949,"x_min":-203,"x_max":958,"o":"m 75 98 l 253 1013 l 958 1013 l 919 815 l 475 815 l 439 627 l 856 627 l 818 429 l 401 429 l 336 98 q 178 -184 300 -91 q -151 -278 58 -278 l -203 -278 l -165 -81 l -124 -81 q 7 -35 -43 -81 q 75 98 58 10 z "},"ƒ":{"ha":604,"x_min":-210,"x_max":747,"o":"m 747 1055 l 716 896 l 582 896 q 507 878 530 896 q 473 812 482 859 l 463 760 l 671 760 l 637 586 l 429 586 l 307 -46 q 201 -229 282 -170 q -24 -289 121 -289 l -210 -289 l -179 -130 l -45 -130 q 31 -111 7 -130 q 64 -46 55 -92 l 186 586 l 66 586 l 100 760 l 220 760 l 231 812 q 336 996 255 937 q 562 1055 416 1055 l 747 1055 z "},"Ɠ":{"ha":1140,"x_min":45,"x_max":1333,"o":"m 930 75 q 713 4 823 28 q 491 -20 603 -20 q 118 122 238 -20 q 45 505 -3 263 q 270 890 92 750 q 709 1031 448 1031 q 827 1024 770 1031 q 950 1190 870 1128 q 1280 1283 1072 1283 l 1333 1283 l 1294 1086 l 1253 1086 q 1122 1040 1172 1086 q 1054 907 1071 995 l 1023 746 q 868 818 947 794 q 705 842 789 842 q 448 754 549 842 q 315 505 346 667 q 348 257 283 345 q 562 170 412 170 q 638 175 603 170 q 705 191 674 180 l 743 387 l 583 387 l 617 562 l 1024 562 l 930 75 z "},"Ɣ":{"ha":1101,"x_min":130,"x_max":1225,"o":"m 589 555 l 959 1013 l 1225 1013 l 680 337 l 706 275 q 774 67 765 134 q 783 -30 783 0 q 780 -77 783 -60 q 686 -237 761 -181 q 424 -292 612 -292 q 183 -237 237 -292 q 145 -133 145 -197 q 153 -71 145 -107 q 204 50 160 -35 q 361 275 248 134 l 412 337 l 130 1013 l 396 1013 l 589 555 m 490 102 q 395 -31 406 -3 q 380 -83 380 -72 q 395 -113 380 -94 q 455 -132 409 -132 q 526 -111 500 -132 q 552 -74 550 -90 q 554 -30 554 -58 q 511 102 554 -2 l 504 119 l 490 102 z "},"ƕ":{"ha":1451,"x_min":14,"x_max":1362,"o":"m 602 353 q 625 490 622 452 q 620 545 627 527 q 589 582 610 568 q 535 595 566 595 q 405 536 459 595 q 330 374 350 477 l 257 0 l 14 0 l 219 1055 l 462 1055 l 383 648 q 519 746 451 715 q 661 778 587 778 q 845 697 793 778 q 868 463 898 616 l 838 312 q 821 189 817 197 q 874 157 842 154 l 888 158 q 1037 224 968 158 q 1118 380 1100 283 q 1109 530 1133 452 q 1045 636 1093 587 l 1068 760 q 1220 730 1162 758 q 1279 696 1246 718 q 1335 626 1317 671 q 1356 566 1337 623 q 1362 386 1382 493 q 1204 107 1328 214 q 913 0 1078 0 l 821 -1 q 624 79 684 -3 q 594 312 565 160 l 602 353 z "},"Ɩ":{"ha":605,"x_min":102,"x_max":534,"o":"m 487 1013 l 363 376 q 379 243 347 288 q 493 197 412 197 l 534 197 l 496 0 l 443 0 q 150 94 235 0 q 102 376 66 187 l 226 1013 l 487 1013 z "},"Ɨ":{"ha":541,"x_min":-9,"x_max":551,"o":"m 235 1013 l 496 1013 l 415 597 l 551 597 l 517 421 l 381 421 l 299 0 l 38 0 l 120 421 l -9 421 l 24 597 l 154 597 l 235 1013 z "},"Ƙ":{"ha":1076,"x_min":27,"x_max":1148,"o":"m 885 784 l 584 533 l 1018 0 l 691 0 l 366 399 l 288 0 l 27 0 l 224 1013 l 485 1013 l 414 643 l 805 968 q 970 1031 881 1031 q 1111 968 1061 1031 q 1148 859 1148 920 q 1143 816 1148 838 l 1115 669 l 952 669 l 967 746 q 962 779 971 766 q 930 799 947 799 q 885 784 903 799 z "},"ƙ":{"ha":924,"x_min":14,"x_max":966,"o":"m 351 481 l 684 760 l 966 760 l 528 411 l 848 0 l 553 0 l 319 317 l 257 0 l 14 0 l 158 742 q 278 975 188 893 q 506 1055 367 1055 l 696 1055 l 666 896 l 553 896 q 452 865 485 896 q 401 742 419 833 l 351 481 z "},"ƚ":{"ha":500,"x_min":-14,"x_max":507,"o":"m 233 1055 l 476 1055 l 387 597 l 507 597 l 473 421 l 353 421 l 271 0 l 28 0 l 110 421 l -14 421 l 20 597 l 144 597 l 233 1055 z "},"ƛ":{"ha":822,"x_min":-61,"x_max":744,"o":"m -61 0 l 310 692 l 285 833 l 56 765 l 48 852 l 271 918 l 246 1055 l 489 1055 l 501 987 l 737 1054 l 744 966 l 517 901 l 678 0 l 435 0 l 373 349 l 182 0 l -61 0 z "},"Ɯ":{"ha":1447,"x_min":77,"x_max":1438,"o":"m 560 126 q 429 19 500 56 q 283 -18 359 -18 q 99 62 159 -18 q 77 297 45 135 l 216 1013 l 460 1013 l 334 363 q 329 345 331 355 q 323 318 327 336 q 324 201 308 237 q 394 165 341 165 q 512 222 463 165 q 583 387 560 279 l 705 1013 l 949 1013 l 823 363 q 812 201 798 237 q 883 165 827 165 q 1002 222 953 165 q 1072 386 1051 280 l 1194 1013 l 1438 1013 l 1241 0 l 997 0 l 1018 111 q 897 14 961 47 q 762 -18 832 -18 q 631 20 684 -18 q 560 126 578 58 z "},"Ɲ":{"ha":1162,"x_min":-203,"x_max":1160,"o":"m 75 98 l 253 1013 l 545 1013 l 778 318 l 913 1013 l 1160 1013 l 964 0 l 672 0 l 439 694 l 323 98 q 220 -146 291 -66 q 178 -184 201 -168 q -151 -278 58 -278 l -203 -278 l -165 -81 l -124 -81 q 7 -35 -43 -81 q 75 98 58 10 z "},"ƞ":{"ha":989,"x_min":69,"x_max":922,"o":"m 922 463 l 777 -289 l 532 -289 l 604 75 l 657 354 q 680 490 677 452 q 675 545 682 527 q 644 582 665 568 q 590 595 621 595 q 460 536 514 595 q 385 374 405 477 l 312 0 l 69 0 l 217 760 l 460 760 l 438 648 q 574 746 506 715 q 716 778 642 778 q 900 697 848 778 q 922 463 953 616 z "},"Ɵ":{"ha":1181,"x_min":50,"x_max":1131,"o":"m 682 1031 q 1007 919 884 1031 q 1131 625 1131 806 q 1093 392 1131 502 q 983 195 1055 282 q 775 34 895 87 q 497 -20 654 -20 q 173 92 296 -20 q 50 386 50 204 q 87 620 50 510 q 197 818 125 730 q 405 978 284 925 q 682 1031 525 1031 m 525 170 q 727 258 644 170 q 827 449 795 330 l 330 449 q 326 393 326 420 q 356 258 326 312 q 525 170 405 170 m 853 624 q 823 753 852 701 q 655 842 774 842 q 452 753 535 842 q 372 624 404 701 l 853 624 z "},"Ơ":{"ha":1181,"x_min":54,"x_max":1259,"o":"m 859 597 q 805 779 859 717 q 648 842 751 842 q 421 720 513 842 q 329 415 329 598 q 382 234 329 298 q 532 170 436 170 q 670 202 610 170 q 774 300 731 235 q 837 439 814 361 q 859 597 859 516 m 686 1031 q 1011 919 888 1031 q 1135 625 1135 806 q 1097 392 1135 502 q 987 195 1059 282 q 779 34 899 87 q 501 -20 659 -20 q 177 92 300 -20 q 54 386 54 204 q 92 620 54 510 q 201 818 129 730 q 409 978 288 925 q 686 1031 529 1031 m 960 841 l 979 937 q 1040 890 1017 903 q 1080 877 1062 877 q 1126 897 1106 877 q 1154 950 1147 917 q 1158 1003 1158 977 q 1153 1056 1158 1029 l 1259 1056 q 1256 987 1259 1019 q 1249 927 1254 955 q 1194 807 1234 849 q 1097 766 1155 766 q 1027 784 1061 766 q 960 841 994 802 z "},"ơ":{"ha":954,"x_min":55,"x_max":1070,"o":"m 526 604 q 370 519 431 604 q 309 301 309 433 q 342 192 309 229 q 438 154 375 154 q 593 240 532 154 q 654 458 654 326 q 622 567 654 530 q 526 604 589 604 m 545 778 q 812 692 715 778 q 909 457 909 606 q 878 290 909 371 q 789 142 848 209 q 626 21 720 62 q 416 -20 532 -20 q 152 66 248 -20 q 55 301 55 153 q 86 468 55 387 q 176 618 117 550 q 337 737 243 696 q 545 778 431 778 m 770 576 l 789 672 q 850 625 828 638 q 890 612 873 612 q 937 632 917 612 q 964 686 958 652 q 969 738 969 712 q 964 791 969 764 l 1069 791 q 1067 722 1069 754 q 1059 663 1065 690 q 1005 543 1044 585 q 907 501 966 501 q 838 519 871 501 q 770 576 804 538 z "},"Ƣ":{"ha":1547,"x_min":69,"x_max":1467,"o":"m 655 842 q 453 753 536 842 q 339 505 370 665 q 357 258 308 346 q 525 170 406 170 q 728 258 645 170 l 824 753 q 655 842 775 842 m 1082 0 l 1206 636 q 1190 770 1223 724 q 1076 815 1158 815 l 1033 815 l 898 120 q 488 -20 732 -20 q 133 120 244 -20 q 69 505 22 260 q 283 891 117 751 q 692 1031 449 1031 q 852 1013 781 1031 l 1126 1013 q 1419 919 1337 1013 q 1467 636 1503 824 l 1343 0 l 1082 0 z "},"ƣ":{"ha":1337,"x_min":87,"x_max":1237,"o":"m 549 604 q 415 547 469 604 q 340 379 361 488 q 350 212 319 270 q 462 154 381 154 q 594 212 541 154 l 659 547 q 549 604 629 604 m 850 -300 l 994 446 q 993 569 1013 538 q 904 600 973 600 l 854 600 l 755 86 q 428 -20 624 -20 q 141 86 231 -20 q 87 379 50 192 q 255 672 123 566 q 583 778 386 778 q 728 760 665 778 l 1013 760 q 1209 680 1152 760 q 1237 446 1267 599 l 1093 -300 l 850 -300 z "},"Ƥ":{"ha":1086,"x_min":-51,"x_max":1063,"o":"m 518 823 l 463 541 l 608 541 q 732 578 684 541 q 793 682 781 614 q 772 787 807 750 q 663 823 739 823 l 518 823 m 259 835 q 205 834 210 835 q 162 821 174 831 q 129 764 137 798 q 122 732 126 754 l -51 732 l -41 784 q 18 922 -23 878 q 60 958 34 938 q 215 1009 119 1000 q 294 1013 250 1013 l 727 1013 q 1007 926 920 1013 q 1063 682 1094 841 q 912 437 1032 523 q 599 351 792 351 l 427 351 l 358 0 l 97 0 l 259 835 z "},"ƥ":{"ha":994,"x_min":-14,"x_max":931,"o":"m 443 812 l 411 648 q 541 746 474 715 q 688 778 608 778 q 897 666 828 778 q 931 379 965 555 q 785 92 897 203 q 533 -20 673 -20 q 399 12 454 -20 q 307 110 344 43 l 229 -289 l -14 -289 l 200 812 q 305 996 222 926 q 531 1055 376 1055 l 717 1055 l 686 896 l 551 896 q 476 878 500 896 q 443 812 452 859 m 671 545 q 656 573 671 545 q 564 602 642 602 q 433 544 486 602 q 359 379 380 487 q 368 214 338 271 q 477 157 399 157 q 607 214 555 157 q 680 379 659 271 q 671 545 701 488 z "},"Ʀ":{"ha":1069,"x_min":48,"x_max":950,"o":"m 495 389 q 619 419 577 389 q 674 519 661 450 q 678 570 678 541 q 653 623 678 598 q 546 648 628 648 l 436 648 l 385 389 l 495 389 m 351 208 l 310 0 l 49 0 l 245 1013 l 507 1013 l 473 838 l 610 838 q 890 770 810 838 q 950 629 950 721 q 943 558 950 596 q 697 298 904 359 q 783 243 749 286 q 843 113 817 200 l 937 -203 l 659 -203 l 576 77 q 521 180 554 153 q 425 208 488 208 l 351 208 z "},"Ƨ":{"ha":1000,"x_min":-2,"x_max":876,"o":"m 195 981 q 385 1019 294 1006 q 559 1031 475 1031 q 823 949 742 1031 q 876 717 905 868 q 768 525 852 596 q 526 421 684 454 l 420 399 q 289 353 325 378 q 243 279 253 327 q 273 198 233 227 q 399 170 313 170 q 578 195 483 170 q 781 273 674 222 l 738 53 q 534 -1 634 17 q 336 -20 433 -20 q 49 62 132 -20 q -2 311 -35 144 q 108 508 23 439 q 368 611 193 577 l 484 633 q 600 673 566 650 q 643 736 635 695 q 614 816 654 790 q 480 842 574 842 q 327 823 410 842 q 153 766 243 804 l 195 981 z "},"ƨ":{"ha":827,"x_min":-9,"x_max":741,"o":"m 141 736 q 308 768 232 758 q 451 778 384 778 q 694 720 622 778 q 741 541 765 661 q 644 374 720 429 q 402 298 568 319 l 358 293 q 255 269 283 284 q 220 220 227 252 q 245 161 213 181 q 349 142 277 142 q 507 159 427 142 q 666 212 587 177 l 630 28 q 458 -8 541 4 q 300 -20 376 -20 q 45 41 123 -20 q -9 224 -33 102 q 88 394 14 340 q 355 472 163 448 l 398 478 q 494 501 466 486 q 528 546 522 517 q 505 600 535 582 q 406 616 475 616 q 265 600 341 616 q 105 551 190 584 l 141 736 z "},"Ʃ":{"ha":949,"x_min":29,"x_max":930,"o":"m 305 197 l 787 197 l 749 0 l 29 0 l 71 218 l 456 538 l 185 804 l 226 1013 l 930 1013 l 892 815 l 437 815 l 718 541 l 305 197 z "},"ƪ":{"ha":766,"x_min":47,"x_max":748,"o":"m 321 1054 l 398 1054 q 595 974 537 1054 q 632 800 643 907 q 748 800 711 800 l 720 656 l 606 656 l 467 -58 q 475 -123 458 -104 q 544 -142 492 -142 l 678 -142 l 647 -301 l 461 -301 q 258 -241 316 -301 q 224 -58 201 -182 l 363 656 l 222 657 q 47 844 14 658 q 278 1053 82 1036 l 278 1054 l 283 1054 l 321 1054 m 388 800 q 378 863 391 844 q 290 895 359 895 l 260 895 q 189 850 195 890 q 250 800 180 800 q 388 800 294 800 z "},"ƫ":{"ha":664,"x_min":66,"x_max":714,"o":"m 506 975 l 464 760 l 714 760 l 680 586 l 430 586 l 368 264 q 374 193 357 211 q 454 174 392 174 l 579 174 l 545 0 q 429 -220 514 -142 q 201 -300 340 -300 l 81 -300 l 113 -140 l 155 -140 q 256 -109 224 -140 q 302 1 286 -80 q 145 60 187 7 q 125 264 97 120 l 187 586 l 66 586 l 100 760 l 221 760 l 263 975 l 506 975 z "},"Ƭ":{"ha":981,"x_min":50,"x_max":1072,"o":"m 535 1013 l 1072 1013 l 1034 815 l 699 815 l 540 0 l 279 0 l 437 815 l 435 815 q 294 789 332 815 q 241 692 256 764 l 235 659 l 50 659 l 73 779 q 173 958 97 902 q 394 1013 249 1013 l 535 1013 z "},"ƭ":{"ha":664,"x_min":30,"x_max":711,"o":"m 437 812 l 427 760 l 677 760 l 644 586 l 393 586 l 330 264 q 338 193 320 211 q 418 174 355 174 l 543 174 l 509 0 l 300 0 q 108 60 157 0 q 87 264 60 120 l 151 586 l 30 586 l 63 760 l 184 760 l 195 812 q 299 996 216 926 q 525 1055 370 1055 l 711 1055 l 680 896 l 546 896 q 470 878 494 896 q 437 812 446 859 z "},"Ʈ":{"ha":947,"x_min":94,"x_max":1065,"o":"m 430 815 l 94 815 l 132 1013 l 1065 1013 l 1027 815 l 691 815 l 552 98 q 568 -35 535 10 q 682 -81 601 -81 l 723 -81 l 684 -278 l 631 -278 q 338 -184 423 -278 q 291 98 254 -91 l 430 815 z "},"Ư":{"ha":1128,"x_min":94,"x_max":1303,"o":"m 226 1013 l 487 1013 l 369 406 q 359 349 362 374 q 356 304 356 323 q 392 205 356 238 q 498 172 427 172 q 644 225 593 172 q 719 406 694 279 l 837 1013 l 1098 1013 l 980 406 q 813 81 936 182 q 460 -20 690 -20 q 187 57 281 -20 q 94 281 94 134 q 97 335 94 305 q 108 406 100 366 l 226 1013 m 1004 842 l 1023 938 q 1084 891 1061 904 q 1124 878 1106 878 q 1171 898 1150 878 q 1198 951 1191 918 q 1202 1004 1202 978 q 1197 1057 1202 1030 l 1303 1057 q 1300 988 1303 1020 q 1293 928 1298 956 q 1238 809 1278 850 q 1141 767 1199 767 q 1071 785 1105 767 q 1004 842 1038 804 z "},"ư":{"ha":989,"x_min":79,"x_max":1105,"o":"m 90 296 l 179 760 l 422 760 l 346 364 q 334 298 338 326 q 330 256 330 271 q 353 189 330 213 q 421 165 377 165 q 551 224 496 165 q 625 386 605 282 l 699 760 l 942 760 l 795 0 l 550 0 l 572 111 q 441 13 510 45 q 297 -20 373 -20 q 136 35 193 -20 q 79 191 79 90 q 82 241 79 214 q 90 296 85 267 m 805 576 l 824 672 q 885 625 863 638 q 925 612 907 612 q 972 632 951 612 q 999 686 992 652 q 1004 738 1004 712 q 998 791 1004 764 l 1104 791 q 1102 722 1104 754 q 1094 663 1099 690 q 1040 543 1079 585 q 942 501 1000 501 q 872 519 906 501 q 805 576 839 538 z "},"Ʊ":{"ha":1068,"x_min":58,"x_max":1129,"o":"m 898 830 q 990 654 967 748 q 991 448 1013 559 q 798 109 951 236 q 433 -20 646 -20 q 119 109 222 -20 q 58 448 17 236 q 139 654 79 559 q 300 830 199 748 l 103 830 l 137 1004 l 550 1004 l 511 806 q 353 659 415 749 q 269 458 290 569 q 296 241 242 320 q 469 162 349 162 q 674 241 589 162 q 785 458 758 320 q 779 659 806 570 q 677 806 751 748 l 716 1004 l 1129 1004 l 1095 830 l 898 830 z "},"Ʋ":{"ha":1130,"x_min":102,"x_max":1061,"o":"m 496 0 l 443 0 q 150 94 235 0 q 102 376 66 187 l 226 1013 l 487 1013 l 363 376 q 379 243 347 288 q 493 197 412 197 l 534 197 q 739 277 654 197 q 854 458 836 368 q 848 659 881 595 q 690 833 791 769 l 709 932 l 892 932 q 1059 654 1004 839 q 1061 448 1084 570 q 863 144 1027 277 q 496 0 686 0 z "},"Ƴ":{"ha":1107,"x_min":83,"x_max":1168,"o":"m 866 720 l 616 427 l 533 0 l 272 0 l 355 427 l 83 1013 l 368 1013 l 529 652 l 723 884 q 990 1031 846 1031 q 1131 968 1082 1031 q 1168 859 1168 920 q 1164 816 1168 838 l 1135 669 l 972 669 l 982 716 q 977 749 985 736 q 945 768 962 768 q 866 720 907 768 z "},"ƴ":{"ha":1081,"x_min":34,"x_max":1142,"o":"m 1120 438 l 955 438 l 962 479 q 962 520 967 501 q 943 551 956 540 q 910 562 929 562 q 874 551 892 562 q 844 520 854 538 q 831 500 838 510 l 500 -72 q 354 -250 427 -199 q 175 -300 280 -300 l 35 -300 l 65 -140 l 141 -140 q 235 -121 203 -140 q 292 -50 266 -102 l 303 -29 l 118 760 l 361 760 l 465 244 l 668 627 q 932 778 749 778 q 1052 744 1000 778 q 1127 652 1104 710 q 1141 574 1141 615 q 1137 524 1141 550 l 1120 438 z "},"Ƶ":{"ha":1007,"x_min":-36,"x_max":1027,"o":"m 176 1013 l 1027 1013 l 997 854 l 734 597 l 866 597 l 832 421 l 554 421 l 326 197 l 884 197 l 846 0 l -36 0 l -5 158 l 263 421 l 142 421 l 176 597 l 444 597 l 666 815 l 138 815 l 176 1013 z "},"ƶ":{"ha":808,"x_min":-12,"x_max":816,"o":"m 153 760 l 816 760 l 783 590 l 635 463 l 720 463 l 690 313 l 463 313 l 302 174 l 702 174 l 668 0 l -12 0 l 22 170 l 187 313 l 108 313 l 137 463 l 360 463 l 503 586 l 119 586 l 153 760 z "},"Ʒ":{"ha":1073,"x_min":28,"x_max":1032,"o":"m 464 132 q 633 168 570 132 q 708 271 695 204 q 672 376 722 340 q 511 412 622 412 l 385 412 l 417 578 l 670 815 l 165 815 l 203 1013 l 1032 1013 l 999 843 l 681 549 q 822 527 770 541 q 947 429 903 505 q 967 262 986 359 q 808 33 938 111 q 431 -45 677 -45 q 224 -25 326 -45 q 28 37 123 -4 l 66 234 q 262 158 163 184 q 464 132 362 132 z "},"Ƹ":{"ha":1073,"x_min":14,"x_max":1070,"o":"m 467 132 q 678 158 568 132 q 904 234 788 184 l 865 37 q 645 -25 755 -4 q 431 -45 536 -45 q 85 33 184 -45 q 14 262 -16 111 q 100 429 33 359 q 262 527 172 505 q 412 549 320 541 l 208 843 l 241 1013 l 1070 1013 l 1031 815 l 526 815 l 687 578 l 654 412 l 528 412 q 354 376 417 412 q 277 271 290 340 q 312 168 264 204 q 467 132 360 132 z "},"ƹ":{"ha":890,"x_min":8,"x_max":899,"o":"m 682 325 l 649 159 l 522 159 q 349 123 412 159 q 271 18 285 87 q 307 -85 258 -49 q 458 -121 355 -121 q 604 -102 528 -121 q 761 -47 680 -83 l 722 -248 q 559 -286 640 -273 q 400 -298 478 -298 q 79 -220 179 -298 q 8 9 -21 -142 q 94 175 27 106 q 256 274 167 252 q 429 296 318 290 l 203 590 l 236 760 l 899 760 l 865 586 l 481 586 l 682 325 z "},"ƺ":{"ha":808,"x_min":-16,"x_max":812,"o":"m 526 370 q 646 326 599 359 q 699 218 699 288 q 695 177 699 199 q 606 38 677 83 q 378 -24 537 -6 l 336 -29 q 239 -50 263 -37 q 207 -90 212 -62 q 206 -100 206 -95 q 232 -138 206 -125 q 331 -155 263 -155 q 481 -140 406 -155 q 630 -96 556 -125 l 601 -250 q 439 -279 510 -271 q 288 -289 360 -289 q 45 -238 121 -289 q -16 -126 -16 -198 q -12 -86 -16 -107 q 78 55 7 9 q 328 119 138 94 l 370 124 q 460 142 439 133 q 492 180 486 155 q 492 191 492 186 q 468 224 492 214 q 269 239 437 239 l 98 239 l 499 586 l 116 586 l 150 760 l 812 760 l 779 590 l 526 370 z "},"ƻ":{"ha":966,"x_min":9,"x_max":880,"o":"m 337 192 l 783 192 l 745 0 l 9 0 l 47 192 l 283 370 l 130 370 l 165 547 l 515 547 q 570 606 549 576 q 611 694 602 648 q 586 809 625 766 q 467 852 547 852 q 328 826 406 852 q 158 749 251 800 l 201 971 q 384 1016 295 1000 q 556 1031 473 1031 q 823 951 738 1031 q 880 728 908 871 q 808 574 864 645 q 784 547 798 561 l 802 547 l 768 370 l 575 370 l 337 192 z "},"Ƽ":{"ha":1073,"x_min":16,"x_max":967,"o":"m 113 412 l 146 578 l 231 1013 l 950 1013 l 911 815 l 453 815 l 407 578 l 555 578 q 835 537 728 578 q 947 429 907 510 q 967 262 985 351 q 808 33 938 111 q 431 -45 677 -45 q 85 33 172 -45 q 16 271 -14 121 l 277 271 q 312 168 264 204 q 464 132 360 132 q 633 168 570 132 q 708 271 695 204 q 672 376 722 340 q 511 412 622 412 l 374 412 l 113 412 z "},"ƽ":{"ha":890,"x_min":-41,"x_max":795,"o":"m 102 159 l 135 325 l 220 760 l 795 760 l 766 610 l 433 610 l 378 325 l 382 325 q 614 293 547 325 q 751 175 715 245 q 771 9 789 97 q 612 -220 742 -142 q 260 -298 481 -298 q 106 -286 182 -298 q -41 -248 31 -273 l -3 -47 q 132 -102 64 -83 q 271 -121 201 -121 q 437 -85 374 -121 q 512 18 499 -49 q 476 123 526 87 q 315 159 426 159 l 102 159 z "},"ƾ":{"ha":795,"x_min":-37,"x_max":706,"o":"m 196 535 l 236 743 l 130 743 l 155 875 l 262 875 l 281 975 l 524 975 l 505 875 l 680 875 l 654 743 l 479 743 l 470 698 q 650 613 593 677 q 706 358 736 515 q 570 122 677 212 q 237 -20 401 -20 q 62 -8 115 -20 q -37 27 9 3 l 2 229 q 99 186 49 200 q 204 171 150 171 q 408 248 326 171 q 469 358 456 293 q 449 458 478 406 q 259 535 406 535 l 196 535 z "},"ƿ":{"ha":994,"x_min":-17,"x_max":962,"o":"m 264 -90 l 226 -289 l -17 -289 l 187 760 l 430 760 l 408 648 q 545 748 481 723 q 748 778 621 778 l 753 778 q 929 702 890 778 q 962 576 962 640 q 956 522 962 549 q 264 -90 890 232 m 301 98 q 688 436 668 325 q 693 484 693 462 q 673 557 693 528 q 559 602 644 602 q 372 464 498 602 q 301 98 337 281 z "},"ǀ":{"ha":517,"x_min":1,"x_max":515,"o":"m 254 1013 l 515 1013 l 262 -289 l 1 -289 l 254 1013 z "},"ǁ":{"ha":915,"x_min":1,"x_max":913,"o":"m 652 1013 l 913 1013 l 660 -289 l 399 -289 l 652 1013 m 254 1013 l 515 1013 l 262 -289 l 1 -289 l 254 1013 z "},"ǂ":{"ha":755,"x_min":-32,"x_max":797,"o":"m 372 1013 l 633 1013 l 559 633 l 797 633 l 766 473 l 528 473 l 498 324 l 736 324 l 705 163 l 467 163 l 379 -289 l 118 -289 l 206 163 l -32 163 l -1 324 l 237 324 l 267 473 l 28 473 l 60 633 l 298 633 l 372 1013 z "},"ǃ":{"ha":517,"x_min":38,"x_max":480,"o":"m 235 1013 l 480 1013 l 404 624 l 315 340 l 140 340 l 159 624 l 235 1013 m 85 241 l 330 241 l 283 0 l 38 0 l 85 241 z "},"Ǆ":{"ha":2150,"x_min":29,"x_max":2181,"o":"m 1329 1013 l 2181 1013 l 2148 851 l 1492 197 l 2038 197 l 1999 0 l 1117 0 l 1147 161 l 1806 815 l 1291 815 l 1329 1013 m 1887 1109 l 1650 1109 l 1557 1288 l 1674 1288 l 1774 1178 l 1931 1288 l 2051 1288 l 1887 1109 m 450 815 l 329 197 l 422 197 q 711 300 605 197 q 818 576 818 402 q 748 755 818 694 q 542 815 679 815 l 450 815 m 227 1013 l 501 1013 q 796 989 698 1013 q 960 911 895 966 q 1059 778 1025 856 q 1092 600 1092 699 q 1035 341 1092 463 q 876 136 979 219 q 668 31 787 62 q 304 0 550 0 l 29 0 l 227 1013 z "},"ǅ":{"ha":2014,"x_min":29,"x_max":1967,"o":"m 1304 760 l 1967 760 l 1933 590 l 1460 174 l 1853 174 l 1820 0 l 1141 0 l 1173 170 l 1647 586 l 1271 586 l 1304 760 m 1720 856 l 1544 856 l 1419 1111 l 1539 1111 l 1645 957 l 1810 1111 l 1943 1111 l 1720 856 m 450 815 l 329 197 l 422 197 q 711 300 605 197 q 818 576 818 402 q 748 755 818 694 q 542 815 679 815 l 450 815 m 227 1013 l 501 1013 q 796 989 698 1013 q 960 911 895 966 q 1059 778 1025 856 q 1092 600 1092 699 q 1035 341 1092 463 q 876 136 979 219 q 668 31 787 62 q 304 0 550 0 l 29 0 l 227 1013 z "},"ǆ":{"ha":1815,"x_min":50,"x_max":1808,"o":"m 1145 760 l 1808 760 l 1775 590 l 1301 174 l 1694 174 l 1661 0 l 982 0 l 1014 170 l 1489 586 l 1112 586 l 1145 760 m 1561 856 l 1385 856 l 1261 1111 l 1380 1111 l 1486 957 l 1651 1111 l 1784 1111 l 1561 856 m 427 157 q 579 243 520 157 q 637 468 637 329 q 605 566 637 531 q 513 602 572 602 q 361 516 420 602 q 301 298 301 431 q 333 193 301 229 q 427 157 366 157 m 682 648 l 761 1055 l 1006 1055 l 800 0 l 555 0 l 578 110 q 461 12 522 43 q 328 -20 400 -20 q 125 62 199 -20 q 50 283 50 143 q 76 454 50 371 q 151 604 102 536 q 291 734 213 690 q 457 778 368 778 q 590 746 535 778 q 682 648 644 715 z "},"Ǉ":{"ha":1356,"x_min":29,"x_max":1373,"o":"m 1112 1013 l 1373 1013 l 1195 98 q 1041 -189 1156 -100 q 707 -278 926 -278 l 654 -278 l 693 -81 l 734 -81 q 866 -35 814 -81 q 934 98 917 11 l 1112 1013 m 227 1013 l 488 1013 l 329 197 l 786 197 l 749 0 l 29 0 l 227 1013 z "},"ǈ":{"ha":1360,"x_min":29,"x_max":1377,"o":"m 1076 760 l 1320 760 l 1174 14 q 1058 -223 1143 -146 q 828 -300 972 -300 l 707 -300 l 738 -140 l 781 -140 q 881 -110 849 -140 q 930 14 912 -79 l 1076 760 m 1133 1055 l 1377 1055 l 1338 857 l 1093 857 l 1133 1055 m 227 1013 l 488 1013 l 329 197 l 786 197 l 749 0 l 29 0 l 227 1013 z "},"ǉ":{"ha":930,"x_min":43,"x_max":968,"o":"m 667 760 l 911 760 l 765 14 q 649 -223 734 -146 q 419 -300 564 -300 l 298 -300 l 329 -140 l 372 -140 q 472 -110 440 -140 q 521 14 503 -79 l 667 760 m 724 1055 l 968 1055 l 929 857 l 684 857 l 724 1055 m 248 1055 l 492 1055 l 286 0 l 43 0 l 248 1055 z "},"Ǌ":{"ha":1657,"x_min":29,"x_max":1650,"o":"m 1389 1013 l 1650 1013 l 1472 98 q 1318 -189 1433 -100 q 985 -278 1203 -278 l 932 -278 l 970 -81 l 1011 -81 q 1143 -35 1092 -81 q 1211 98 1194 11 l 1389 1013 m 227 1013 l 518 1013 l 750 311 l 886 1013 l 1133 1013 l 936 0 l 644 0 l 412 701 l 277 0 l 29 0 l 227 1013 z "},"ǋ":{"ha":1685,"x_min":29,"x_max":1654,"o":"m 1353 760 l 1597 760 l 1451 14 q 1335 -223 1420 -146 q 1105 -300 1250 -300 l 985 -300 l 1015 -140 l 1058 -140 q 1158 -110 1126 -140 q 1207 14 1190 -79 l 1353 760 m 1410 1055 l 1654 1055 l 1615 857 l 1371 857 l 1410 1055 m 227 1013 l 518 1013 l 750 311 l 886 1013 l 1133 1013 l 936 0 l 644 0 l 412 701 l 277 0 l 29 0 l 227 1013 z "},"ǌ":{"ha":1477,"x_min":43,"x_max":1480,"o":"m 1179 760 l 1423 760 l 1278 14 q 1161 -223 1246 -146 q 932 -300 1076 -300 l 811 -300 l 842 -140 l 884 -140 q 984 -110 953 -140 q 1034 14 1016 -79 l 1179 760 m 1236 1055 l 1480 1055 l 1442 857 l 1197 857 l 1236 1055 m 896 463 l 806 0 l 562 0 l 639 396 q 651 461 647 435 q 656 504 656 488 q 632 571 656 547 q 564 595 608 595 q 434 536 488 595 q 359 374 380 477 l 286 0 l 43 0 l 191 760 l 435 760 l 412 648 q 547 746 479 714 q 689 778 615 778 q 851 723 794 778 q 908 568 908 668 q 905 520 908 547 q 896 463 902 494 z "},"Ǎ":{"ha":1075,"x_min":-90,"x_max":960,"o":"m 682 184 l 278 184 l 178 0 l -90 0 l 482 1013 l 781 1013 l 960 0 l 711 0 l 682 184 m 376 368 l 648 368 l 587 758 l 376 368 m 758 1109 l 521 1109 l 428 1288 l 545 1288 l 645 1178 l 802 1288 l 922 1288 l 758 1109 z "},"ǎ":{"ha":937,"x_min":24,"x_max":854,"o":"m 457 342 q 320 314 366 342 q 273 231 273 286 q 301 165 273 189 q 376 142 328 142 q 501 187 451 142 q 568 314 551 232 l 574 342 l 457 342 m 836 433 l 751 0 l 509 0 l 529 113 q 403 13 469 45 q 258 -20 336 -20 q 87 36 151 -20 q 24 187 24 92 q 136 409 24 332 q 460 486 248 486 l 603 486 l 606 505 q 608 519 608 515 q 608 526 608 523 q 566 594 608 571 q 440 616 524 616 q 294 601 365 616 q 158 554 224 585 l 195 739 q 350 768 271 758 q 515 778 430 778 q 766 720 684 778 q 848 543 848 662 q 845 493 848 520 q 836 433 842 465 m 631 856 l 455 856 l 331 1111 l 450 1111 l 556 957 l 722 1111 l 854 1111 l 631 856 z "},"Ǐ":{"ha":517,"x_min":29,"x_max":656,"o":"m 227 1013 l 488 1013 l 290 0 l 29 0 l 227 1013 m 492 1109 l 255 1109 l 162 1288 l 279 1288 l 379 1178 l 536 1288 l 656 1288 l 492 1109 z "},"ǐ":{"ha":476,"x_min":43,"x_max":634,"o":"m 191 760 l 435 760 l 286 0 l 43 0 l 191 760 m 411 856 l 235 856 l 111 1111 l 230 1111 l 336 957 l 501 1111 l 634 1111 l 411 856 z "},"Ǒ":{"ha":1181,"x_min":50,"x_max":1131,"o":"m 854 597 q 801 779 854 717 q 644 842 747 842 q 417 720 509 842 q 325 415 325 598 q 378 234 325 298 q 528 170 432 170 q 666 202 606 170 q 770 300 727 235 q 832 439 810 361 q 854 597 854 516 m 682 1031 q 1007 919 884 1031 q 1131 625 1131 806 q 1093 392 1131 502 q 983 195 1055 282 q 775 34 895 87 q 497 -20 654 -20 q 173 92 296 -20 q 50 386 50 204 q 87 620 50 510 q 197 818 125 730 q 405 978 284 925 q 682 1031 525 1031 m 829 1109 l 592 1109 l 499 1288 l 616 1288 l 716 1178 l 873 1288 l 994 1288 l 829 1109 z "},"ǒ":{"ha":954,"x_min":50,"x_max":904,"o":"m 521 604 q 366 519 427 604 q 304 301 304 433 q 337 192 304 229 q 433 154 370 154 q 589 240 528 154 q 650 458 650 326 q 617 567 650 530 q 521 604 584 604 m 541 778 q 807 692 710 778 q 904 457 904 606 q 873 290 904 371 q 785 142 843 209 q 621 21 715 62 q 411 -20 527 -20 q 147 66 243 -20 q 50 301 50 153 q 81 468 50 387 q 171 618 113 550 q 333 737 239 696 q 541 778 427 778 m 655 856 l 479 856 l 355 1111 l 474 1111 l 580 957 l 745 1111 l 878 1111 l 655 856 z "},"Ǔ":{"ha":1128,"x_min":94,"x_max":1099,"o":"m 227 1013 l 488 1013 l 370 406 q 360 349 363 374 q 357 304 357 323 q 392 205 357 238 q 498 172 428 172 q 644 225 593 172 q 720 406 695 279 l 838 1013 l 1099 1013 l 981 406 q 813 81 937 182 q 461 -20 690 -20 q 188 57 281 -20 q 94 281 94 134 q 98 335 94 305 q 109 406 101 366 l 227 1013 m 781 1109 l 545 1109 l 452 1288 l 568 1288 l 669 1178 l 825 1288 l 946 1288 l 781 1109 z "},"ǔ":{"ha":989,"x_min":83,"x_max":946,"o":"m 94 296 l 183 760 l 427 760 l 350 364 q 338 298 342 326 q 334 256 334 271 q 357 189 334 213 q 425 165 381 165 q 555 224 500 165 q 629 386 609 282 l 703 760 l 946 760 l 799 0 l 554 0 l 576 111 q 446 13 514 45 q 301 -20 377 -20 q 140 35 197 -20 q 83 191 83 90 q 86 241 83 214 q 94 296 89 267 m 655 856 l 479 856 l 355 1111 l 474 1111 l 580 957 l 745 1111 l 878 1111 l 655 856 z "},"Ǖ":{"ha":1128,"x_min":94,"x_max":1099,"o":"m 227 1013 l 488 1013 l 370 406 q 360 349 363 374 q 357 304 357 323 q 392 205 357 238 q 498 172 428 172 q 644 225 593 172 q 720 406 695 279 l 838 1013 l 1099 1013 l 981 406 q 813 81 937 182 q 461 -20 690 -20 q 188 57 281 -20 q 94 281 94 134 q 98 335 94 305 q 109 406 101 366 l 227 1013 z "},"ǖ":{"ha":989,"x_min":83,"x_max":946,"o":"m 94 296 l 183 760 l 427 760 l 350 364 q 338 298 342 326 q 334 256 334 271 q 357 189 334 213 q 425 165 381 165 q 555 224 500 165 q 629 386 609 282 l 703 760 l 946 760 l 799 0 l 554 0 l 576 111 q 446 13 514 45 q 301 -20 377 -20 q 140 35 197 -20 q 83 191 83 90 q 86 241 83 214 q 94 296 89 267 m 390 1075 l 551 1075 l 518 908 l 358 908 l 390 1075 m 660 1075 l 819 1075 l 786 908 l 627 908 l 660 1075 m 422 1269 l 850 1269 l 825 1141 l 397 1141 l 422 1269 z "},"Ǘ":{"ha":1128,"x_min":94,"x_max":1099,"o":"m 227 1013 l 488 1013 l 370 406 q 360 349 363 374 q 357 304 357 323 q 392 205 357 238 q 498 172 428 172 q 644 225 593 172 q 720 406 695 279 l 838 1013 l 1099 1013 l 981 406 q 813 81 937 182 q 461 -20 690 -20 q 188 57 281 -20 q 94 281 94 134 q 98 335 94 305 q 109 406 101 366 l 227 1013 z "},"ǘ":{"ha":989,"x_min":83,"x_max":946,"o":"m 94 296 l 183 760 l 427 760 l 350 364 q 338 298 342 326 q 334 256 334 271 q 357 189 334 213 q 425 165 381 165 q 555 224 500 165 q 629 386 609 282 l 703 760 l 946 760 l 799 0 l 554 0 l 576 111 q 446 13 514 45 q 301 -20 377 -20 q 140 35 197 -20 q 83 191 83 90 q 86 241 83 214 q 94 296 89 267 z "},"Ǚ":{"ha":1128,"x_min":94,"x_max":1099,"o":"m 227 1013 l 488 1013 l 370 406 q 360 349 363 374 q 357 304 357 323 q 392 205 357 238 q 498 172 428 172 q 644 225 593 172 q 720 406 695 279 l 838 1013 l 1099 1013 l 981 406 q 813 81 937 182 q 461 -20 690 -20 q 188 57 281 -20 q 94 281 94 134 q 98 335 94 305 q 109 406 101 366 l 227 1013 z "},"ǚ":{"ha":989,"x_min":83,"x_max":946,"o":"m 94 296 l 183 760 l 427 760 l 350 364 q 338 298 342 326 q 334 256 334 271 q 357 189 334 213 q 425 165 381 165 q 555 224 500 165 q 629 386 609 282 l 703 760 l 946 760 l 799 0 l 554 0 l 576 111 q 446 13 514 45 q 301 -20 377 -20 q 140 35 197 -20 q 83 191 83 90 q 86 241 83 214 q 94 296 89 267 z "},"Ǜ":{"ha":1128,"x_min":94,"x_max":1099,"o":"m 227 1013 l 488 1013 l 370 406 q 360 349 363 374 q 357 304 357 323 q 392 205 357 238 q 498 172 428 172 q 644 225 593 172 q 720 406 695 279 l 838 1013 l 1099 1013 l 981 406 q 813 81 937 182 q 461 -20 690 -20 q 188 57 281 -20 q 94 281 94 134 q 98 335 94 305 q 109 406 101 366 l 227 1013 z "},"ǜ":{"ha":989,"x_min":83,"x_max":946,"o":"m 94 296 l 183 760 l 427 760 l 350 364 q 338 298 342 326 q 334 256 334 271 q 357 189 334 213 q 425 165 381 165 q 555 224 500 165 q 629 386 609 282 l 703 760 l 946 760 l 799 0 l 554 0 l 576 111 q 446 13 514 45 q 301 -20 377 -20 q 140 35 197 -20 q 83 191 83 90 q 86 241 83 214 q 94 296 89 267 z "},"ǝ":{"ha":942,"x_min":59,"x_max":875,"o":"m 59 376 l 73 446 l 640 446 q 604 574 648 531 q 464 616 559 616 q 302 594 387 616 q 124 525 218 571 l 160 712 q 342 761 253 745 q 517 778 431 778 q 818 673 724 778 q 875 379 911 568 q 706 87 839 193 q 376 -20 573 -20 q 111 88 197 -20 q 59 376 24 196 m 293 296 q 312 184 279 227 q 409 142 344 142 q 531 182 479 142 q 608 296 583 221 l 293 296 z "},"Ǟ":{"ha":1075,"x_min":-90,"x_max":960,"o":"m 682 184 l 278 184 l 178 0 l -90 0 l 482 1013 l 781 1013 l 960 0 l 711 0 l 682 184 m 376 368 l 648 368 l 587 758 l 376 368 z "},"ǟ":{"ha":937,"x_min":24,"x_max":848,"o":"m 457 342 q 320 314 366 342 q 273 231 273 286 q 301 165 273 189 q 376 142 328 142 q 501 187 451 142 q 568 314 551 232 l 574 342 l 457 342 m 836 433 l 751 0 l 509 0 l 529 113 q 403 13 469 45 q 258 -20 336 -20 q 87 36 151 -20 q 24 187 24 92 q 136 409 24 332 q 460 486 248 486 l 603 486 l 606 505 q 608 519 608 515 q 608 526 608 523 q 566 594 608 571 q 440 616 524 616 q 294 601 365 616 q 158 554 224 585 l 195 739 q 350 768 271 758 q 515 778 430 778 q 766 720 684 778 q 848 543 848 662 q 845 493 848 520 q 836 433 842 465 m 365 1075 l 526 1075 l 493 908 l 333 908 l 365 1075 m 635 1075 l 794 1075 l 761 908 l 602 908 l 635 1075 m 384 1269 l 812 1269 l 787 1141 l 359 1141 l 384 1269 z "},"Ǡ":{"ha":1075,"x_min":-90,"x_max":960,"o":"m 682 184 l 278 184 l 178 0 l -90 0 l 482 1013 l 781 1013 l 960 0 l 711 0 l 682 184 m 376 368 l 648 368 l 587 758 l 376 368 z "},"ǡ":{"ha":937,"x_min":24,"x_max":861,"o":"m 457 342 q 320 314 366 342 q 273 231 273 286 q 301 165 273 189 q 376 142 328 142 q 501 187 451 142 q 568 314 551 232 l 574 342 l 457 342 m 836 433 l 751 0 l 509 0 l 529 113 q 403 13 469 45 q 258 -20 336 -20 q 87 36 151 -20 q 24 187 24 92 q 136 409 24 332 q 460 486 248 486 l 603 486 l 606 505 q 608 519 608 515 q 608 526 608 523 q 566 594 608 571 q 440 616 524 616 q 294 601 365 616 q 158 554 224 585 l 195 739 q 350 768 271 758 q 515 778 430 778 q 766 720 684 778 q 848 543 848 662 q 845 493 848 520 q 836 433 842 465 z "},"Ǣ":{"ha":1507,"x_min":-109,"x_max":1489,"o":"m 668 839 l 414 425 l 669 425 l 750 839 l 668 839 m 525 1013 l 1489 1013 l 1450 815 l 1007 815 l 971 627 l 1388 627 l 1349 429 l 932 429 l 888 197 l 1344 197 l 1307 0 l 587 0 l 633 237 l 300 237 l 153 0 l -109 0 l 525 1013 m 800 1269 l 1228 1269 l 1203 1141 l 775 1141 l 800 1269 z "},"ǣ":{"ha":1455,"x_min":24,"x_max":1400,"o":"m 457 342 q 320 314 366 342 q 273 231 273 286 q 301 165 273 189 q 376 142 328 142 q 501 187 451 142 q 568 314 551 232 l 574 342 l 457 342 m 197 739 q 352 768 277 758 q 498 778 428 778 q 666 753 600 778 q 771 676 732 728 q 908 753 836 728 q 1068 778 980 778 q 1310 695 1219 778 q 1400 476 1400 612 q 1396 414 1400 446 q 1386 351 1393 383 l 1377 313 l 810 313 q 809 301 810 309 q 808 289 808 293 q 853 178 808 215 q 986 142 897 142 q 1146 164 1062 142 q 1325 233 1231 187 l 1289 45 q 1112 -4 1200 12 q 932 -20 1023 -20 q 734 15 814 -20 q 610 121 654 50 q 447 15 530 50 q 269 -20 363 -20 q 89 35 154 -20 q 24 186 24 90 q 136 409 24 332 q 463 486 248 486 l 602 486 l 606 506 q 608 519 608 515 q 608 526 608 523 q 566 594 608 571 q 443 616 524 616 q 295 601 366 616 q 161 554 225 585 l 197 739 m 1157 463 q 1160 480 1159 471 q 1161 498 1161 490 q 1128 585 1161 553 q 1040 616 1095 616 q 919 577 969 616 q 843 463 868 538 l 1157 463 m 602 1053 l 1030 1053 l 1005 926 l 577 926 l 602 1053 z "},"Ǥ":{"ha":1140,"x_min":50,"x_max":1080,"o":"m 981 259 l 946 75 q 741 4 847 27 q 513 -20 634 -20 q 174 90 297 -20 q 50 389 50 199 q 89 618 50 511 q 204 815 127 726 q 425 977 298 924 q 715 1031 552 1031 q 899 1012 806 1031 q 1080 956 991 993 l 1040 746 q 879 818 958 794 q 720 842 800 842 q 435 725 545 842 q 325 425 325 608 q 389 237 325 304 q 570 170 453 170 q 646 175 608 170 q 722 191 684 180 l 736 259 l 657 259 l 666 318 l 747 318 l 761 387 l 602 387 l 635 562 l 1040 562 l 993 318 l 1076 318 l 1067 259 l 981 259 z "},"ǥ":{"ha":994,"x_min":28,"x_max":947,"o":"m 513 602 q 363 521 423 602 q 304 318 304 440 q 336 213 304 249 q 429 176 368 176 q 578 256 518 176 q 637 457 637 337 q 606 564 637 528 q 513 602 574 602 m 532 -30 q 570 77 557 14 l 581 129 q 462 31 522 62 q 330 0 401 0 q 126 83 201 0 q 52 310 52 166 q 77 464 52 387 q 153 608 104 541 q 290 734 212 690 q 456 777 367 777 q 590 745 536 777 q 682 647 645 714 l 703 760 l 947 760 l 819 100 q 781 -30 806 28 l 889 -30 l 874 -90 l 750 -90 q 651 -202 710 -157 q 293 -300 522 -300 q 157 -289 222 -300 q 28 -256 92 -278 l 64 -66 q 179 -121 121 -103 q 297 -139 237 -139 q 479 -90 414 -139 l 191 -90 l 206 -30 l 532 -30 z "},"Ǧ":{"ha":1140,"x_min":50,"x_max":1080,"o":"m 946 75 q 741 4 847 27 q 513 -20 634 -20 q 174 90 297 -20 q 50 389 50 199 q 89 619 50 511 q 204 815 127 726 q 425 977 298 924 q 715 1031 552 1031 q 899 1012 806 1031 q 1080 956 991 993 l 1040 746 q 879 818 958 794 q 720 842 800 842 q 435 725 545 842 q 325 425 325 608 q 389 237 325 304 q 570 170 453 170 q 646 175 608 170 q 722 191 684 180 l 761 387 l 602 387 l 635 562 l 1040 562 l 946 75 m 852 1109 l 616 1109 l 523 1288 l 640 1288 l 740 1178 l 897 1288 l 1017 1288 l 852 1109 z "},"ǧ":{"ha":994,"x_min":28,"x_max":947,"o":"m 674 854 l 498 854 l 374 1109 l 493 1109 l 599 956 l 764 1109 l 897 1109 l 674 854 m 581 129 q 462 31 522 62 q 330 0 401 0 q 126 83 201 0 q 52 310 52 166 q 78 464 52 387 q 153 608 104 541 q 290 733 212 690 q 456 777 367 777 q 590 745 536 777 q 682 647 645 714 l 703 760 l 947 760 l 819 100 q 651 -202 780 -104 q 293 -300 522 -300 q 157 -289 222 -300 q 28 -256 92 -278 l 64 -66 q 179 -121 121 -103 q 297 -139 237 -139 q 483 -87 418 -139 q 570 77 547 -36 l 581 129 m 513 602 q 364 521 423 602 q 304 318 304 440 q 336 213 304 249 q 429 176 368 176 q 578 257 518 176 q 637 457 637 337 q 606 565 637 528 q 513 602 574 602 z "},"Ǩ":{"ha":1076,"x_min":29,"x_max":1162,"o":"m 227 1013 l 488 1013 l 416 648 l 847 1013 l 1162 1013 l 582 521 l 1019 0 l 713 0 l 372 422 l 290 0 l 29 0 l 227 1013 m 509 1107 l 273 1107 l 180 1286 l 296 1286 l 397 1177 l 553 1286 l 674 1286 l 509 1107 z "},"ǩ":{"ha":924,"x_min":43,"x_max":994,"o":"m 248 1055 l 492 1055 l 380 484 l 708 760 l 994 760 l 553 408 l 873 0 l 596 0 l 350 328 l 286 0 l 43 0 l 248 1055 m 517 1107 l 281 1107 l 188 1286 l 304 1286 l 405 1177 l 562 1286 l 682 1286 l 517 1107 z "},"Ǫ":{"ha":1181,"x_min":50,"x_max":1131,"o":"m 854 597 q 801 779 854 717 q 644 842 747 842 q 417 720 509 842 q 325 415 325 598 q 378 234 325 298 q 528 170 432 170 q 666 202 606 170 q 770 300 727 235 q 832 439 810 361 q 854 597 854 516 m 682 1031 q 1007 919 884 1031 q 1131 625 1131 806 q 1093 392 1131 502 q 983 195 1055 282 q 775 34 895 87 q 497 -20 654 -20 q 173 92 296 -20 q 50 386 50 204 q 87 620 50 510 q 197 818 125 730 q 405 978 284 925 q 682 1031 525 1031 m 444 0 l 540 0 q 474 -77 492 -50 q 456 -123 456 -104 q 473 -159 456 -146 q 520 -172 490 -172 q 573 -167 545 -172 q 630 -151 601 -161 l 610 -254 q 541 -268 572 -263 q 484 -272 511 -272 q 375 -249 412 -272 q 337 -180 337 -225 q 362 -94 337 -136 q 444 0 387 -51 z "},"ǫ":{"ha":954,"x_min":50,"x_max":904,"o":"m 521 604 q 366 519 427 604 q 304 301 304 433 q 337 192 304 229 q 433 154 370 154 q 589 240 528 154 q 650 458 650 326 q 617 567 650 530 q 521 604 584 604 m 541 778 q 807 692 710 778 q 904 457 904 606 q 873 290 904 371 q 785 142 843 209 q 621 21 715 62 q 411 -20 527 -20 q 147 66 243 -20 q 50 301 50 153 q 81 468 50 387 q 171 618 113 550 q 333 737 239 696 q 541 778 427 778 m 356 0 l 452 0 q 387 -77 404 -50 q 369 -123 369 -104 q 386 -159 369 -146 q 433 -172 402 -172 q 486 -167 458 -172 q 543 -151 513 -161 l 523 -254 q 454 -268 484 -263 q 397 -272 423 -272 q 287 -249 325 -272 q 250 -180 250 -225 q 275 -94 250 -136 q 356 0 300 -51 z "},"Ǭ":{"ha":1181,"x_min":50,"x_max":1131,"o":"m 854 597 q 801 779 854 717 q 644 842 747 842 q 417 720 509 842 q 325 415 325 598 q 378 234 325 298 q 528 170 432 170 q 666 202 606 170 q 770 300 727 235 q 832 439 810 361 q 854 597 854 516 m 682 1031 q 1007 919 884 1031 q 1131 625 1131 806 q 1093 392 1131 502 q 983 195 1055 282 q 775 34 895 87 q 497 -20 654 -20 q 173 92 296 -20 q 50 386 50 204 q 87 620 50 510 q 197 818 125 730 q 405 978 284 925 q 682 1031 525 1031 m 444 0 l 540 0 q 474 -77 492 -50 q 456 -123 456 -104 q 473 -159 456 -146 q 520 -172 490 -172 q 573 -167 545 -172 q 630 -151 601 -161 l 610 -254 q 541 -268 572 -263 q 484 -272 511 -272 q 375 -249 412 -272 q 337 -180 337 -225 q 362 -94 337 -136 q 444 0 387 -51 m 483 1269 l 911 1269 l 886 1141 l 458 1141 l 483 1269 z "},"ǭ":{"ha":954,"x_min":50,"x_max":904,"o":"m 521 604 q 366 519 427 604 q 304 301 304 433 q 337 192 304 229 q 433 154 370 154 q 589 240 528 154 q 650 458 650 326 q 617 567 650 530 q 521 604 584 604 m 541 778 q 807 692 710 778 q 904 457 904 606 q 873 290 904 371 q 785 142 843 209 q 621 21 715 62 q 411 -20 527 -20 q 147 66 243 -20 q 50 301 50 153 q 81 468 50 387 q 171 618 113 550 q 333 737 239 696 q 541 778 427 778 m 356 0 l 452 0 q 387 -77 404 -50 q 369 -123 369 -104 q 386 -159 369 -146 q 433 -172 402 -172 q 486 -167 458 -172 q 543 -151 513 -161 l 523 -254 q 454 -268 484 -263 q 397 -272 423 -272 q 287 -249 325 -272 q 250 -180 250 -225 q 275 -94 250 -136 q 356 0 300 -51 m 371 1059 l 799 1059 l 774 932 l 346 932 l 371 1059 z "},"Ǯ":{"ha":1073,"x_min":28,"x_max":1032,"o":"m 734 1109 l 497 1109 l 404 1288 l 521 1288 l 621 1178 l 778 1288 l 899 1288 l 734 1109 m 464 132 q 633 168 570 132 q 708 271 695 204 q 672 376 722 340 q 511 412 622 412 l 385 412 l 417 578 l 670 815 l 165 815 l 203 1013 l 1032 1013 l 999 843 l 681 549 q 822 527 770 541 q 947 429 903 505 q 967 262 986 359 q 808 33 938 111 q 431 -45 677 -45 q 224 -25 326 -45 q 28 37 123 -4 l 66 234 q 262 158 163 184 q 464 132 362 132 z "},"ǯ":{"ha":808,"x_min":-61,"x_max":817,"o":"m 201 325 l 503 586 l 120 586 l 154 760 l 817 760 l 783 590 l 443 296 q 606 274 551 290 q 731 175 688 252 q 751 9 770 106 q 592 -220 722 -142 q 240 -298 461 -298 q 86 -286 162 -298 q -61 -248 11 -273 l -22 -47 q 113 -102 44 -83 q 251 -121 181 -121 q 417 -85 355 -121 q 492 18 479 -49 q 456 123 506 87 q 296 159 406 159 l 169 159 l 201 325 m 587 847 l 410 847 l 286 1102 l 406 1102 l 511 948 l 677 1102 l 810 1102 l 587 847 z "},"ǰ":{"ha":476,"x_min":-178,"x_max":647,"o":"m 191 760 l 435 760 l 289 14 q 172 -222 258 -146 q -57 -300 87 -300 l -178 -300 l -147 -140 l -104 -140 q -4 -110 -36 -140 q 45 14 27 -79 l 191 760 m 424 857 l 248 857 l 123 1112 l 243 1112 l 349 958 l 514 1112 l 647 1112 l 424 857 z "},"Ǳ":{"ha":2150,"x_min":29,"x_max":2181,"o":"m 1329 1013 l 2181 1013 l 2148 851 l 1492 197 l 2038 197 l 1999 0 l 1117 0 l 1147 161 l 1806 815 l 1291 815 l 1329 1013 m 450 815 l 329 197 l 422 197 q 711 300 605 197 q 818 576 818 402 q 748 755 818 694 q 542 815 679 815 l 450 815 m 227 1013 l 501 1013 q 796 989 698 1013 q 960 911 895 966 q 1059 778 1025 856 q 1092 600 1092 699 q 1035 341 1092 463 q 876 136 979 219 q 668 31 787 62 q 304 0 550 0 l 29 0 l 227 1013 z "},"ǲ":{"ha":2014,"x_min":29,"x_max":1967,"o":"m 1304 760 l 1967 760 l 1933 590 l 1460 174 l 1853 174 l 1820 0 l 1141 0 l 1173 170 l 1647 586 l 1271 586 l 1304 760 m 450 815 l 329 197 l 422 197 q 711 300 605 197 q 818 576 818 402 q 748 755 818 694 q 542 815 679 815 l 450 815 m 227 1013 l 501 1013 q 796 989 698 1013 q 960 911 895 966 q 1059 778 1025 856 q 1092 600 1092 699 q 1035 341 1092 463 q 876 136 979 219 q 668 31 787 62 q 304 0 550 0 l 29 0 l 227 1013 z "},"ǳ":{"ha":1815,"x_min":50,"x_max":1808,"o":"m 1145 760 l 1808 760 l 1775 590 l 1301 174 l 1694 174 l 1661 0 l 982 0 l 1014 170 l 1489 586 l 1112 586 l 1145 760 m 427 157 q 579 243 520 157 q 637 468 637 329 q 605 566 637 531 q 513 602 572 602 q 361 516 420 602 q 301 298 301 431 q 333 193 301 229 q 427 157 366 157 m 682 648 l 761 1055 l 1006 1055 l 800 0 l 555 0 l 578 110 q 461 12 522 43 q 328 -20 400 -20 q 125 62 199 -20 q 50 283 50 143 q 76 454 50 371 q 151 604 102 536 q 291 734 213 690 q 457 778 368 778 q 590 746 535 778 q 682 648 644 715 z "},"Ǵ":{"ha":1140,"x_min":50,"x_max":1080,"o":"m 696 1289 l 886 1289 l 669 1109 l 529 1109 l 696 1289 m 946 75 q 741 4 847 27 q 513 -20 634 -20 q 174 90 297 -20 q 50 389 50 199 q 89 619 50 511 q 204 815 127 726 q 425 977 298 924 q 715 1031 552 1031 q 899 1012 806 1031 q 1080 956 991 993 l 1040 746 q 879 818 958 794 q 720 842 800 842 q 435 725 545 842 q 325 425 325 608 q 389 237 325 304 q 570 170 453 170 q 646 175 608 170 q 722 191 684 180 l 761 387 l 602 387 l 635 562 l 1040 562 l 946 75 z "},"ǵ":{"ha":994,"x_min":28,"x_max":947,"o":"m 581 129 q 462 31 522 62 q 330 0 401 0 q 126 83 201 0 q 52 310 52 166 q 78 464 52 387 q 153 608 104 541 q 290 733 212 690 q 456 777 367 777 q 590 745 536 777 q 682 647 645 714 l 703 760 l 947 760 l 819 100 q 651 -202 780 -104 q 293 -300 522 -300 q 157 -289 222 -300 q 28 -256 92 -278 l 64 -66 q 179 -121 121 -103 q 297 -139 237 -139 q 483 -87 418 -139 q 570 77 547 -36 l 581 129 m 513 602 q 364 521 423 602 q 304 318 304 440 q 336 213 304 249 q 429 176 368 176 q 578 257 518 176 q 637 457 637 337 q 606 565 637 528 q 513 602 574 602 m 657 1109 l 856 1109 l 559 854 l 422 854 l 657 1109 z "},"Ƕ":{"ha":1790,"x_min":31,"x_max":1697,"o":"m 799 627 l 874 1013 l 1135 1013 l 1017 406 q 1023 227 993 280 q 1147 172 1054 172 q 1292 227 1240 172 q 1368 406 1343 280 l 1436 760 l 1697 760 l 1629 406 q 1459 85 1587 191 q 1109 -20 1331 -20 q 802 85 890 -20 q 756 406 714 191 l 761 429 l 376 429 l 292 0 l 31 0 l 228 1013 l 489 1013 l 414 627 l 799 627 z "},"Ƿ":{"ha":1093,"x_min":-28,"x_max":1076,"o":"m 311 77 l 239 -289 l -28 -289 l 225 1013 l 492 1013 l 468 887 q 618 998 545 967 q 847 1031 699 1031 q 1041 947 998 1031 q 1076 806 1076 878 q 1070 749 1076 778 q 311 77 1010 435 m 351 283 q 776 654 752 532 q 781 706 781 682 q 760 788 781 755 q 633 837 728 837 q 429 685 568 837 l 351 283 z "},"Ǹ":{"ha":1162,"x_min":29,"x_max":1133,"o":"m 737 1288 l 835 1109 l 714 1109 l 558 1288 l 737 1288 m 227 1013 l 518 1013 l 750 311 l 886 1013 l 1133 1013 l 936 0 l 644 0 l 412 701 l 277 0 l 29 0 l 227 1013 z "},"ǹ":{"ha":989,"x_min":43,"x_max":908,"o":"m 896 463 l 806 0 l 562 0 l 639 396 q 651 461 647 435 q 656 504 656 488 q 632 571 656 547 q 564 595 608 595 q 434 536 488 595 q 359 374 380 477 l 286 0 l 43 0 l 191 760 l 435 760 l 412 648 q 547 746 479 714 q 689 778 615 778 q 851 723 794 778 q 908 568 908 668 q 905 520 908 547 q 896 463 902 494 m 592 1109 l 734 854 l 600 854 l 400 1109 l 592 1109 z "},"Ǻ":{"ha":1075,"x_min":-90,"x_max":1204,"o":"m 1014 1369 l 1204 1369 l 987 1190 l 847 1190 l 1014 1369 m 539 1096 q 565 1033 539 1059 q 628 1007 591 1007 q 691 1033 665 1007 q 717 1096 717 1059 q 690 1159 717 1133 q 628 1185 664 1185 q 565 1159 591 1185 q 539 1096 539 1133 m 783 987 l 960 0 l 711 0 l 682 184 l 278 184 l 178 0 l -90 0 l 469 989 q 443 1040 452 1014 q 435 1096 435 1066 q 491 1232 435 1175 q 628 1289 548 1289 q 764 1232 707 1289 q 821 1096 821 1175 q 812 1037 821 1063 q 783 987 803 1011 m 376 368 l 648 368 l 587 758 l 376 368 z "},"ǻ":{"ha":937,"x_min":24,"x_max":1131,"o":"m 941 1293 l 1131 1293 l 914 1114 l 774 1114 l 941 1293 m 457 342 q 320 314 366 342 q 273 231 273 286 q 301 165 273 189 q 376 142 328 142 q 501 187 451 142 q 568 314 551 232 l 574 342 l 457 342 m 836 433 l 751 0 l 509 0 l 529 113 q 403 13 469 45 q 258 -20 336 -20 q 87 36 151 -20 q 24 187 24 92 q 136 409 24 332 q 460 486 248 486 l 603 486 l 606 505 q 608 519 608 515 q 608 526 608 523 q 566 594 608 571 q 440 616 524 616 q 294 601 365 616 q 158 554 224 585 l 195 739 q 350 768 271 758 q 515 778 430 778 q 766 720 684 778 q 848 543 848 662 q 845 493 848 520 q 836 433 842 465 m 764 1034 q 708 896 764 952 q 571 840 652 840 q 434 896 490 840 q 378 1034 378 952 q 434 1171 378 1115 q 571 1226 490 1226 q 708 1171 652 1226 q 764 1034 764 1115 m 672 1034 q 644 1106 672 1078 q 571 1135 615 1135 q 498 1106 526 1135 q 469 1034 469 1078 q 498 961 469 989 q 571 932 527 932 q 644 960 615 932 q 672 1034 672 989 z "},"Ǽ":{"ha":1507,"x_min":-109,"x_max":1489,"o":"m 981 1289 l 1171 1289 l 954 1109 l 814 1109 l 981 1289 m 668 839 l 414 425 l 669 425 l 750 839 l 668 839 m 525 1013 l 1489 1013 l 1450 815 l 1007 815 l 971 627 l 1388 627 l 1349 429 l 932 429 l 888 197 l 1344 197 l 1307 0 l 587 0 l 633 237 l 300 237 l 153 0 l -109 0 l 525 1013 z "},"ǽ":{"ha":1455,"x_min":24,"x_max":1400,"o":"m 457 342 q 320 314 366 342 q 273 231 273 286 q 301 165 273 189 q 376 142 328 142 q 501 187 451 142 q 568 314 551 232 l 574 342 l 457 342 m 197 739 q 352 768 277 758 q 498 778 428 778 q 666 753 600 778 q 771 676 732 728 q 908 753 836 728 q 1068 778 980 778 q 1310 695 1219 778 q 1400 476 1400 612 q 1396 414 1400 446 q 1386 351 1393 383 l 1377 313 l 810 313 q 809 301 810 309 q 808 289 808 293 q 853 178 808 215 q 986 142 897 142 q 1146 164 1062 142 q 1325 233 1231 187 l 1289 45 q 1112 -4 1200 12 q 932 -20 1023 -20 q 734 15 814 -20 q 610 121 654 50 q 447 15 530 50 q 269 -20 363 -20 q 89 35 154 -20 q 24 186 24 90 q 136 409 24 332 q 463 486 248 486 l 602 486 l 606 506 q 608 519 608 515 q 608 526 608 523 q 566 594 608 571 q 443 616 524 616 q 295 601 366 616 q 161 554 225 585 l 197 739 m 1157 463 q 1160 480 1159 471 q 1161 498 1161 490 q 1128 585 1161 553 q 1040 616 1095 616 q 919 577 969 616 q 843 463 868 538 l 1157 463 m 863 1109 l 1061 1109 l 764 854 l 628 854 l 863 1109 z "},"Ǿ":{"ha":1181,"x_min":-65,"x_max":1244,"o":"m 724 1289 l 914 1289 l 698 1109 l 557 1109 l 724 1289 m 811 765 q 743 823 784 804 q 646 842 701 842 q 417 721 509 842 q 326 415 326 600 q 329 365 326 400 q 329 361 329 365 l 811 765 m 107 175 q 64 278 79 225 q 50 386 50 332 q 87 620 50 510 q 197 818 125 730 q 405 978 285 926 q 682 1031 524 1031 q 862 1004 783 1031 q 1000 925 941 978 l 1175 1071 l 1244 987 l 1069 843 q 1115 736 1100 791 q 1131 624 1131 682 q 1093 391 1131 500 q 983 193 1055 281 q 774 33 895 86 q 497 -20 654 -20 q 317 8 397 -20 q 175 92 237 36 l 4 -53 l -65 31 l 107 175 m 366 252 q 433 191 392 212 q 528 170 475 170 q 666 202 606 170 q 770 300 727 235 q 833 440 810 362 q 856 596 856 517 q 851 649 856 613 q 850 657 850 654 l 366 252 z "},"ǿ":{"ha":954,"x_min":-24,"x_max":972,"o":"m 614 571 q 575 596 598 587 q 521 604 551 604 q 369 523 426 604 q 304 297 311 442 l 614 571 m 103 118 q 63 204 77 158 q 50 302 50 251 q 81 469 50 388 q 171 618 112 550 q 333 738 239 697 q 543 778 427 778 q 672 762 614 778 q 777 715 730 747 l 907 829 l 972 754 l 848 644 q 890 557 876 604 q 904 457 904 511 q 873 290 904 371 q 785 142 843 209 q 621 22 716 63 q 411 -20 526 -20 q 278 -3 337 -20 q 172 47 218 14 l 41 -69 l -24 7 l 103 118 m 338 192 q 378 163 355 173 q 433 154 401 154 q 587 238 529 154 q 650 469 645 322 l 338 192 m 629 1112 l 828 1112 l 531 857 l 395 857 l 629 1112 z "},"Ȁ":{"ha":1075,"x_min":-90,"x_max":960,"o":"m 682 184 l 278 184 l 178 0 l -90 0 l 482 1013 l 781 1013 l 960 0 l 711 0 l 682 184 m 376 368 l 648 368 l 587 758 l 376 368 m 817 1291 l 915 1112 l 794 1112 l 638 1291 l 817 1291 m 576 1291 l 673 1112 l 553 1112 l 397 1291 l 576 1291 z "},"ȁ":{"ha":937,"x_min":24,"x_max":848,"o":"m 457 342 q 320 314 366 342 q 273 231 273 286 q 301 165 273 189 q 376 142 328 142 q 501 187 451 142 q 568 314 551 232 l 574 342 l 457 342 m 836 433 l 751 0 l 509 0 l 529 113 q 403 13 469 45 q 258 -20 336 -20 q 87 36 151 -20 q 24 187 24 92 q 136 409 24 332 q 460 486 248 486 l 603 486 l 606 505 q 608 519 608 515 q 608 526 608 523 q 566 594 608 571 q 440 616 524 616 q 294 601 365 616 q 158 554 224 585 l 195 739 q 350 768 271 758 q 515 778 430 778 q 766 720 684 778 q 848 543 848 662 q 845 493 848 520 q 836 433 842 465 m 684 1111 l 766 856 l 656 856 l 537 1111 l 684 1111 m 438 1111 l 534 856 l 416 856 l 281 1111 l 438 1111 z "},"Ȃ":{"ha":1075,"x_min":-90,"x_max":960,"o":"m 682 184 l 278 184 l 178 0 l -90 0 l 482 1013 l 781 1013 l 960 0 l 711 0 l 682 184 m 376 368 l 648 368 l 587 758 l 376 368 m 910 1136 l 813 1136 q 779 1195 806 1177 q 698 1214 751 1214 q 613 1193 649 1214 q 562 1136 577 1173 l 458 1136 q 551 1269 484 1223 q 719 1315 618 1315 q 861 1269 811 1315 q 910 1139 910 1223 l 910 1136 z "},"ȃ":{"ha":937,"x_min":24,"x_max":848,"o":"m 457 342 q 320 314 366 342 q 273 231 273 286 q 301 165 273 189 q 376 142 328 142 q 501 187 451 142 q 568 314 551 232 l 574 342 l 457 342 m 836 433 l 751 0 l 509 0 l 529 113 q 403 13 469 45 q 258 -20 336 -20 q 87 36 151 -20 q 24 187 24 92 q 136 409 24 332 q 460 486 248 486 l 603 486 l 606 505 q 608 519 608 515 q 608 526 608 523 q 566 594 608 571 q 440 616 524 616 q 294 601 365 616 q 158 554 224 585 l 195 739 q 350 768 271 758 q 515 778 430 778 q 766 720 684 778 q 848 543 848 662 q 845 493 848 520 q 836 433 842 465 m 777 888 l 680 888 l 680 894 q 651 962 680 938 q 568 985 622 985 q 477 961 513 985 q 423 888 442 937 l 320 888 q 413 1037 343 985 q 588 1089 482 1089 q 731 1047 683 1089 q 779 923 779 1005 q 778 902 779 909 q 777 888 778 895 z "},"Ȅ":{"ha":949,"x_min":29,"x_max":930,"o":"m 227 1013 l 930 1013 l 892 815 l 449 815 l 412 627 l 829 627 l 790 429 l 374 429 l 329 197 l 786 197 l 749 0 l 29 0 l 227 1013 m 760 1291 l 858 1112 l 737 1112 l 581 1291 l 760 1291 m 519 1291 l 616 1112 l 496 1112 l 340 1291 l 519 1291 z "},"ȅ":{"ha":942,"x_min":50,"x_max":889,"o":"m 873 351 l 865 313 l 297 313 q 296 301 297 309 q 296 289 296 293 q 340 178 296 215 q 473 142 385 142 q 635 165 550 142 q 814 233 720 188 l 777 45 q 600 -4 688 12 q 421 -20 512 -20 q 147 62 243 -20 q 50 294 50 144 q 81 463 50 381 q 171 612 112 545 q 338 736 241 694 q 554 778 435 778 q 799 696 708 778 q 889 475 889 614 q 885 417 889 448 q 873 351 882 387 m 644 463 q 647 480 646 471 q 648 498 648 490 q 616 585 648 553 q 528 616 583 616 q 407 577 456 616 q 330 463 357 538 l 644 463 m 716 1111 l 798 856 l 688 856 l 569 1111 l 716 1111 m 470 1111 l 566 856 l 448 856 l 313 1111 l 470 1111 z "},"Ȇ":{"ha":949,"x_min":29,"x_max":930,"o":"m 227 1013 l 930 1013 l 892 815 l 449 815 l 412 627 l 829 627 l 790 429 l 374 429 l 329 197 l 786 197 l 749 0 l 29 0 l 227 1013 m 853 1136 l 756 1136 q 722 1195 749 1177 q 641 1214 694 1214 q 556 1193 592 1214 q 505 1136 520 1173 l 401 1136 q 494 1269 427 1223 q 662 1315 562 1315 q 804 1269 754 1315 q 853 1139 853 1223 l 853 1136 z "},"ȇ":{"ha":942,"x_min":50,"x_max":889,"o":"m 873 351 l 865 313 l 297 313 q 296 301 297 309 q 296 289 296 293 q 340 178 296 215 q 473 142 385 142 q 635 165 550 142 q 814 233 720 188 l 777 45 q 600 -4 688 12 q 421 -20 512 -20 q 147 62 243 -20 q 50 294 50 144 q 81 463 50 381 q 171 612 112 545 q 338 736 241 694 q 554 778 435 778 q 799 696 708 778 q 889 475 889 614 q 885 417 889 448 q 873 351 882 387 m 644 463 q 647 480 646 471 q 648 498 648 490 q 616 585 648 553 q 528 616 583 616 q 407 577 456 616 q 330 463 357 538 l 644 463 m 808 888 l 712 888 l 712 894 q 683 962 712 938 q 600 985 654 985 q 509 961 545 985 q 455 888 474 937 l 352 888 q 445 1037 375 985 q 620 1089 514 1089 q 763 1047 715 1089 q 810 923 810 1005 q 810 902 810 909 q 808 888 810 895 z "},"Ȉ":{"ha":517,"x_min":29,"x_max":606,"o":"m 227 1013 l 488 1013 l 290 0 l 29 0 l 227 1013 m 509 1291 l 606 1112 l 486 1112 l 330 1291 l 509 1291 m 267 1291 l 365 1112 l 244 1112 l 88 1291 l 267 1291 z "},"ȉ":{"ha":476,"x_min":43,"x_max":568,"o":"m 486 1109 l 568 854 l 458 854 l 339 1109 l 486 1109 m 240 1109 l 336 854 l 218 854 l 83 1109 l 240 1109 m 191 760 l 435 760 l 286 0 l 43 0 l 191 760 z "},"Ȋ":{"ha":517,"x_min":29,"x_max":621,"o":"m 227 1013 l 488 1013 l 290 0 l 29 0 l 227 1013 m 621 1136 l 524 1136 q 489 1195 517 1177 q 408 1214 462 1214 q 323 1193 359 1214 q 272 1136 288 1173 l 168 1136 q 262 1269 195 1223 q 429 1315 329 1315 q 571 1269 522 1315 q 621 1139 621 1223 l 621 1136 z "},"ȋ":{"ha":476,"x_min":43,"x_max":580,"o":"m 191 760 l 435 760 l 286 0 l 43 0 l 191 760 m 578 888 l 481 888 l 481 894 q 452 962 481 938 q 369 985 423 985 q 279 961 314 985 q 224 888 243 937 l 121 888 q 214 1037 144 985 q 389 1089 283 1089 q 532 1047 484 1089 q 580 923 580 1005 q 579 902 580 909 q 578 888 579 895 z "},"Ȍ":{"ha":1181,"x_min":50,"x_max":1131,"o":"m 854 597 q 801 779 854 717 q 644 842 747 842 q 417 720 509 842 q 325 415 325 598 q 378 234 325 298 q 528 170 432 170 q 666 202 606 170 q 770 300 727 235 q 832 439 810 361 q 854 597 854 516 m 682 1031 q 1007 919 884 1031 q 1131 625 1131 806 q 1093 392 1131 502 q 983 195 1055 282 q 775 34 895 87 q 497 -20 654 -20 q 173 92 296 -20 q 50 386 50 204 q 87 620 50 510 q 197 818 125 730 q 405 978 284 925 q 682 1031 525 1031 m 893 1291 l 991 1112 l 870 1112 l 714 1291 l 893 1291 m 652 1291 l 749 1112 l 629 1112 l 473 1291 l 652 1291 z "},"ȍ":{"ha":954,"x_min":50,"x_max":904,"o":"m 521 604 q 366 519 427 604 q 304 301 304 433 q 337 192 304 229 q 433 154 370 154 q 589 240 528 154 q 650 458 650 326 q 617 567 650 530 q 521 604 584 604 m 541 778 q 807 692 710 778 q 904 457 904 606 q 873 290 904 371 q 785 142 843 209 q 621 21 715 62 q 411 -20 527 -20 q 147 66 243 -20 q 50 301 50 153 q 81 468 50 387 q 171 618 113 550 q 333 737 239 696 q 541 778 427 778 m 693 1111 l 775 856 l 665 856 l 546 1111 l 693 1111 m 447 1111 l 543 856 l 425 856 l 290 1111 l 447 1111 z "},"Ȏ":{"ha":1181,"x_min":50,"x_max":1131,"o":"m 854 597 q 801 779 854 717 q 644 842 747 842 q 417 720 509 842 q 325 415 325 598 q 378 234 325 298 q 528 170 432 170 q 666 202 606 170 q 770 300 727 235 q 832 439 810 361 q 854 597 854 516 m 682 1031 q 1007 919 884 1031 q 1131 625 1131 806 q 1093 392 1131 502 q 983 195 1055 282 q 775 34 895 87 q 497 -20 654 -20 q 173 92 296 -20 q 50 386 50 204 q 87 620 50 510 q 197 818 125 730 q 405 978 284 925 q 682 1031 525 1031 m 981 1136 l 884 1136 q 850 1195 878 1177 q 769 1214 823 1214 q 684 1193 720 1214 q 633 1136 648 1173 l 529 1136 q 623 1269 555 1223 q 790 1315 690 1315 q 932 1269 882 1315 q 981 1139 981 1223 l 981 1136 z "},"ȏ":{"ha":954,"x_min":50,"x_max":904,"o":"m 521 604 q 366 519 427 604 q 304 301 304 433 q 337 192 304 229 q 433 154 370 154 q 589 240 528 154 q 650 458 650 326 q 617 567 650 530 q 521 604 584 604 m 541 778 q 807 692 710 778 q 904 457 904 606 q 873 290 904 371 q 785 142 843 209 q 621 21 715 62 q 411 -20 527 -20 q 147 66 243 -20 q 50 301 50 153 q 81 468 50 387 q 171 618 113 550 q 333 737 239 696 q 541 778 427 778 m 785 888 l 689 888 l 689 894 q 660 962 689 938 q 576 985 631 985 q 486 961 522 985 q 432 888 451 937 l 329 888 q 421 1037 352 985 q 597 1089 491 1089 q 740 1047 692 1089 q 787 923 787 1005 q 787 902 787 909 q 785 888 787 895 z "},"Ȑ":{"ha":1069,"x_min":29,"x_max":951,"o":"m 510 564 q 645 605 599 564 q 690 726 690 646 q 659 800 690 777 q 559 823 627 823 l 452 823 l 400 564 l 510 564 m 366 383 l 290 0 l 29 0 l 227 1013 l 612 1013 q 865 950 779 1013 q 951 766 951 888 q 884 564 951 644 q 700 473 816 485 q 788 419 753 463 q 850 288 823 376 l 936 0 l 676 0 l 600 252 q 544 355 577 327 q 449 383 511 383 l 366 383 m 741 1291 l 839 1112 l 718 1112 l 562 1291 l 741 1291 m 500 1291 l 597 1112 l 477 1112 l 321 1291 l 500 1291 z "},"ȑ":{"ha":685,"x_min":43,"x_max":757,"o":"m 714 553 q 659 574 689 567 q 593 582 628 582 q 438 522 500 582 q 355 350 377 463 l 286 0 l 43 0 l 191 760 l 435 760 l 408 629 q 529 740 456 701 q 689 778 601 778 q 718 777 702 778 q 757 772 734 775 l 714 553 m 656 1111 l 739 856 l 628 856 l 509 1111 l 656 1111 m 410 1111 l 507 856 l 389 856 l 254 1111 l 410 1111 z "},"Ȓ":{"ha":1069,"x_min":29,"x_max":951,"o":"m 510 564 q 645 605 599 564 q 690 726 690 646 q 659 800 690 777 q 559 823 627 823 l 452 823 l 400 564 l 510 564 m 366 383 l 290 0 l 29 0 l 227 1013 l 612 1013 q 865 950 779 1013 q 951 766 951 888 q 884 564 951 644 q 700 473 816 485 q 788 419 753 463 q 850 288 823 376 l 936 0 l 676 0 l 600 252 q 544 355 577 327 q 449 383 511 383 l 366 383 m 839 1136 l 742 1136 q 708 1195 735 1177 q 627 1214 680 1214 q 542 1193 578 1214 q 490 1136 506 1173 l 387 1136 q 480 1269 413 1223 q 648 1315 547 1315 q 789 1269 740 1315 q 839 1139 839 1223 l 839 1136 z "},"ȓ":{"ha":685,"x_min":43,"x_max":757,"o":"m 714 553 q 659 574 689 567 q 593 582 628 582 q 438 522 500 582 q 355 350 377 463 l 286 0 l 43 0 l 191 760 l 435 760 l 408 629 q 529 740 456 701 q 689 778 601 778 q 718 777 702 778 q 757 772 734 775 l 714 553 m 749 888 l 652 888 l 652 894 q 623 962 652 938 q 540 985 594 985 q 450 961 485 985 q 395 888 414 937 l 292 888 q 385 1037 315 985 q 560 1089 454 1089 q 703 1047 655 1089 q 751 923 751 1005 q 750 902 751 909 q 749 888 750 895 z "},"Ȕ":{"ha":1128,"x_min":94,"x_max":1099,"o":"m 227 1013 l 488 1013 l 370 406 q 360 349 363 374 q 357 304 357 323 q 392 205 357 238 q 498 172 428 172 q 644 225 593 172 q 720 406 695 279 l 838 1013 l 1099 1013 l 981 406 q 813 81 937 182 q 461 -20 690 -20 q 188 57 281 -20 q 94 281 94 134 q 98 335 94 305 q 109 406 101 366 l 227 1013 m 817 1291 l 915 1112 l 794 1112 l 638 1291 l 817 1291 m 576 1291 l 673 1112 l 553 1112 l 397 1291 l 576 1291 z "},"ȕ":{"ha":989,"x_min":83,"x_max":946,"o":"m 94 296 l 183 760 l 427 760 l 350 364 q 338 298 342 326 q 334 256 334 271 q 357 189 334 213 q 425 165 381 165 q 555 224 500 165 q 629 386 609 282 l 703 760 l 946 760 l 799 0 l 554 0 l 576 111 q 446 13 514 45 q 301 -20 377 -20 q 140 35 197 -20 q 83 191 83 90 q 86 241 83 214 q 94 296 89 267 m 709 1111 l 791 856 l 681 856 l 562 1111 l 709 1111 m 463 1111 l 559 856 l 441 856 l 307 1111 l 463 1111 z "},"Ȗ":{"ha":1128,"x_min":94,"x_max":1099,"o":"m 227 1013 l 488 1013 l 370 406 q 360 349 363 374 q 357 304 357 323 q 392 205 357 238 q 498 172 428 172 q 644 225 593 172 q 720 406 695 279 l 838 1013 l 1099 1013 l 981 406 q 813 81 937 182 q 461 -20 690 -20 q 188 57 281 -20 q 94 281 94 134 q 98 335 94 305 q 109 406 101 366 l 227 1013 m 910 1136 l 813 1136 q 779 1195 806 1177 q 698 1214 751 1214 q 613 1193 649 1214 q 562 1136 577 1173 l 458 1136 q 551 1269 484 1223 q 719 1315 618 1315 q 861 1269 811 1315 q 910 1139 910 1223 l 910 1136 z "},"ȗ":{"ha":989,"x_min":83,"x_max":946,"o":"m 94 296 l 183 760 l 427 760 l 350 364 q 338 298 342 326 q 334 256 334 271 q 357 189 334 213 q 425 165 381 165 q 555 224 500 165 q 629 386 609 282 l 703 760 l 946 760 l 799 0 l 554 0 l 576 111 q 446 13 514 45 q 301 -20 377 -20 q 140 35 197 -20 q 83 191 83 90 q 86 241 83 214 q 94 296 89 267 m 802 888 l 705 888 l 705 894 q 676 962 705 938 q 593 985 647 985 q 503 961 538 985 q 448 888 467 937 l 345 888 q 438 1037 368 985 q 613 1089 507 1089 q 756 1047 708 1089 q 804 923 804 1005 q 803 902 804 909 q 802 888 803 895 z "},"Ș":{"ha":1000,"x_min":21,"x_max":924,"o":"m 290 -126 l 509 -126 l 319 -328 l 189 -328 l 290 -126 m 924 981 l 882 766 q 730 823 805 804 q 585 842 656 842 q 432 811 487 842 q 378 726 378 781 q 402 672 378 692 q 501 635 426 653 l 608 608 q 805 510 743 574 q 868 345 868 446 q 743 80 868 180 q 407 -20 618 -20 q 211 -1 309 -20 q 21 53 114 17 l 62 273 q 238 195 153 221 q 406 170 323 170 q 551 206 495 170 q 607 300 607 243 q 582 358 607 337 q 472 400 557 378 l 366 427 q 190 519 248 456 q 132 682 132 582 q 253 936 132 840 q 579 1031 374 1031 q 748 1018 661 1031 q 924 981 834 1006 z "},"ș":{"ha":827,"x_min":14,"x_max":778,"o":"m 191 -126 l 410 -126 l 220 -328 l 90 -328 l 191 -126 m 778 736 l 742 547 q 600 599 671 581 q 467 616 530 616 q 356 598 395 616 q 317 545 317 579 q 338 512 317 524 q 424 486 360 500 l 468 478 q 674 398 615 447 q 733 261 733 349 q 629 55 733 129 q 339 -20 526 -20 q 180 -7 261 -20 q 14 29 98 5 l 50 220 q 191 161 116 181 q 345 142 266 142 q 460 160 421 142 q 498 214 498 178 q 477 252 498 238 q 387 279 455 265 l 343 288 q 157 368 213 315 q 102 514 102 420 q 198 709 102 641 q 472 778 294 778 q 626 767 550 778 q 778 736 701 757 z "},"Ț":{"ha":947,"x_min":66,"x_max":1039,"o":"m 227 -126 l 446 -126 l 256 -328 l 126 -328 l 227 -126 m 106 1013 l 1039 1013 l 1000 815 l 664 815 l 505 0 l 244 0 l 403 815 l 66 815 l 106 1013 z "},"ț":{"ha":664,"x_min":60,"x_max":707,"o":"m 162 -126 l 382 -126 l 192 -328 l 62 -328 l 162 -126 m 500 975 l 458 760 l 707 760 l 672 586 l 424 586 l 361 264 q 358 246 359 254 q 357 232 357 239 q 377 187 357 201 q 447 174 398 174 l 572 174 l 538 0 l 334 0 q 166 46 224 0 q 109 179 109 92 q 111 220 109 198 q 117 264 113 241 l 179 586 l 60 586 l 93 760 l 214 760 l 256 975 l 500 975 z "},"Ȝ":{"ha":959,"x_min":-63,"x_max":902,"o":"m 902 793 q 896 742 902 770 q 873 675 890 714 q 828 600 855 636 q 752 524 800 563 q 643 457 705 486 q 768 381 725 436 q 811 257 811 327 q 806 211 811 234 q 749 81 791 140 q 639 -27 707 22 q 467 -122 571 -77 q 236 -208 363 -168 q -63 -292 109 -248 l -22 -100 q 1 -94 -14 -98 q 54 -81 16 -91 q 129 -59 92 -71 q 216 -29 167 -47 q 308 8 265 -11 q 394 54 351 28 q 468 106 437 79 q 518 166 498 133 q 537 232 537 199 q 518 291 537 267 q 473 327 500 316 q 416 338 446 338 q 331 321 377 338 l 172 263 l 208 435 l 381 500 q 489 551 442 523 q 563 605 536 579 q 606 659 589 631 q 628 709 623 688 q 633 750 633 730 q 619 800 633 779 q 582 831 605 821 q 535 847 559 842 q 487 852 511 852 q 201 746 386 852 l 237 920 q 583 1031 424 1031 q 710 1016 654 1031 q 802 977 766 1001 q 860 922 837 954 q 893 858 884 890 q 902 793 902 827 z "},"ȝ":{"ha":844,"x_min":-66,"x_max":783,"o":"m 783 591 q 720 433 783 509 q 556 313 657 357 q 633 281 601 300 q 681 240 665 262 q 704 195 697 217 q 711 150 711 174 q 707 113 711 132 q -66 -294 649 -163 l -33 -138 q 6 -130 -16 -135 q 70 -114 28 -125 q 151 -91 111 -104 q 237 -61 191 -78 q 323 -23 284 -44 q 395 21 362 -2 q 446 72 428 44 q 465 128 465 100 q 431 193 465 170 q 353 216 398 216 q 277 203 318 216 l 136 156 l 165 296 l 319 348 q 417 390 375 367 q 482 434 459 414 q 519 478 505 455 q 537 516 533 500 q 541 548 541 532 q 528 589 541 572 q 493 616 515 607 q 451 629 472 625 q 408 633 429 633 q 153 547 313 633 l 182 688 q 508 778 340 778 q 616 767 568 778 q 695 739 665 756 q 746 696 726 721 q 775 646 766 671 q 783 591 783 620 z "},"Ȟ":{"ha":1162,"x_min":29,"x_max":1133,"o":"m 227 1013 l 488 1013 l 412 627 l 798 627 l 872 1013 l 1133 1013 l 936 0 l 675 0 l 758 429 l 374 429 l 290 0 l 29 0 l 227 1013 m 836 1107 l 599 1107 l 506 1286 l 623 1286 l 723 1177 l 880 1286 l 1000 1286 l 836 1107 z "},"ȟ":{"ha":989,"x_min":43,"x_max":908,"o":"m 896 463 l 806 0 l 562 0 l 639 396 q 651 461 647 435 q 656 504 656 488 q 632 571 656 547 q 564 595 608 595 q 434 536 488 595 q 359 374 380 477 l 286 0 l 43 0 l 248 1055 l 492 1055 l 412 648 q 547 746 479 714 q 689 778 615 778 q 851 723 794 778 q 908 568 908 668 q 905 520 908 547 q 896 463 902 494 m 517 1107 l 281 1107 l 188 1286 l 304 1286 l 405 1177 l 562 1286 l 682 1286 l 517 1107 z "},"Ƞ":{"ha":1162,"x_min":45,"x_max":1061,"o":"m 789 469 q 817 648 812 592 q 808 722 820 698 q 758 770 791 753 q 675 788 722 788 q 492 710 568 788 q 391 495 417 632 l 294 0 l 45 0 l 241 1013 l 493 1013 l 463 859 q 642 989 557 950 q 828 1031 730 1031 q 1042 924 982 1031 q 1061 612 1101 817 l 886 -289 l 642 -289 l 789 469 z "},"ȡ":{"ha":1201,"x_min":43,"x_max":1092,"o":"m 882 156 q 983 216 972 156 q 968 233 987 233 q 882 199 918 233 l 851 167 q 882 156 863 156 m 412 157 q 542 214 490 157 q 614 379 593 271 q 606 545 635 488 q 498 602 576 602 q 369 545 420 602 q 295 379 316 488 q 304 214 274 271 q 412 157 334 157 m 853 349 q 989 411 917 411 q 1080 373 1053 411 q 1092 222 1114 326 q 1015 54 1071 113 q 836 -18 949 -17 q 730 0 774 -18 q 665 -104 695 -50 l 563 -56 q 629 58 583 -18 q 615 80 621 68 q 524 10 575 34 q 287 -20 458 -20 q 78 92 146 -20 q 43 379 9 203 q 190 666 78 555 q 442 778 302 778 q 575 746 521 778 q 667 648 630 715 l 746 1055 l 990 1055 l 853 349 z "},"Ȣ":{"ha":1124,"x_min":35,"x_max":1068,"o":"m 552 453 q 376 413 443 453 q 294 298 309 373 q 291 268 291 282 q 332 184 291 215 q 492 144 382 144 q 667 184 602 144 q 747 298 732 224 q 750 331 750 315 q 711 414 750 382 q 552 453 662 453 m 682 913 l 705 1030 q 987 964 895 1025 q 1068 817 1068 911 q 1063 768 1068 794 q 979 625 1046 682 q 795 539 911 567 q 964 446 913 511 q 1000 336 1000 400 q 995 285 1000 311 q 831 57 966 134 q 460 -20 696 -20 q 117 57 223 -20 q 35 223 35 117 q 41 285 35 252 q 136 446 60 382 q 340 539 211 511 q 189 618 230 559 q 153 713 153 668 q 155 734 153 724 q 297 876 169 808 q 600 928 385 922 l 579 824 q 462 800 503 825 q 391 722 399 762 q 390 707 390 714 q 431 642 390 670 q 584 616 470 616 q 747 656 674 616 q 824 769 808 688 q 827 800 827 785 q 790 875 827 849 q 682 913 743 907 z "},"ȣ":{"ha":915,"x_min":31,"x_max":911,"o":"m 644 826 l 898 897 q 911 825 911 865 q 905 768 911 798 q 830 625 889 683 q 675 539 772 567 q 812 446 771 511 q 840 344 840 403 q 833 285 840 316 q 688 57 804 134 q 377 -20 574 -20 q 94 57 180 -20 q 31 213 31 115 q 38 285 31 247 q 121 446 57 382 q 296 539 186 511 q 173 625 209 567 q 149 716 149 664 q 154 768 149 741 q 212 897 169 844 l 438 826 q 396 742 406 794 q 393 709 393 724 q 412 649 393 672 q 501 616 439 616 q 602 649 562 616 q 653 742 641 682 q 656 775 656 760 q 644 826 656 805 m 469 453 q 349 413 396 453 q 288 298 302 373 q 283 255 283 275 q 304 184 283 212 q 409 144 336 144 q 528 184 481 144 q 589 298 574 224 q 594 343 594 323 q 573 414 594 387 q 469 453 542 453 z "},"Ȥ":{"ha":1007,"x_min":-7,"x_max":1057,"o":"m 876 0 q 710 -256 836 -182 q 530 -300 634 -300 l 340 -300 l 371 -140 l 484 -140 q 585 -109 553 -140 q 631 0 614 -80 l -7 0 l 24 158 l 694 815 l 167 815 l 205 1013 l 1057 1013 l 1026 854 l 355 197 l 913 197 l 876 0 z "},"ȥ":{"ha":808,"x_min":18,"x_max":845,"o":"m 697 0 q 532 -256 658 -182 q 352 -300 456 -300 l 161 -300 l 193 -140 l 305 -140 q 406 -109 374 -140 q 453 0 435 -80 l 18 0 l 51 170 l 532 586 l 149 586 l 182 760 l 845 760 l 812 590 l 331 174 l 731 174 l 697 0 z "},"Ȧ":{"ha":1075,"x_min":-90,"x_max":960,"o":"m 576 1288 l 763 1288 l 731 1121 l 545 1121 l 576 1288 m 682 184 l 278 184 l 178 0 l -90 0 l 482 1013 l 781 1013 l 960 0 l 711 0 l 682 184 m 376 368 l 648 368 l 587 758 l 376 368 z "},"ȧ":{"ha":937,"x_min":24,"x_max":848,"o":"m 461 1055 l 704 1055 l 666 857 l 423 857 l 461 1055 m 457 342 q 320 314 366 342 q 273 231 273 286 q 301 165 273 189 q 376 142 328 142 q 501 187 451 142 q 568 314 551 232 l 574 342 l 457 342 m 836 433 l 751 0 l 509 0 l 529 113 q 403 13 469 45 q 258 -20 336 -20 q 87 36 151 -20 q 24 187 24 92 q 136 409 24 332 q 460 486 248 486 l 603 486 l 606 505 q 608 519 608 515 q 608 526 608 523 q 566 594 608 571 q 440 616 524 616 q 294 601 365 616 q 158 554 224 585 l 195 739 q 350 768 271 758 q 515 778 430 778 q 766 720 684 778 q 848 543 848 662 q 845 493 848 520 q 836 433 842 465 z "},"Ȩ":{"ha":949,"x_min":29,"x_max":930,"o":"m 227 1013 l 930 1013 l 892 815 l 449 815 l 412 627 l 829 627 l 790 429 l 374 429 l 329 197 l 786 197 l 749 0 l 29 0 l 227 1013 m 441 5 q 478 -60 467 -30 q 490 -118 490 -90 q 438 -228 490 -189 q 294 -267 387 -267 q 228 -262 261 -267 q 161 -249 195 -258 l 180 -143 q 235 -161 208 -155 q 288 -167 262 -167 q 359 -148 333 -167 q 385 -96 385 -128 q 375 -55 385 -79 q 345 5 366 -32 l 441 5 z "},"ȩ":{"ha":942,"x_min":50,"x_max":889,"o":"m 873 351 l 865 313 l 297 313 q 296 301 297 309 q 296 289 296 293 q 340 178 296 215 q 473 142 385 142 q 635 165 550 142 q 814 233 720 188 l 777 45 q 600 -4 688 12 q 421 -20 512 -20 q 147 62 243 -20 q 50 294 50 144 q 81 463 50 381 q 171 612 112 545 q 338 736 241 694 q 554 778 435 778 q 799 696 708 778 q 889 475 889 614 q 885 417 889 448 q 873 351 882 387 m 644 463 q 647 480 646 471 q 648 498 648 490 q 616 585 648 553 q 528 616 583 616 q 407 577 456 616 q 330 463 357 538 l 644 463 m 438 0 q 475 -65 463 -35 q 486 -123 486 -95 q 435 -233 486 -194 q 291 -272 384 -272 q 225 -268 258 -272 q 157 -254 192 -263 l 177 -149 q 232 -166 204 -160 q 285 -172 259 -172 q 355 -153 330 -172 q 381 -102 381 -134 q 372 -61 381 -84 q 342 0 363 -37 l 438 0 z "},"Ȫ":{"ha":1181,"x_min":50,"x_max":1131,"o":"m 854 597 q 801 779 854 717 q 644 842 747 842 q 417 720 509 842 q 325 415 325 598 q 378 234 325 298 q 528 170 432 170 q 666 202 606 170 q 770 300 727 235 q 832 439 810 361 q 854 597 854 516 m 682 1031 q 1007 919 884 1031 q 1131 625 1131 806 q 1093 392 1131 502 q 983 195 1055 282 q 775 34 895 87 q 497 -20 654 -20 q 173 92 296 -20 q 50 386 50 204 q 87 620 50 510 q 197 818 125 730 q 405 978 284 925 q 682 1031 525 1031 z "},"ȫ":{"ha":954,"x_min":50,"x_max":904,"o":"m 521 604 q 366 519 427 604 q 304 301 304 433 q 337 192 304 229 q 433 154 370 154 q 589 240 528 154 q 650 458 650 326 q 617 567 650 530 q 521 604 584 604 m 541 778 q 807 692 710 778 q 904 457 904 606 q 873 290 904 371 q 785 142 843 209 q 621 21 715 62 q 411 -20 527 -20 q 147 66 243 -20 q 50 301 50 153 q 81 468 50 387 q 171 618 113 550 q 333 737 239 696 q 541 778 427 778 m 374 1075 l 535 1075 l 502 908 l 342 908 l 374 1075 m 644 1075 l 803 1075 l 770 908 l 610 908 l 644 1075 m 404 1269 l 831 1269 l 806 1141 l 378 1141 l 404 1269 z "},"Ȭ":{"ha":1181,"x_min":50,"x_max":1131,"o":"m 854 597 q 801 779 854 717 q 644 842 747 842 q 417 720 509 842 q 325 415 325 598 q 378 234 325 298 q 528 170 432 170 q 666 202 606 170 q 770 300 727 235 q 832 439 810 361 q 854 597 854 516 m 682 1031 q 1007 919 884 1031 q 1131 625 1131 806 q 1093 392 1131 502 q 983 195 1055 282 q 775 34 895 87 q 497 -20 654 -20 q 173 92 296 -20 q 50 386 50 204 q 87 620 50 510 q 197 818 125 730 q 405 978 284 925 q 682 1031 525 1031 z "}}}
